<?xml version="1.0" encoding="iso-8859-1"?>
<!-- Generator: Adobe Illustrator 19.0.0, SVG Export Plug-In . SVG Version: 6.00 Build 0)  -->
<svg version="1.1" id="Capa_1" xmlns="http://www.w3.org/2000/svg" xmlns:xlink="http://www.w3.org/1999/xlink" x="0px" y="0px"
	 viewBox="0 0 512 512" style="enable-background:new 0 0 512 512;" xml:space="preserve">
<g>
	<g>
		<rect x="195.51" y="201.17" width="15" height="15"/>
	</g>
</g>
<g>
	<g>
		<rect x="245.51" y="201.17" width="15" height="15"/>
	</g>
</g>
<g>
	<g>
		<rect x="220.51" y="201.17" width="15" height="15"/>
	</g>
</g>
<g>
	<g>
		<polygon points="184.018,67.696 184.018,55.283 169.018,55.283 169.018,222.11 184.018,222.11 184.018,82.696 203.098,82.696 
			203.098,67.696 		"/>
	</g>
</g>
<g>
	<g>
		<path d="M331.306,234.611H157.557l-9.53,9.53v23.721l9.529,9.532h72.042V302.5h15v-25.106h86.709l9.529-9.532v-23.721
			L331.306,234.611z M325.836,261.65l-0.744,0.744H163.771l-0.744-0.744v-11.296l0.743-0.743h161.323l0.743,0.743V261.65z"/>
	</g>
</g>
<g>
	<g>
		<path d="M327.183,469.217H223.431v-15.029h-15v15.029h-46.75l-13.654,13.655V512h192.81v-29.128L327.183,469.217z M163.026,497
			v-7.915l4.867-4.868h153.075l4.867,4.868V497H163.026z"/>
	</g>
</g>
<g>
	<g>
		<path d="M148.026,0v29.128l13.654,13.655h67.918v76.884h15V42.783h82.585l13.653-13.655V0H148.026z M325.836,22.915l-4.867,4.868
			H167.893l-4.867-4.868V15h162.81V22.915z"/>
	</g>
</g>
<g>
	<g>
		<rect x="279.85" y="81.06" width="15" height="15"/>
	</g>
</g>
<g>
	<g>
		<rect x="279.85" y="106.06" width="15" height="115.27"/>
	</g>
</g>
<g>
	<g>
		<rect x="279.85" y="56.06" width="15" height="15"/>
	</g>
</g>
<g>
	<g>
		<rect x="279.85" y="315.67" width="15" height="15"/>
	</g>
</g>
<g>
	<g>
		<rect x="279.85" y="290.67" width="15" height="15"/>
	</g>
</g>
<g>
	<g>
		<rect x="279.85" y="340.67" width="15" height="115.27"/>
	</g>
</g>
<g>
	<g>
		<rect x="199.43" y="323.4" width="42.33" height="15"/>
	</g>
</g>
<g>
	<g>
		<path d="M450.525,48.558v0.002c-65.86,0-119.634,52.739-121.309,118.203l-9.37,9.37V55.283h-15V222.11h15v-24.763l19.978-19.978
			c31.235-0.79,60.484-13.326,82.66-35.503c22.92-22.92,35.543-53.394,35.542-85.808v-7.5H450.525z M356.668,160.525l47.124-47.124
			l-10.607-10.607l-47.125,47.125c8.906-46.638,48.37-82.567,96.684-86.078C439.234,112.155,403.306,151.619,356.668,160.525z"/>
	</g>
</g>
<g>
	<g>
		<path d="M184.018,424V289.89h-15v115.272l-5.151-5.151c-1.673-55.031-46.961-99.284-102.392-99.284h-7.5v7.5
			c0,55.43,44.253,100.718,99.285,102.391l15.758,15.759v20.34h15V439h64.413v-15H184.018z M135.87,393.228
			c-35.869-8.67-63.181-39.517-66.545-77.151c37.634,3.364,68.482,30.675,77.152,66.544l-36.304-36.304l-10.607,10.607
			L135.87,393.228z"/>
	</g>
</g>
<g>
	<g>
		<path d="M414.431,243.533c-49.841,0-90.583,39.707-92.256,89.149l-2.33,2.33V289.89h-15v156.827h15v-90.49l12.938-12.938
			c49.442-1.672,89.148-42.415,89.148-92.256v-7.5H414.431z M350.629,325.442l30.342-30.342l-10.607-10.607l-30.342,30.342
			c8.483-30.005,34.668-52.655,66.509-55.901C403.284,290.774,380.634,316.96,350.629,325.442z"/>
	</g>
</g>
<g>
</g>
<g>
</g>
<g>
</g>
<g>
</g>
<g>
</g>
<g>
</g>
<g>
</g>
<g>
</g>
<g>
</g>
<g>
</g>
<g>
</g>
<g>
</g>
<g>
</g>
<g>
</g>
<g>
</g>
</svg>
