<?xml version="1.0" encoding="iso-8859-1"?>
<!-- Generator: Adobe Illustrator 19.0.0, SVG Export Plug-In . SVG Version: 6.00 Build 0)  -->
<svg version="1.1" id="Capa_1" xmlns="http://www.w3.org/2000/svg" xmlns:xlink="http://www.w3.org/1999/xlink" x="0px" y="0px"
	 viewBox="0 0 512 512" style="enable-background:new 0 0 512 512;" xml:space="preserve">
<g>
	<g>
		<path d="M0.003,106.866v303.669L48.969,459.5h92.913l46.418-46.418V267.594l39.798-62.15v-98.578H0.003z M213.098,201.053
			l-39.798,62.15v45.63h-44.88v15h44.88v83.036L135.669,444.5H55.181l-40.178-40.178V159.5h100.698v-15H15.003v-22.635h198.095
			V201.053z"/>
	</g>
</g>
<g>
	<g>
		<rect x="25" y="211" width="15" height="78.13"/>
	</g>
</g>
<g>
	<g>
		<rect x="88.42" y="419.5" width="15" height="15"/>
	</g>
</g>
<g>
	<g>
		<rect x="63.42" y="419.5" width="15" height="15"/>
	</g>
</g>
<g>
	<g>
		<rect x="113.42" y="419.5" width="15" height="15"/>
	</g>
</g>
<g>
	<g>
		<polygon points="188.098,189 188.098,193.734 149.484,254.035 162.116,262.125 203.098,198.125 203.098,189 		"/>
	</g>
</g>
<g>
	<g>
		<rect x="188.1" y="164" width="15" height="15"/>
	</g>
</g>
<g>
	<g>
		<rect x="188.1" y="139" width="15" height="15"/>
	</g>
</g>
<g>
	<g>
		<path d="M213.704,11.46H169.21V0h-54.095v11.355H76.021V22.71H36.926v12.029H0.003v57.126h228.095V25.854L213.704,11.46z
			 M36.926,76.865H15.003V49.739h21.923V76.865z M76.021,76.865H51.926V37.71h24.095V76.865z M115.116,76.865h-0.001H91.021v-50.51
			h24.095V76.865z M154.21,76.865h-24.095V15h24.095V76.865z M169.21,76.865V26.461h38.281l5.606,5.606v44.798H169.21z"/>
	</g>
</g>
<g>
	<g>
		<path d="M283.901,159.365v98.578l39.799,62.15v145.488L370.118,512h92.913l48.966-48.965v-303.67H283.901z M496.997,361.333
			h-43.69v15h43.69v80.489L456.818,497h-80.487L338.7,459.369V315.703l-39.799-62.15v-37.555h70.936v-15h-70.936v-26.633h198.096
			V361.333z"/>
	</g>
</g>
<g>
	<g>
		<rect x="472" y="186.5" width="15" height="15"/>
	</g>
</g>
<g>
	<g>
		<rect x="472" y="211.5" width="15" height="15"/>
	</g>
</g>
<g>
	<g>
		<rect x="472" y="236.5" width="15" height="80.63"/>
	</g>
</g>
<g>
	<g>
		<rect x="383.58" y="472" width="15" height="15"/>
	</g>
</g>
<g>
	<g>
		<rect x="408.58" y="472" width="15" height="15"/>
	</g>
</g>
<g>
	<g>
		<rect x="433.58" y="472" width="15" height="15"/>
	</g>
</g>
<g>
	<g>
		<rect x="328.77" y="242.608" transform="matrix(0.8421 -0.5393 0.5393 0.8421 -97.6463 225.4841)" width="15" height="73.799"/>
	</g>
</g>
<g>
	<g>
		<path d="M475.074,87.239V75.21h-39.096V63.855h-39.095V52.5h-54.095v11.461h-44.494L283.9,78.355v66.011h228.096V87.239H475.074z
			 M298.901,129.365V84.567l5.606-5.606h38.281v50.404H298.901z M381.884,129.365h-24.095V67.5h24.095V129.365z M420.978,129.365
			h-24.095v-50.51h24.095V129.365z M460.074,129.365h-24.096V90.21h24.096V129.365z M496.997,129.365h-21.923v-27.126h21.923
			V129.365z"/>
	</g>
</g>
<g>
</g>
<g>
</g>
<g>
</g>
<g>
</g>
<g>
</g>
<g>
</g>
<g>
</g>
<g>
</g>
<g>
</g>
<g>
</g>
<g>
</g>
<g>
</g>
<g>
</g>
<g>
</g>
<g>
</g>
</svg>
