<?xml version="1.0" encoding="iso-8859-1"?>
<!-- Generator: Adobe Illustrator 19.0.0, SVG Export Plug-In . SVG Version: 6.00 Build 0)  -->
<svg version="1.1" id="Capa_1" xmlns="http://www.w3.org/2000/svg" xmlns:xlink="http://www.w3.org/1999/xlink" x="0px" y="0px"
	 viewBox="0 0 512.001 512.001" style="enable-background:new 0 0 512.001 512.001;" xml:space="preserve">
<g>
	<g>
		<rect x="190.433" y="293.489" width="15.001" height="15.001"/>
	</g>
</g>
<g>
	<g>
		<rect x="165.432" y="293.489" width="15.001" height="15.001"/>
	</g>
</g>
<g>
	<g>
		<rect x="140.43" y="293.489" width="15.001" height="15.001"/>
	</g>
</g>
<g>
	<g>
		<rect x="272.999" y="470.5" width="15.001" height="15.001"/>
	</g>
</g>
<g>
	<g>
		<rect x="323.002" y="470.5" width="15.001" height="15.001"/>
	</g>
</g>
<g>
	<g>
		<rect x="298" y="470.5" width="15.001" height="15.001"/>
	</g>
</g>
<g>
	<g>
		<rect x="220.495" y="373.754" width="15.001" height="15.001"/>
	</g>
</g>
<g>
	<g>
		<rect x="220.495" y="398.756" width="15.001" height="85.586"/>
	</g>
</g>
<g>
	<g>
		<rect x="220.495" y="348.753" width="15.001" height="15.001"/>
	</g>
</g>
<g>
	<g>
		<path d="M190.736,55.565l-12.845,7.749c10.726,17.778,14.048,26.664,14.306,28.878l14.9-1.738
			C206.169,82.494,197.688,67.088,190.736,55.565z"/>
	</g>
</g>
<g>
	<g>
		<rect x="357.854" y="373.754" width="15.001" height="15.001"/>
	</g>
</g>
<g>
	<g>
		<rect x="357.854" y="398.756" width="15.001" height="85.586"/>
	</g>
</g>
<g>
	<g>
		<rect x="357.854" y="348.753" width="15.001" height="15.001"/>
	</g>
</g>
<g>
	<g>
		<path d="M328.096,105.325l-12.845,7.749c10.726,17.777,14.047,26.663,14.306,28.878l14.9-1.738
			C343.528,132.254,335.048,116.848,328.096,105.325z"/>
	</g>
</g>
<g>
	<g>
		<rect x="291.74" y="355.163" width="34.877" height="15.001"/>
	</g>
</g>
<g>
	<g>
		<path d="M409.117,461.83h-11.256V247.39l-13.124-18.172l-55.556-18.404v-21.557c23.468-3.62,41.493-23.955,41.493-48.42
			c0-24.692-38.581-77.12-42.982-83.017l-6.011-8.06l-6.011,8.06c-4.399,5.896-42.982,58.325-42.982,83.017
			c0,24.466,18.025,44.8,41.493,48.42v16.588l-42.744-14.16l-10.936,7.897v-38.927l-25.937-18.73l-42.744,14.16v-16.588
			c23.468-3.62,41.493-23.955,41.493-48.42c0-24.692-38.581-77.12-42.982-83.017L184.321,0l-6.011,8.06
			c-4.399,5.896-42.982,58.325-42.982,83.017c0,24.466,18.025,44.8,41.493,48.42v21.557l-55.556,18.404l-13.124,18.173v269.717
			H90.884l-12.395,12.396v32.256h355.023v-25.775L409.117,461.83z M314.18,147.91v26.085c-15.146-3.424-26.492-16.991-26.492-33.158
			c0-13.051,18.909-44.27,33.992-65.731c15.083,21.461,33.992,52.68,33.992,65.731c0,16.167-11.345,29.734-26.492,33.158V147.91
			H314.18z M150.329,91.076c0-13.051,18.909-44.27,33.992-65.731c15.083,21.461,33.992,52.68,33.992,65.731
			c0,16.167-11.345,29.734-26.492,33.158V98.15H176.82v26.085C161.673,120.81,150.329,107.243,150.329,91.076z M245.5,496.999H93.49
			v-11.043l3.606-3.606h55.898v-15.001h-29.853V366.491h27.376V351.49h-27.376V202.481l7.444-10.309L232,158.576l13.5,9.75V496.999z
			 M260.501,496.999v-40.836h37.358v-15.001h-37.358V218.086l13.5-9.75l101.416,33.596l7.443,10.308v224.59h20.043l15.607,15.607
			v4.561H260.501z"/>
	</g>
</g>
<g>
	<g>
		<path d="M235.359,199.73l-4.72-14.239l-12.925,4.284c-5.672,1.884-9.483,7.164-9.483,13.141v44.044
			c0,4.184-3.404,7.589-7.589,7.589s-7.589-3.404-7.589-7.589v-29.859c0-4.432-2.145-8.628-5.738-11.224
			c-3.593-2.595-8.25-3.313-12.46-1.919l-41.573,13.772l4.718,14.239l40.053-13.269v28.259c0,12.456,10.134,22.589,22.589,22.589
			s22.589-10.134,22.589-22.589V203.75h-0.001L235.359,199.73z"/>
	</g>
</g>
<g>
	<g>
		<path d="M330.696,261.32c-4.625-1.534-9.746-0.744-13.694,2.108c-3.95,2.852-6.308,7.464-6.308,12.336v29.556
			c0,4.136-3.364,7.5-7.5,7.5c-4.136,0-7.5-3.364-7.5-7.5v-44.607c0-6.573-4.192-12.378-10.486-14.463l-9.901-3.196l-4.608,14.276
			l9.847,3.178c0.088,0.029,0.147,0.112,0.147,0.205v44.607c0,12.407,10.094,22.501,22.501,22.501
			c12.408,0,22.501-10.095,22.501-22.501v-29.556c0-0.062,0-0.11,0.09-0.175c0.088-0.065,0.135-0.051,0.186-0.032l42.023,13.972
			l4.732-14.235L330.696,261.32z"/>
	</g>
</g>
<g>
</g>
<g>
</g>
<g>
</g>
<g>
</g>
<g>
</g>
<g>
</g>
<g>
</g>
<g>
</g>
<g>
</g>
<g>
</g>
<g>
</g>
<g>
</g>
<g>
</g>
<g>
</g>
<g>
</g>
</svg>
