<?xml version="1.0" encoding="iso-8859-1"?>
<!-- Generator: Adobe Illustrator 19.0.0, SVG Export Plug-In . SVG Version: 6.00 Build 0)  -->
<svg version="1.1" id="Capa_1" xmlns="http://www.w3.org/2000/svg" xmlns:xlink="http://www.w3.org/1999/xlink" x="0px" y="0px"
	 viewBox="0 0 512 512" style="enable-background:new 0 0 512 512;" xml:space="preserve">
<g>
	<g>
		<rect x="266.3" y="467.17" width="15" height="15"/>
	</g>
</g>
<g>
	<g>
		<rect x="291.3" y="467.17" width="15" height="15"/>
	</g>
</g>
<g>
	<g>
		<rect x="316.3" y="467.17" width="15" height="15"/>
	</g>
</g>
<g>
	<g>
		<rect x="241.29" y="467.17" width="15" height="15"/>
	</g>
</g>
<g>
	<g>
		<path d="M311.667,354.5h-111.34c-21.78,0-39.5,17.72-39.5,39.5c0,21.78,17.72,39.5,39.5,39.5h111.339
			c21.78,0,39.5-17.72,39.5-39.5C351.166,372.22,333.447,354.5,311.667,354.5z M311.667,418.5h-111.34
			c-13.509,0-24.5-10.991-24.5-24.5c0-13.509,10.991-24.5,24.5-24.5h111.339c13.509,0,24.5,10.991,24.5,24.5
			C336.166,407.509,325.176,418.5,311.667,418.5z"/>
	</g>
</g>
<g>
	<g>
		<path d="M86.443,161.647l11.443,9.698c15.446-18.224,37.951-28.678,61.745-28.678v-15
			C131.42,127.667,104.744,140.052,86.443,161.647z"/>
	</g>
</g>
<g>
	<g>
		<path d="M68.173,194.654c-1.635,5.158-2.836,10.493-3.57,15.86l14.861,2.034c0.619-4.522,1.631-9.018,3.008-13.363L68.173,194.654
			z"/>
	</g>
</g>
<g>
	<g>
		<path d="M79.912,170.295c-3.018,4.501-5.668,9.285-7.875,14.217l13.691,6.128c1.861-4.159,4.097-8.194,6.643-11.992
			L79.912,170.295z"/>
	</g>
</g>
<g>
	<g>
		<path d="M159.631,152.667c-39.104,0-70.917,31.813-70.917,70.916c0,39.104,31.813,70.917,70.917,70.917
			c39.103,0,70.916-31.813,70.916-70.917C230.547,184.48,198.734,152.667,159.631,152.667z M159.631,279.5
			c-30.833,0-55.917-25.084-55.917-55.917c0-30.832,25.084-55.916,55.917-55.916c30.832,0,55.916,25.084,55.916,55.916
			C215.547,254.416,190.463,279.5,159.631,279.5z"/>
	</g>
</g>
<g>
	<g>
		<path d="M429.408,248.336c-10.82,33.594-41.782,56.164-77.046,56.164v15c41.8,0,78.5-26.75,91.323-66.565L429.408,248.336z"/>
	</g>
</g>
<g>
	<g>
		<path d="M352.362,152.667c-39.104,0-70.917,31.813-70.917,70.916c0.001,39.104,31.814,70.917,70.917,70.917
			c39.104,0,70.917-31.813,70.917-70.917C423.279,184.48,391.466,152.667,352.362,152.667z M352.362,279.5
			c-30.833,0-55.917-25.084-55.917-55.917c0.001-30.832,25.085-55.916,55.917-55.916c30.833,0,55.917,25.084,55.917,55.916
			C408.279,254.416,383.195,279.5,352.362,279.5z"/>
	</g>
</g>
<g>
	<g>
		<path d="M422.025,68.77C377.678,24.423,318.716,0,256,0S134.322,24.423,89.975,68.77c-44.347,44.347-68.77,103.309-68.77,166.025
			v148.917l47.881,47.881l45.367-45.367l7.071,7.071l-45.367,45.367L149.494,512h213.012l73.333-73.333l-45.37-45.37l7.071-7.071
			l45.37,45.371l47.885-47.885V234.794C490.795,172.079,466.372,113.117,422.025,68.77z M442.91,410.383l-45.37-45.371
			l-28.284,28.284l45.37,45.37L356.293,497H155.707l-58.336-58.336l45.367-45.367l-28.284-28.284L69.087,410.38l-32.881-32.881
			V234.794C36.205,113.599,134.805,15,256,15s219.795,98.599,219.795,219.794v142.704h0L442.91,410.383z"/>
	</g>
</g>
<g>
	<g>
		<rect x="46.2" y="270.33" width="15" height="99.92"/>
	</g>
</g>
<g>
	<g>
		<path d="M295.661,28.761l-2.83,14.73c4.708,0.904,9.441,1.999,14.07,3.253l3.922-14.478
			C305.835,30.915,300.734,29.736,295.661,28.761z"/>
	</g>
</g>
<g>
	<g>
		<path d="M344.876,44.767l-6.375,13.578c42.682,20.04,76.688,54.811,95.753,97.909l13.718-6.068
			C427.444,103.782,390.831,66.343,344.876,44.767z"/>
	</g>
</g>
<g>
	<g>
		<path d="M320.77,35.229l-4.64,14.265c4.556,1.482,9.116,3.156,13.555,4.977l5.692-13.878
			C330.595,38.631,325.68,36.826,320.77,35.229z"/>
	</g>
</g>
<g>
	<g>
		<polygon points="276.778,279.199 275.833,324.724 235.372,323.92 236.316,278.41 221.319,278.098 220.063,338.62 290.519,340.018 
			291.775,279.51 		"/>
	</g>
</g>
<g>
</g>
<g>
</g>
<g>
</g>
<g>
</g>
<g>
</g>
<g>
</g>
<g>
</g>
<g>
</g>
<g>
</g>
<g>
</g>
<g>
</g>
<g>
</g>
<g>
</g>
<g>
</g>
<g>
</g>
</svg>
