<?xml version="1.0" encoding="iso-8859-1"?>
<!-- Generator: Adobe Illustrator 19.0.0, SVG Export Plug-In . SVG Version: 6.00 Build 0)  -->
<svg version="1.1" id="Capa_1" xmlns="http://www.w3.org/2000/svg" xmlns:xlink="http://www.w3.org/1999/xlink" x="0px" y="0px"
	 viewBox="0 0 512 512" style="enable-background:new 0 0 512 512;" xml:space="preserve">
<g>
	<g>
		<rect x="169.427" y="102.978" width="15" height="15"/>
	</g>
</g>
<g>
	<g>
		<rect x="169.427" y="77.981" width="15" height="15"/>
	</g>
</g>
<g>
	<g>
		<rect x="228.731" y="260.007" transform="matrix(0.808 -0.5892 0.5892 0.808 -112.2549 190.5501)" width="15" height="15"/>
	</g>
</g>
<g>
	<g>
		<rect x="214.011" y="239.809" transform="matrix(0.808 -0.5892 0.5892 0.808 -103.1805 177.9978)" width="15" height="15"/>
	</g>
</g>
<g>
	<g>
		<path d="M255.194,121.389c-2.024,0.393-4.002,0.902-5.881,1.514c-3.516,1.146-7.029,2.756-10.442,4.786l7.671,12.891
			c2.459-1.464,4.954-2.612,7.416-3.414c1.295-0.422,2.673-0.775,4.094-1.052L255.194,121.389z"/>
	</g>
</g>
<g>
	<g>
		<path d="M229.742,134.288c-3.875,3.311-7.693,7.257-11.349,11.731l11.616,9.49c3.091-3.783,6.279-7.085,9.475-9.815
			L229.742,134.288z"/>
	</g>
</g>
<g>
	<g>
		<path d="M266.597,120.363l-0.062,15c15.829,0.064,32.532,7.052,43.758,12.902l6.932-13.302
			C304.527,128.346,285.435,120.441,266.597,120.363z"/>
	</g>
</g>
<g>
	<g>
		<path d="M143.177,270.99c-8.425,11.553-27.446,20.312-52.185,24.03l2.229,14.834c16.854-2.533,47.329-9.802,62.076-30.025
			L143.177,270.99z"/>
	</g>
</g>
<g>
	<g>
		<path d="M85.811,180.358l-0.096-0.03l-2.321,7.131l-2.473,7.081l0.243,0.08c5.176,1.687,10.897,2.542,17.003,2.542v-15
			C93.641,182.162,89.484,181.556,85.811,180.358z"/>
	</g>
</g>
<g>
	<g>
		<path d="M53.587,150.331l-12.708,7.971c2.945,4.694,6.048,9.057,9.224,12.965l11.641-9.461
			C58.952,158.371,56.208,154.51,53.587,150.331z"/>
	</g>
</g>
<g>
	<g>
		<path d="M67.895,168.617l-10.542,10.672c4.244,4.192,8.657,7.685,13.118,10.379l7.757-12.838
			C74.776,174.744,71.3,171.982,67.895,168.617z"/>
	</g>
</g>
<g>
	<g>
		<rect x="369.664" y="341.174" width="15" height="15"/>
	</g>
</g>
<g>
	<g>
		<rect x="369.664" y="316.174" width="15" height="15"/>
	</g>
</g>
<g>
	<g>
		<rect x="341.029" y="429.05" transform="matrix(0.5892 -0.808 0.808 0.5892 -209.5509 460.9467)" width="15" height="15"/>
	</g>
</g>
<g>
	<g>
		<rect x="326.303" y="449.247" transform="matrix(0.5892 -0.808 0.808 0.5892 -231.9195 457.3438)" width="15" height="15"/>
	</g>
</g>
<g>
	<g>
		<path d="M507.667,350.159c-1.786-1.313-43.842-31.757-81.623-20.221c-0.736-39.497-42.712-70.049-44.515-71.341l-4.37-3.134
			l-4.37,3.134c-1.802,1.291-43.779,31.841-44.515,71.341c-13.349-4.076-27.23-2.912-39.68,0.356
			c2.86-9.26,20.003-69.998-8.9-109.636c-0.408-0.56-0.823-1.112-1.245-1.656c0.665-0.196,1.324-0.4,1.979-0.613
			c49.525-16.139,70.907-81.963,71.793-84.758l1.625-5.126l-4.333-3.185c-2.362-1.735-58.421-42.327-107.945-26.187
			c-0.659,0.215-1.312,0.439-1.96,0.67c0.02-0.693,0.03-1.383,0.03-2.072c0-52.088-55.961-92.811-58.343-94.519l-4.37-3.134
			l-4.37,3.134c-2.382,1.708-58.343,42.432-58.343,94.519c0,0.693,0.01,1.383,0.03,2.072c-0.652-0.234-1.306-0.457-1.96-0.67
			C62.754,82.996,6.695,123.586,4.333,125.321L0,128.506l1.625,5.126c0.886,2.795,22.268,68.619,71.793,84.758
			c0.658,0.215,1.318,0.419,1.979,0.614c-0.424,0.548-0.839,1.1-1.245,1.656c-30.688,42.087-9.466,107.963-8.548,110.746
			l1.685,5.107l5.377,0.043c0.072,0,0.184,0.001,0.334,0.001c5.978,0,72.562-0.947,102.496-41.999
			c0.489-0.67,0.964-1.346,1.426-2.028c0.465,0.686,0.94,1.363,1.425,2.028c24.3,33.323,72.749,40.221,93.325,41.637
			c-14.242,6.148-24.174,13.342-25.022,13.966l-4.333,3.185l1.625,5.126c0.67,2.114,16.712,51.491,54.038,64.429
			c-22.677,32.348-6.759,81.766-6.064,83.871l1.685,5.107l5.377,0.043c0.055,0,0.139,0.001,0.253,0.001
			c4.517,0,54.728-0.716,77.928-31.655c23.202,30.941,73.416,31.655,77.927,31.655c0.113,0,0.198-0.001,0.252-0.001l5.378-0.043
			l1.685-5.107c0.695-2.105,16.613-51.522-6.064-83.871c37.325-12.938,53.368-62.315,54.038-64.429l1.625-5.126L507.667,350.159z
			 M246.213,113.397c34.831-11.349,76.192,12.18,89.817,20.921c-5.841,15.097-25.335,58.433-60.252,69.811
			c-3.077,1.003-6.311,1.763-9.648,2.269c-16.192-13.293-36.72-20.213-54.019-23.817l69.989-22.807l-4.647-14.262l-87.647,28.562
			C198.414,155.1,216.865,122.96,246.213,113.397z M17.818,134.306c13.614-8.757,54.897-32.29,89.813-20.909
			c3.078,1.003,6.138,2.294,9.132,3.85c5.247,20.274,17.746,37.959,29.594,51.064l-69.966-22.8l-4.647,14.262l87.648,28.561
			c-18.134,10.26-51.98,25.359-81.327,15.793C43.235,192.778,23.678,149.396,17.818,134.306z M163.376,285.719
			c-21.578,29.592-68.871,34.751-85.045,35.648c-4.092-15.678-13.639-62.28,7.939-91.871c1.906-2.614,4.082-5.124,6.49-7.489
			c1.827,0.113,3.652,0.167,5.473,0.167c19.011-0.001,37.527-5.91,52.249-12.485l-43.356,59.46l12.12,8.838l54.298-74.466
			C177.662,223.967,181.51,260.849,163.376,285.719z M169.421,127.979v42.159c-15.374-14.093-40.213-41.627-40.213-72.405
			c0.001-36.623,35.174-68.657,47.714-78.911c12.543,10.256,47.713,42.286,47.713,78.911c0,3.234-0.279,6.543-0.832,9.875
			c-17.65,11.27-30.593,28.634-39.382,43.958v-23.588H169.421z M190.468,285.72c-1.995-2.737-3.791-5.719-5.358-8.896
			c7.572-19.462,7.835-41.046,5.963-58.53l14.068,19.293l12.12-8.838l-24.832-34.054c20.726,2.33,57.009,9.93,75.145,34.801
			c21.578,29.591,12.031,76.197,7.94,91.87C259.335,320.47,212.045,315.311,190.468,285.72z M260.189,359.168
			c11.126-6.942,40.101-22.582,64.439-14.652c1.96,0.639,3.914,1.443,5.836,2.399c3.47,12.7,10.588,24.023,18.015,33.135
			l-46.111-15.027l-4.647,14.262l61.56,20.061c-13.903,7.289-36.253,15.949-55.657,9.626
			C279.282,401.039,265.085,371.324,260.189,359.168z M365.487,470.823c-15.084,20.686-47.734,24.977-60.81,25.866
			c-3.153-12.729-9.047-45.123,6.034-65.807c1.216-1.667,2.585-3.275,4.09-4.807c1.107,0.053,2.213,0.08,3.316,0.08
			c12.669,0,25.026-3.409,35.424-7.594l11.351,8.277l8.688-11.915C376.202,430.399,377.51,454.332,365.487,470.823z M369.66,366.177
			v14.747c-11.238-10.96-26.396-29.527-26.396-49.935c-0.001-25.608,23.865-48.316,33.902-56.734
			c10.048,8.4,33.887,31.041,33.887,56.734c0,2.063-0.159,4.17-0.472,6.293c-11.557,7.602-20.422,18.56-26.875,28.895H369.66z
			 M449.641,496.688c-13.084-0.89-45.729-5.183-60.811-25.867c-1.281-1.756-2.449-3.656-3.488-5.674
			c4.598-12.3,5.475-25.607,4.821-37.298l28.721,39.387l12.12-8.838l-38.129-52.29c15.539,2.236,38.713,8.291,50.731,24.773
			C458.69,451.567,452.793,483.967,449.641,496.688z M450.695,408.972c-1.962,0.639-4.014,1.14-6.131,1.5
			c-10.29-8.218-22.715-13.172-34.087-16.157l46.12-15.029l-4.647-14.262l-61.56,20.061c6.939-14.081,19.896-34.245,39.299-40.569
			c24.34-7.935,53.319,7.713,64.438,14.652C489.228,371.331,475.033,401.04,450.695,408.972z"/>
	</g>
</g>
<g>
</g>
<g>
</g>
<g>
</g>
<g>
</g>
<g>
</g>
<g>
</g>
<g>
</g>
<g>
</g>
<g>
</g>
<g>
</g>
<g>
</g>
<g>
</g>
<g>
</g>
<g>
</g>
<g>
</g>
</svg>
