<?xml version="1.0" encoding="iso-8859-1"?>
<!-- Generator: Adobe Illustrator 19.0.0, SVG Export Plug-In . SVG Version: 6.00 Build 0)  -->
<svg version="1.1" id="Capa_1" xmlns="http://www.w3.org/2000/svg" xmlns:xlink="http://www.w3.org/1999/xlink" x="0px" y="0px"
	 viewBox="0 0 512 512" style="enable-background:new 0 0 512 512;" xml:space="preserve">
<g>
	<g>
		<path d="M203.07,336.155l-12.68,8.014c17.2,27.214,27.835,57.292,31.611,89.399l14.897-1.752
			C232.858,397.464,221.477,365.279,203.07,336.155z"/>
	</g>
</g>
<g>
	<g>
		<path d="M170.841,295.9l-10.606,10.607c3.411,3.411,6.748,6.974,9.918,10.591l11.279-9.888
			C178.046,303.347,174.483,299.542,170.841,295.9z"/>
	</g>
</g>
<g>
	<g>
		<path d="M188.072,315.128l-11.707,9.379c3.014,3.764,5.936,7.671,8.682,11.612l12.308-8.575
			C194.418,323.329,191.295,319.152,188.072,315.128z"/>
	</g>
</g>
<g>
	<g>
		<path d="M504.5,203.242c-68.38,0-132.667,26.628-181.019,74.98c-27.112,27.112-47.393,59.234-59.98,94.278v-68.63
			c4.313-15.39,10.108-30.171,17.228-44.173h36.605v-15H289.04c26.876-44.687,67.829-80.034,117.052-99.742
			c6.229,18.931,10.094,38.474,11.501,58.202l14.962-1.067c-1.685-23.628-6.686-47-14.863-69.467l-2.565-7.047l-7.047,2.565
			c-39.04,14.209-74.325,37.887-102.04,68.473c-21.61,23.845-38.663,51.875-50.04,82.046c-11.377-30.171-28.43-58.201-50.039-82.047
			c-27.715-30.586-63-54.263-102.041-68.473l-7.047-2.565l-2.565,7.048c-8.177,22.466-13.177,45.838-14.862,69.467l14.962,1.067
			c1.407-19.728,5.271-39.271,11.501-58.202c69.382,27.779,122.334,86.632,142.591,158.915v68.631
			c-12.587-35.044-32.869-67.166-59.98-94.278c-48.352-48.352-112.64-74.98-181.02-74.98H0v7.5
			c0,68.38,26.628,132.667,74.98,181.019c46.58,46.58,107.95,73,173.52,74.873v0.107h15v-0.107
			c65.57-1.874,126.939-28.293,173.52-74.873c48.351-48.353,74.98-112.64,74.98-181.02v-7.5H504.5z M85.587,381.155
			c-11.925-11.925-22.446-24.879-31.481-38.663H91v-15H45.042c-18.412-33.155-28.728-70.356-29.924-109.131
			c126.852,3.956,229.308,106.413,233.264,233.264C186.864,449.727,129.306,424.873,85.587,381.155z M263.617,451.623
			c1.898-61.518,26.751-119.076,70.47-162.794c43.718-43.719,101.276-68.572,162.794-70.47
			C492.926,345.211,390.469,447.668,263.617,451.623z"/>
	</g>
</g>
<g>
	<g>
		<path d="M304.137,344.09c-2.575,4.464-5.027,9.069-7.287,13.685l13.472,6.597c2.112-4.313,4.403-8.616,6.809-12.789
			L304.137,344.09z"/>
	</g>
</g>
<g>
	<g>
		<path d="M283.573,391.401c-1.503,4.922-2.858,9.959-4.027,14.972l14.608,3.405c1.092-4.685,2.359-9.393,3.764-13.993
			L283.573,391.401z"/>
	</g>
</g>
<g>
	<g>
		<path d="M277.427,416.49c-0.941,5.051-1.723,10.208-2.325,15.326L290,433.568c0.563-4.787,1.294-9.609,2.173-14.332
			L277.427,416.49z"/>
	</g>
</g>
<g>
	<g>
		<path d="M292.514,367.161c-2.052,4.72-3.967,9.573-5.694,14.424l14.132,5.03c1.613-4.532,3.402-9.065,5.319-13.475
			L292.514,367.161z"/>
	</g>
</g>
<g>
	<g>
		<path d="M470.501,236.416c-0.563,4.791-1.295,9.613-2.174,14.333l14.746,2.747c0.94-5.048,1.722-10.206,2.325-15.328
			L470.501,236.416z"/>
	</g>
</g>
<g>
	<g>
		<path d="M459.548,283.371c-10.745,30.184-27.841,57.135-50.813,80.106l10.606,10.606c24.559-24.556,42.841-53.384,54.338-85.682
			L459.548,283.371z"/>
	</g>
</g>
<g>
	<g>
		<path d="M466.346,260.207c-1.093,4.69-2.36,9.398-3.765,13.992l14.345,4.387c1.502-4.917,2.858-9.955,4.028-14.974
			L466.346,260.207z"/>
	</g>
</g>
<g>
	<g>
		<path d="M157.038,185.439l-9.121,11.909c3.828,2.932,7.598,6.025,11.204,9.193l9.9-11.269
			C165.163,191.882,161.131,188.574,157.038,185.439z"/>
	</g>
</g>
<g>
	<g>
		<path d="M120.603,162.56l-6.767,13.387c9.086,4.593,17.928,9.875,26.278,15.699l8.58-12.304
			C139.768,173.117,130.317,167.471,120.603,162.56z"/>
	</g>
</g>
<g>
	<g>
		<path d="M176.63,202.269l-10.398,10.811c3.472,3.339,6.866,6.836,10.088,10.391l11.115-10.072
			C183.984,209.59,180.349,205.846,176.63,202.269z"/>
	</g>
</g>
<g>
	<g>
		<path d="M348.243,190.784c-8.428,6.969-16.395,14.578-23.679,22.615l11.115,10.072c6.802-7.506,14.245-14.614,22.121-21.125
			L348.243,190.784z"/>
	</g>
</g>
<g>
	<g>
		<path d="M391.395,162.559c-4.591,2.321-9.163,4.827-13.589,7.449l7.645,12.906c4.141-2.452,8.417-4.796,12.712-6.968
			L391.395,162.559z"/>
	</g>
</g>
<g>
	<g>
		<path d="M369.036,175.47c-4.308,2.818-8.574,5.816-12.68,8.911l9.029,11.978c3.841-2.894,7.831-5.699,11.862-8.335L369.036,175.47
			z"/>
	</g>
</g>
<g>
	<g>
		<path d="M219.68,174.651l-10.856,10.351c9.447,9.91,18.199,20.645,26.012,31.904l12.324-8.551
			C238.907,196.46,229.661,185.121,219.68,174.651z"/>
	</g>
</g>
<g>
	<g>
		<path d="M276.725,109.919l-12.743,7.913c2.54,4.09,4.97,8.316,7.223,12.561l13.249-7.033
			C282.043,118.818,279.443,114.296,276.725,109.919z"/>
	</g>
</g>
<g>
	<g>
		<path d="M261.888,88.776l-11.777,9.29c2.984,3.782,5.874,7.71,8.59,11.675l12.374-8.479
			C268.17,97.022,265.078,92.821,261.888,88.776z"/>
	</g>
</g>
<g>
	<g>
		<path d="M289.093,132.598l-13.554,6.426c6.424,13.551,11.44,27.86,14.91,42.529l14.598-3.452
			C301.336,162.408,295.968,147.099,289.093,132.598z"/>
	</g>
</g>
<g>
	<g>
		<path d="M261.303,50.561L256,45.258l-5.303,5.303c-31.402,31.401-54.172,70.507-65.848,113.089l14.466,3.967
			c10.321-37.64,29.854-72.396,56.685-100.976c26.831,28.58,46.364,63.336,56.685,100.976l14.466-3.967
			C315.475,121.068,292.705,81.962,261.303,50.561z"/>
	</g>
</g>
<g>
</g>
<g>
</g>
<g>
</g>
<g>
</g>
<g>
</g>
<g>
</g>
<g>
</g>
<g>
</g>
<g>
</g>
<g>
</g>
<g>
</g>
<g>
</g>
<g>
</g>
<g>
</g>
<g>
</g>
</svg>
