<?xml version="1.0" encoding="iso-8859-1"?>
<!-- Generator: Adobe Illustrator 19.0.0, SVG Export Plug-In . SVG Version: 6.00 Build 0)  -->
<svg version="1.1" id="Capa_1" xmlns="http://www.w3.org/2000/svg" xmlns:xlink="http://www.w3.org/1999/xlink" x="0px" y="0px"
	 viewBox="0 0 511.998 511.998" style="enable-background:new 0 0 511.998 511.998;" xml:space="preserve">
<g>
	<g>
		<path d="M262.011,8.058L255.999,0l-6.011,8.058c-3.886,5.208-95.158,128.166-95.158,181.771
			c0,55.784,45.384,101.169,101.169,101.169c55.785,0,101.169-45.384,101.169-101.169C357.168,136.224,265.896,13.266,262.011,8.058
			z M255.999,275.998c-47.514,0-86.169-38.655-86.169-86.169c0.001-13.768,7.922-42.989,45.658-104.008
			c15.97-25.823,32.1-48.829,40.532-60.566c28.709,39.753,86.148,127.042,86.148,164.574
			C342.168,237.343,303.512,275.998,255.999,275.998z"/>
	</g>
</g>
<g>
	<g>
		<path d="M289.416,101.138l-12.846,7.745c8.313,13.787,15.386,26.505,21.021,37.801l13.422-6.696
			C305.2,128.336,297.934,115.265,289.416,101.138z"/>
	</g>
</g>
<g>
	<g>
		<path d="M262.202,58.73l-12.42,8.411c2.783,4.11,5.565,8.279,8.269,12.392l12.535-8.239
			C267.845,67.124,265.023,62.897,262.202,58.73z"/>
	</g>
</g>
<g>
	<g>
		<path d="M276.077,79.742l-12.617,8.111c2.729,4.247,5.402,8.479,7.942,12.577l12.75-7.902
			C281.568,88.36,278.851,84.058,276.077,79.742z"/>
	</g>
</g>
<g>
	<g>
		<path d="M477.559,191.822l-26.983,12.425l-14.266-4.83l-31.78,14.634l-19.712,49.167h-22.195L255.999,369.841L149.375,263.218
			H127.18l-19.712-49.167l-31.781-14.634l-14.265,4.83l-26.984-12.426L0.566,203.29l82.161,205.056l60.135,36.956v66.696h226.273
			v-66.696l60.135-36.956l82.161-205.057L477.559,191.822z M74.84,215.541l20.929,9.637l15.251,38.041h-2.22l-14.15,14.15
			l-24.193-60.344L74.84,215.541z M248.5,496.998L248.5,496.998h-90.638v-48.39H190.2v-15h-37.717l-57.676-35.445l-50.47-125.965
			l14.495-4.907l-4.811-14.208l-15.271,5.17l-18.365-45.836l13.208-4.472l20.895,9.622l31.041,77.357l79.398,79.398l10.606-10.606
			l-31.687-31.687l12.947-12.947l-10.606-10.606l-12.947,12.947l-30.714-30.714l12.489-12.489h28.15L248.5,383.556V496.998z
			 M416.228,225.178l20.929-9.637l4.384,1.485l-24.192,60.343l-14.151-14.15h-2.221L416.228,225.178z M467.66,272.196
			l-50.47,125.967l-63.055,38.751v60.083h-90.637V383.554l105.336-105.336h28.15l12.489,12.489l-30.714,30.714l-12.947-12.947
			l-10.607,10.606l12.947,12.947l-31.687,31.687l10.607,10.606l79.397-79.395l31.042-77.36l20.894-9.621l13.209,4.472
			l-18.366,45.836l-15.272-5.171l-4.811,14.208L467.66,272.196z"/>
	</g>
</g>
<g>
	<g>
		<polygon points="349.11,407.397 326.356,421.38 326.356,476.719 341.356,476.719 341.356,429.768 356.963,420.176 		"/>
	</g>
</g>
<g>
	<g>
		<rect x="360.448" y="397.107" transform="matrix(0.852 -0.5236 0.5236 0.852 -157.3804 252.5449)" width="15" height="15"/>
	</g>
</g>
<g>
	<g>
		<rect x="381.751" y="384.008" transform="matrix(0.852 -0.5236 0.5236 0.852 -147.3683 261.7588)" width="15" height="15"/>
	</g>
</g>
<g>
	<g>
		<rect x="127.161" y="393.871" transform="matrix(0.5236 -0.852 0.852 0.5236 -277.8032 305.9471)" width="15" height="15"/>
	</g>
</g>
<g>
	<g>
		<rect x="105.862" y="380.781" transform="matrix(0.5236 -0.852 0.852 0.5236 -276.7981 281.5649)" width="15" height="15"/>
	</g>
</g>
<g>
	<g>
		<rect x="148.468" y="406.956" transform="matrix(0.5236 -0.852 0.852 0.5236 -278.7999 330.3341)" width="15" height="15"/>
	</g>
</g>
<g>
	<g>
		<rect x="223.5" y="390.8" width="15" height="15"/>
	</g>
</g>
<g>
	<g>
		<rect x="223.5" y="440.8" width="15" height="38.694"/>
	</g>
</g>
<g>
	<g>
		<rect x="223.5" y="415.8" width="15" height="15"/>
	</g>
</g>
<g>
	<g>
		<path d="M320.129,164.415c-0.841-0.617-19.15-13.868-37.492-11.204c-3.15-18.267-21.42-31.568-22.269-32.176l-4.37-3.134
			l-4.371,3.134c-0.848,0.608-19.118,13.91-22.268,32.177c-18.342-2.662-36.651,10.586-37.492,11.203l-4.333,3.185l1.625,5.126
			c0.316,0.994,7.302,22.486,23.693,31.141c-8.216,16.616-1.291,38.128-0.964,39.118l1.685,5.107l5.377,0.043h0.125
			c2.095,0,23.974-0.313,36.923-12.973c12.949,12.66,34.829,12.973,36.923,12.973h0.125l5.378-0.043l1.685-5.107
			c0.327-0.991,7.253-22.503-0.964-39.118c16.391-8.655,23.376-30.147,23.692-31.142l1.625-5.126L320.129,164.415z M205.617,173.514
			c5.867-3.221,15.971-7.544,24.287-4.833c0.245,0.08,0.491,0.167,0.736,0.26c2.676,8.049,8.002,14.871,12.623,19.655
			c-5.119,2.365-11.554,4.422-17.328,3.827l-0.455-0.047c-1.044-0.136-2.073-0.36-3.075-0.687
			C214.531,189.123,208.73,180.094,205.617,173.514z M249.122,219.158l-0.185,0.425c-0.464,0.989-1.012,1.934-1.656,2.817
			c-4.88,6.695-15.261,9.412-22.482,10.332c-1.244-6.577-2.222-17.525,2.929-24.589c0.152-0.209,0.311-0.416,0.476-0.62
			c8.48-0.051,16.618-3.001,22.598-5.912C251.46,207.169,251.427,213.867,249.122,219.158z M253.302,177.394
			c-2.28-2.458-4.6-5.392-6.364-8.56c-0.009-0.017-0.019-0.034-0.028-0.051c-0.025-0.045-0.049-0.089-0.074-0.134
			c-1.758-3.22-2.937-6.677-2.937-10.129c0-8.293,6.804-16.615,12.099-21.611c5.299,5.001,12.1,13.321,12.1,21.612
			c0,0.258-0.007,0.52-0.02,0.782C261.254,164.341,256.419,171.519,253.302,177.394z M287.232,232.708
			c-6.643-0.826-17.366-3.243-22.516-10.307c-0.183-0.25-0.359-0.508-0.529-0.773c2.53-8.052,2.234-16.652,1.321-23.202
			c5.543,1.079,11.983,3.181,16.33,7.055l0.349,0.311c0.764,0.72,1.464,1.502,2.084,2.352
			C289.15,214.836,288.562,225.552,287.232,232.708z M289.595,191.689c-0.247,0.08-0.498,0.155-0.753,0.224
			c-6.904-4.927-15.228-7.301-21.781-8.444c0.373-0.678,0.774-1.372,1.2-2.073c3.308-5.372,8.002-10.816,13.832-12.716h0.001
			c7.886-2.57,17.907,1.322,24.297,4.808C303.279,180.076,297.476,189.12,289.595,191.689z"/>
	</g>
</g>
<g>
</g>
<g>
</g>
<g>
</g>
<g>
</g>
<g>
</g>
<g>
</g>
<g>
</g>
<g>
</g>
<g>
</g>
<g>
</g>
<g>
</g>
<g>
</g>
<g>
</g>
<g>
</g>
<g>
</g>
</svg>
