<?xml version="1.0" encoding="iso-8859-1"?>
<!-- Generator: Adobe Illustrator 19.0.0, SVG Export Plug-In . SVG Version: 6.00 Build 0)  -->
<svg version="1.1" id="Capa_1" xmlns="http://www.w3.org/2000/svg" xmlns:xlink="http://www.w3.org/1999/xlink" x="0px" y="0px"
	 viewBox="0 0 512.001 512.001" style="enable-background:new 0 0 512.001 512.001;" xml:space="preserve">
<g>
	<g>
		<path d="M505.438,305.316c-1.346-0.989-32.253-23.362-61.068-16.188c-1.889-26.567-26.9-47.368-33.017-52.077
			c6.909-7.578,10.511-15.796,10.511-24.373c0-19.278-18.198-36.748-51.24-49.191c-14.469-5.449-31.148-9.746-49.253-12.767
			c3.102-1.061,6.087-2.202,8.941-3.422c21.998-9.403,34.112-22.686,34.112-37.402s-12.114-27.999-34.112-37.402
			C310.338,63.957,283.949,59.256,256,59.256s-54.338,4.702-74.311,13.239c-21.998,9.403-34.112,22.686-34.112,37.402
			s12.114,27.999,34.112,37.402c2.854,1.22,5.839,2.361,8.941,3.422c-18.106,3.022-34.786,7.318-49.253,12.767
			c-33.043,12.445-51.24,29.915-51.24,49.191c0,19.277,18.198,36.748,51.24,49.191c8.446,3.181,17.644,5.969,27.44,8.339
			c-33.755,4.337-64.735,11.214-90.997,20.352C27.637,308.022,0,332.25,0,358.783s27.637,50.761,77.819,68.221
			c47.707,16.6,110.986,25.741,178.181,25.741c26.021,0,51.677-1.38,76.255-4.101l-1.65-14.909
			c-24.032,2.661-49.132,4.01-74.604,4.01c-65.56,0-127.089-8.846-173.251-24.908C39.693,397.857,15,378.155,15,358.783
			c0-19.372,24.693-39.075,67.749-54.054C128.911,288.666,190.44,279.821,256,279.821c27.863,0,55.191,1.608,81.228,4.78l1.63-13.38
			c11.421-2.577,22.088-5.706,31.765-9.35c3.023-1.139,5.921-2.319,8.693-3.539c-6.192,8.57-11.483,19.128-12.313,30.798
			c-28.816-7.174-59.721,15.199-61.068,16.188l-4.333,3.185l1.625,5.126c0.506,1.592,12.296,37.88,39.806,49.059
			c-15.75,25.174-4.053,61.492-3.53,63.078l1.685,5.107l5.378,0.042c0.042,0,0.106,0.001,0.193,0.001
			c3.388,0,40.299-0.527,58.927-22.816c18.629,22.291,55.543,22.816,58.926,22.816c0.087,0,0.151,0,0.193,0l5.378-0.043l1.685-5.107
			c0.523-1.586,12.221-37.905-3.529-63.079c27.512-11.18,39.303-47.468,39.808-49.06l1.625-5.126L505.438,305.316z M162.577,109.896
			c0-16.858,38.368-35.641,93.423-35.641s93.423,18.783,93.423,35.641c0,16.858-38.368,35.641-93.423,35.641
			S162.577,126.754,162.577,109.896z M256,264.82c-88.906,0-150.864-27.48-150.864-52.142S167.094,160.536,256,160.536
			s150.864,27.48,150.864,52.142S344.906,264.82,256,264.82z M319.518,314.3c10.425-6.309,30.174-15.158,45.886-10.036
			c1.156,0.377,2.309,0.834,3.451,1.368c2.177,7.472,5.942,14.3,10.156,20.206l-29.301-9.548l-4.648,14.262l42.298,13.784
			c-10.182,4.778-24.327,9.214-36.701,5.18C333.817,344.026,323.565,323.928,319.518,314.3z M395.386,396.937
			c-10.439,14.313-32.725,17.833-43.132,18.698c-2.768-11.865-5.062-33.384,4.675-46.736c0.717-0.983,1.51-1.939,2.371-2.859
			c0.57,0.018,1.138,0.027,1.707,0.027c7.19,0,14.238-1.405,20.651-3.422l-18.157,24.901l12.121,8.838l26.209-35.944
			C403.218,371.601,403.052,386.423,395.386,396.937z M398.186,281.1v44.504c-8.024-8.651-16.296-20.839-16.296-33.309
			c0-17.714,15.934-33.688,23.833-40.519c9.227,7.957,23.76,23.992,23.76,40.519c0,1.216-0.078,2.455-0.231,3.704
			c-6.43,4.385-11.756,10.081-16.066,15.917V281.1H398.186z M459.071,415.63c-10.435-0.872-32.662-4.404-43.081-18.693
			c-0.765-1.049-1.474-2.173-2.121-3.358c2.598-7.316,3.55-15.035,3.606-22.266l18.281,25.07l12.119-8.838l-26.223-35.962
			c11.58,2.263,25.45,7.242,32.794,17.314C464.865,383.186,461.43,405.434,459.071,415.63z M460.716,349.514
			c-1.156,0.377-2.358,0.687-3.594,0.928c-6.162-4.754-13.228-8.054-20.113-10.343l29.304-9.549l-4.648-14.262l-42.315,13.789
			c5.739-10.31,14.765-21.951,26.621-25.815c16.808-5.48,36.903,4.681,45.865,10.083
			C487.773,323.997,477.528,344.035,460.716,349.514z"/>
	</g>
</g>
<g>
	<g>
		<path d="M160.426,226.208c-25.254-8.577-30.974-16.918-31.025-17c0.035,0.058,0.062,0.112,0.084,0.159l-13.457,6.624
			c3.137,6.374,15.18,16.136,39.573,24.421c15.137,5.141,32.633,8.992,52.002,11.444l1.885-14.881
			C191.117,234.648,174.609,231.026,160.426,226.208z"/>
	</g>
</g>
<g>
	<g>
		<path d="M256,170.536v15c31.965,0,63.126,3.959,87.745,11.146l4.203-14.398C321.626,174.599,289.831,170.536,256,170.536z"/>
	</g>
</g>
<g>
	<g>
		<path d="M357.844,185.443l-4.943,14.163c4.8,1.675,9.226,3.467,13.154,5.327l6.418-13.558
			C368.066,189.289,363.143,187.293,357.844,185.443z"/>
	</g>
</g>
<g>
	<g>
		<path d="M395.972,209.367c-1.91-3.879-7.001-8.569-13.971-12.866l-7.871,12.769c6.623,4.083,8.451,6.852,8.468,6.878
			c-0.036-0.058-0.062-0.112-0.085-0.159L395.972,209.367z"/>
	</g>
</g>
<g>
	<g>
		<path d="M256.001,84.255c-21.033,0-41.451,3.036-57.493,8.547l4.873,14.187c14.516-4.987,33.203-7.734,52.619-7.734
			c1.895,0,3.808,0.027,5.685,0.079l0.42-14.994C260.088,84.284,258.035,84.255,256.001,84.255z"/>
	</g>
</g>
<g>
	<g>
		<path d="M272.451,84.877l-1.144,14.956c4.883,0.373,9.697,0.927,14.313,1.646l2.311-14.821
			C282.93,85.878,277.722,85.278,272.451,84.877z"/>
	</g>
</g>
<g>
	<g>
		<path d="M298.208,88.573l-3.205,14.653c4.866,1.064,9.446,2.33,13.615,3.763l4.874-14.186
			C308.778,91.183,303.636,89.76,298.208,88.573z"/>
	</g>
</g>
<g>
	<g>
		<path d="M236.146,290.095c-33.481,0.932-65.243,4.174-94.405,9.635l2.762,14.744c28.391-5.317,59.363-8.475,92.062-9.385
			L236.146,290.095z"/>
	</g>
</g>
<g>
	<g>
		<path d="M246.257,289.886l0.203,14.999c4.93-0.066,9.897-0.083,14.847-0.044l0.115-15
			C256.364,289.803,251.291,289.818,246.257,289.886z"/>
	</g>
</g>
<g>
	<g>
		<path d="M271.528,289.994l-0.334,14.996c4.93,0.11,9.919,0.276,14.827,0.493l0.664-14.985
			C281.666,290.276,276.567,290.106,271.528,289.994z"/>
	</g>
</g>
<g>
	<g>
		<path d="M90.957,389.225l-0.393-0.137l-4.99,14.145l0.46,0.161c4.538,1.579,9.309,3.112,14.179,4.556l4.264-14.381
			C99.831,392.191,95.284,390.73,90.957,389.225z"/>
	</g>
</g>
<g>
	<g>
		<path d="M137.804,401.788l-2.979,14.701c4.87,0.987,9.91,1.925,14.981,2.789l2.52-14.787
			C147.408,403.653,142.521,402.743,137.804,401.788z"/>
	</g>
</g>
<g>
	<g>
		<path d="M113.9,396.217l-3.857,14.495c4.798,1.278,9.791,2.504,14.839,3.646l3.311-14.63
			C123.328,398.627,118.518,397.446,113.9,396.217z"/>
	</g>
</g>
<g>
	<g>
		<path d="M68.213,379.934l-6.529,13.504c4.415,2.136,9.211,4.227,14.258,6.218l5.504-13.954
			C76.746,383.848,72.294,381.908,68.213,379.934z"/>
	</g>
</g>
<g>
	<g>
		<path d="M510.38,347.713l-14.387,4.247c0.668,2.262,1.007,4.558,1.007,6.822c0,8.242-4.454,16.571-13.239,24.757l10.227,10.975
			c11.952-11.138,18.013-23.159,18.013-35.731C512,355.079,511.455,351.355,510.38,347.713z"/>
	</g>
</g>
<g>
</g>
<g>
</g>
<g>
</g>
<g>
</g>
<g>
</g>
<g>
</g>
<g>
</g>
<g>
</g>
<g>
</g>
<g>
</g>
<g>
</g>
<g>
</g>
<g>
</g>
<g>
</g>
<g>
</g>
</svg>
