<?xml version="1.0" encoding="iso-8859-1"?>
<!-- Generator: Adobe Illustrator 19.0.0, SVG Export Plug-In . SVG Version: 6.00 Build 0)  -->
<svg version="1.1" id="Capa_1" xmlns="http://www.w3.org/2000/svg" xmlns:xlink="http://www.w3.org/1999/xlink" x="0px" y="0px"
	 viewBox="0 0 512 512" style="enable-background:new 0 0 512 512;" xml:space="preserve">
<g>
	<g>
		<path d="M262.012,8.058L256.001,0l-6.012,8.058c-7.005,9.388-171.558,231.051-171.558,326.373C78.431,432.343,158.088,512,256,512
			s177.569-79.657,177.569-177.569C433.57,239.109,269.017,17.446,262.012,8.058z M256.001,497
			c-89.642,0-162.569-72.928-162.569-162.569c0-80.521,132.491-267.736,162.569-309.194
			C286.079,66.695,418.57,253.911,418.57,334.431C418.57,424.071,345.642,497,256.001,497z"/>
	</g>
</g>
<g>
	<g>
		<path d="M176.908,162.103c-2.646,4.388-5.242,8.747-7.718,12.957l12.93,7.604c2.449-4.164,5.017-8.475,7.634-12.815
			L176.908,162.103z"/>
	</g>
</g>
<g>
	<g>
		<path d="M164.123,183.753c-2.574,4.46-5.085,8.875-7.463,13.123l13.088,7.328c2.346-4.191,4.825-8.55,7.367-12.953
			L164.123,183.753z"/>
	</g>
</g>
<g>
	<g>
		<path d="M151.781,205.692c-2.455,4.489-4.86,8.973-7.149,13.325l13.277,6.98c2.25-4.28,4.616-8.69,7.032-13.108L151.781,205.692z"
			/>
	</g>
</g>
<g>
	<g>
		<path d="M195.641,458.037l-6.608,13.467c4.707,2.31,9.589,4.396,14.509,6.202l5.17-14.08
			C204.279,461.998,199.881,460.118,195.641,458.037z"/>
	</g>
</g>
<g>
	<g>
		<path d="M175.354,445.818l-8.815,12.136c4.239,3.079,8.688,5.972,13.22,8.597l7.518-12.98
			C183.189,451.204,179.178,448.595,175.354,445.818z"/>
	</g>
</g>
<g>
	<g>
		<path d="M118.431,334.431h-15c0,45.257,19.98,87.923,54.818,117.061l9.623-11.506
			C136.452,413.705,118.431,375.232,118.431,334.431z"/>
	</g>
</g>
<g>
	<g>
		<path d="M392.176,354.048c-7.182,50.094-41.241,92.082-88.888,109.579l5.17,14.08c52.833-19.4,90.602-65.969,98.566-121.53
			L392.176,354.048z"/>
	</g>
</g>
<g>
	<g>
		<path d="M288.756,89.625l-12.447,8.371c2.706,4.022,5.476,8.172,8.293,12.431l12.509-8.276
			C294.272,97.859,291.481,93.678,288.756,89.625z"/>
	</g>
</g>
<g>
	<g>
		<path d="M302.631,110.538l-12.553,8.213c2.679,4.095,5.392,8.276,8.126,12.53l12.619-8.109
			C308.066,118.883,305.332,114.668,302.631,110.538z"/>
	</g>
</g>
<g>
	<g>
		<path d="M326.336,147.766c-3.275-5.296-6.676-10.724-10.107-16.131l-12.666,8.035c3.399,5.36,6.77,10.738,10.015,15.985
			c22.19,35.891,40.14,68.16,53.347,95.911l13.545-6.445C367.029,216.876,348.816,184.122,326.336,147.766z"/>
	</g>
</g>
<g>
	<g>
		<rect x="248.502" y="241.861" width="15" height="15"/>
	</g>
</g>
<g>
	<g>
		<rect x="248.502" y="266.862" width="15" height="15"/>
	</g>
</g>
<g>
	<g>
		<rect x="208.02" y="366.024" transform="matrix(0.5892 -0.808 0.808 0.5892 -213.2677 327.5858)" width="15" height="14.999"/>
	</g>
</g>
<g>
	<g>
		<rect x="222.764" y="345.833" transform="matrix(0.5892 -0.808 0.808 0.5892 -190.8958 331.202)" width="15" height="14.999"/>
	</g>
</g>
<g>
	<g>
		<path d="M378.849,273.413c-1.677-1.232-40.941-29.655-76.491-19.233c-1.105-37.032-40.294-65.555-41.986-66.767l-4.37-3.134
			l-4.37,3.134c-1.692,1.212-40.881,29.735-41.986,66.768c-35.548-10.423-74.814,18.001-76.491,19.232l-4.333,3.185l1.625,5.126
			c0.629,1.983,15.605,48.08,50.473,60.606c-20.926,30.574-6.064,76.71-5.413,78.685l1.685,5.107l5.378,0.043
			c0.051,0,0.131,0.001,0.238,0.001c4.237,0,51.114-0.669,73.193-29.433c22.081,28.765,68.962,29.433,73.194,29.433
			c0.107,0,0.187-0.001,0.238-0.001l5.378-0.043l1.685-5.107c0.652-1.976,15.513-48.11-5.413-78.685
			c34.869-12.525,49.845-58.623,50.474-60.606l1.625-5.126L378.849,273.413z M146.701,282.416
			c10.592-6.588,37.278-20.849,59.817-13.503c1.762,0.574,3.516,1.291,5.242,2.14c3.149,11.368,9.377,21.556,15.996,29.896
			l-41.861-13.641l-4.646,14.262l56.817,18.514c-13.013,6.703-33.284,14.269-50.99,8.5
			C164.615,321.266,151.398,293.978,146.701,282.416z M244.669,386.841c-13.914,19.083-43.941,23.196-56.395,24.082
			c-2.966-12.136-8.227-41.979,5.685-61.058c1.091-1.495,2.316-2.941,3.658-4.32c0.974,0.043,1.947,0.065,2.918,0.065
			c13.438,0,26.498-4.057,36.981-8.651l9.122,6.652l5.751-7.887C254.731,350.172,255.644,371.79,244.669,386.841z M259.789,291.865
			H248.5v9.726c-10.406-10.321-23.88-27.266-23.88-45.815c0.001-23.617,21.84-44.632,31.381-52.686
			c9.546,8.059,31.38,29.072,31.38,52.685c0,1.852-0.138,3.741-0.411,5.645C274.908,269.413,265.969,281.262,259.789,291.865z
			 M323.727,410.923c-12.461-0.887-42.483-5.002-56.395-24.08c-1.153-1.582-2.207-3.289-3.149-5.096
			c4.083-11.035,5.013-22.906,4.558-33.503l26.081,35.768l12.119-8.838l-35.189-48.258c14.489,2.208,35.359,7.962,46.288,22.95
			C331.956,368.947,326.692,398.794,323.727,410.923z M324.927,328.585c-1.762,0.573-3.602,1.027-5.499,1.359
			c-9.248-7.331-20.29-11.89-30.557-14.726l41.88-13.647l-4.646-14.262l-56.82,18.515c6.564-13.082,18.484-31.139,36.195-36.911
			c22.463-7.318,49.218,6.944,59.824,13.519C360.628,293.996,347.467,321.24,324.927,328.585z"/>
	</g>
</g>
<g>
</g>
<g>
</g>
<g>
</g>
<g>
</g>
<g>
</g>
<g>
</g>
<g>
</g>
<g>
</g>
<g>
</g>
<g>
</g>
<g>
</g>
<g>
</g>
<g>
</g>
<g>
</g>
<g>
</g>
</svg>
