<?xml version="1.0" encoding="iso-8859-1"?>
<!-- Generator: Adobe Illustrator 19.0.0, SVG Export Plug-In . SVG Version: 6.00 Build 0)  -->
<svg version="1.1" id="Capa_1" xmlns="http://www.w3.org/2000/svg" xmlns:xlink="http://www.w3.org/1999/xlink" x="0px" y="0px"
	 viewBox="0 0 512.001 512.001" style="enable-background:new 0 0 512.001 512.001;" xml:space="preserve">
<g>
	<g>
		<path d="M354.629,170.444c-12.043,1.344-23.497,5.007-34.04,10.888l7.307,13.099c8.792-4.905,18.346-7.96,28.396-9.081
			L354.629,170.444z"/>
	</g>
</g>
<g>
	<g>
		<path d="M376.814,131.124c20.365-23.798,31.58-54.176,31.58-85.538v-28.25h-28.25c-31.04,0-60.554,10.733-84.162,30.421
			c-5.843-10.978-13.326-21.1-22.298-30.07L255.997,0l-17.686,17.686c-8.97,8.97-16.453,19.091-22.296,30.067
			c-23.608-19.686-53.119-30.417-84.158-30.417h-28.25v28.25c0,31.361,11.214,61.739,31.578,85.536
			c4.229,4.942,8.796,9.539,13.656,13.766c-0.604-0.009-25.337-0.014-25.337-0.014v23.522c0,28.174,10.193,55.365,28.702,76.564
			c3.884,4.448,8.077,8.57,12.533,12.343h-12.932v19.894c0,50.618,41.181,91.799,91.798,91.799h4.895v27.678H263.5v-27.678h4.895
			c50.618,0,91.798-41.181,91.798-91.799v-19.894H347.26c4.458-3.773,8.651-7.896,12.533-12.343
			c18.509-21.199,28.702-48.39,28.702-76.564v-23.522c0,0-24.733,0.005-25.337,0.014
			C368.019,140.661,372.586,136.064,376.814,131.124z M248.917,28.292l7.081-7.081l7.081,7.081
			c28.004,28.003,38.763,67.725,29.594,105.196c-5.313-9.801-12.043-18.865-20.043-26.865l-9.133-9.133V57.026h-14.999V97.49
			l-9.133,9.133c-8,8-14.73,17.063-20.042,26.864C210.154,96.017,220.912,56.296,248.917,28.292z M248.497,157.519v64.127
			l-6.565,6.565c-3.224,3.224-6.178,6.646-8.852,10.236c-22.06-39.254-15.687-88.64,16.889-121.217l6.027-6.027l6.027,6.027
			c32.575,32.575,38.948,81.959,16.891,121.212c-2.673-3.59-5.626-7.01-8.847-10.231l-6.571-6.571v-64.121H248.497z M118.605,45.585
			V32.334h13.251c28.887,0,56.282,10.492,77.69,29.648c-2.74,7.186-4.831,14.651-6.235,22.326
			c-1.221,6.673-1.904,13.382-2.058,20.075l-28.556-28.557l-10.605,10.606l40.695,40.695c1.492,9.378,4.045,18.599,7.643,27.506
			c-0.475,1.539-0.919,3.09-1.33,4.65C156.257,147.266,118.605,100.521,118.605,45.585z M138.503,168.395v-8.523h8.523
			c21.287,0,41.49,6.449,58.693,18.692c-0.041,0.459-0.079,0.918-0.115,1.378c-1.058,13.685,0.314,27.352,3.942,40.372
			l-34.483-34.483l-10.605,10.606l58.744,58.744c-1.827,4.022-3.357,8.174-4.581,12.427
			C172.495,257.699,138.503,216.201,138.503,168.395z M166.807,277.196v-4.895h4.895c15.784,0,30.779,4.685,43.624,13.587
			c-0.185,2.394-0.279,4.807-0.279,7.234c0,6.36,0.643,12.62,1.897,18.708l-8.159-8.16l-10.605,10.606l10.605,10.605l9.072-9.074
			c0.923,3.646,2.068,7.223,3.43,10.712l-5.432,5.432l10.605,10.605l1.845-1.845c2.798,4.598,6.018,8.972,9.638,13.073
			C198.23,350.88,166.807,317.639,166.807,277.196z M263.498,343.071v-42.559h-14.997v42.559
			c-11.942-13.905-18.456-31.426-18.456-49.948c0-20.515,7.989-39.8,22.494-54.305l3.461-3.462l3.461,3.462
			c14.505,14.505,22.494,33.79,22.494,54.305C281.954,311.644,275.44,329.165,263.498,343.071z M345.194,277.196L345.194,277.196
			c-0.001,40.349-31.278,73.531-70.861,76.572l51.244-51.243l-10.605-10.606l-19.914,19.914c1.254-6.088,1.897-12.348,1.897-18.708
			c0-2.427-0.094-4.84-0.279-7.234c12.844-8.903,27.839-13.587,43.624-13.587h4.895V277.196z M364.973,159.872h8.525v0.001v8.523
			c0,47.805-33.992,89.304-80.116,99.214c-1.224-4.256-2.756-8.409-4.583-12.432l42.052-42.052l-10.605-10.606l-17.796,17.795
			c3.628-13.02,5.001-26.689,3.942-40.375c-0.035-0.458-0.074-0.915-0.115-1.372C323.48,166.323,343.685,159.872,364.973,159.872z
			 M302.896,159.285c-0.412-1.561-0.855-3.112-1.331-4.652c3.598-8.907,6.151-18.127,7.643-27.505l40.695-40.695l-10.605-10.607
			l-28.556,28.556c-0.154-6.693-0.838-13.402-2.058-20.075c-1.404-7.674-3.494-15.137-6.233-22.322
			c21.408-19.158,48.804-29.651,77.694-29.651h13.251v13.251C393.395,100.524,355.741,147.269,302.896,159.285z"/>
	</g>
</g>
<g>
	<g>
		<path d="M364.41,72.313c-1.343,4.407-3.035,8.75-5.027,12.906l13.525,6.484c2.32-4.837,4.287-9.889,5.85-15.017L364.41,72.313z"/>
	</g>
</g>
<g>
	<g>
		<path d="M368.308,49.598c-0.202,4.604-0.758,9.23-1.651,13.755l14.715,2.906c1.039-5.263,1.686-10.647,1.92-16.003L368.308,49.598
			z"/>
	</g>
</g>
<g>
	<g>
		<path d="M354.975,93.339c-2.526,4.138-5.403,8.102-8.55,11.778c-6.827,7.978-14.899,14.679-23.994,19.918l7.488,12.997
			c10.575-6.094,19.963-13.886,27.901-23.162c3.667-4.284,7.018-8.898,9.958-13.718L354.975,93.339z"/>
	</g>
</g>
<g>
	<g>
		<path d="M165.574,105.116c-5.231-6.113-9.636-12.904-13.097-20.186l-13.547,6.438c4.027,8.477,9.157,16.383,15.248,23.5
			c7.937,9.274,17.322,17.066,27.897,23.159l7.488-12.995C180.469,119.791,172.398,113.092,165.574,105.116z"/>
	</g>
</g>
<g>
	<g>
		<path d="M295.564,424.172v-14.999h-9.13v-27.678h-14.999v27.678h-30.868v-27.678h-14.999v27.678h-8.088v14.999h8.088v11.083
			h-8.088v14.999h8.088v61.747h60.867v-61.747h9.13v-14.999h-9.13v-11.083H295.564z M271.435,497.001H263.5v-37.498h-14.999v37.498
			h-7.935v-46.747h30.868V497.001z M271.435,435.254h-30.868v-11.083h30.868V435.254z"/>
	</g>
</g>
<g>
	<g>
		
			<rect x="183.601" y="289.113" transform="matrix(0.7071 -0.7071 0.7071 0.7071 -153.7646 222.0039)" width="14.999" height="14.999"/>
	</g>
</g>
<g>
	<g>
		<rect x="248.496" y="259.515" width="14.999" height="25.499"/>
	</g>
</g>
<g>
</g>
<g>
</g>
<g>
</g>
<g>
</g>
<g>
</g>
<g>
</g>
<g>
</g>
<g>
</g>
<g>
</g>
<g>
</g>
<g>
</g>
<g>
</g>
<g>
</g>
<g>
</g>
<g>
</g>
</svg>
