<?xml version="1.0" standalone="no"?>
<!DOCTYPE svg PUBLIC "-//W3C//DTD SVG 20010904//EN"
 "http://www.w3.org/TR/2001/REC-SVG-20010904/DTD/svg10.dtd">
<svg version="1.0" xmlns="http://www.w3.org/2000/svg"
 width="512.000000pt" height="512.000000pt" viewBox="0 0 512.000000 512.000000"
 preserveAspectRatio="xMidYMid meet">
<metadata>

</metadata>
<g transform="translate(0.000000,512.000000) scale(0.100000,-0.100000)"
fill="#000000" stroke="none">
<path d="M240 5023 c-34 -54 -130 -144 -177 -166 -32 -14 -29 -23 18 -53 61
-38 124 -99 159 -155 18 -27 35 -49 39 -49 3 0 15 16 25 35 26 49 101 124 164
167 l53 36 -45 26 c-56 33 -125 102 -167 166 -18 28 -33 50 -33 50 -1 0 -17
-26 -36 -57z"/>
<path d="M2780 4894 c-181 -20 -311 -58 -452 -130 -227 -118 -399 -295 -513
-528 -77 -156 -106 -274 -112 -453 -3 -85 -1 -175 6 -225 14 -96 66 -259 112
-350 137 -271 384 -486 672 -584 228 -78 506 -79 738 -3 348 114 635 401 748
745 42 130 56 222 55 374 0 149 -12 221 -55 355 -126 395 -466 695 -879 779
-78 15 -259 27 -320 20z m240 -139 c222 -34 427 -138 585 -299 135 -136 223
-291 272 -475 23 -84 26 -116 26 -256 0 -141 -3 -172 -26 -259 -65 -244 -226
-472 -428 -605 -541 -356 -1255 -155 -1529 432 -133 285 -123 644 26 916 108
197 257 344 453 445 193 100 405 134 621 101z"/>
<path d="M2701 4565 c-175 -40 -300 -105 -422 -222 -126 -120 -201 -250 -245
-423 -26 -102 -26 -286 0 -390 78 -308 296 -534 601 -622 105 -30 342 -32 445
-5 92 26 254 108 327 167 241 195 360 530 297 838 -63 305 -297 554 -604 642
-99 28 -307 36 -399 15z m322 -131 c207 -46 389 -186 487 -375 56 -108 80
-208 80 -334 0 -329 -200 -597 -520 -697 -64 -19 -95 -23 -210 -22 -118 0
-145 4 -215 27 -353 117 -563 476 -489 835 70 340 360 579 702 581 51 1 125
-6 165 -15z"/>
<path d="M2823 4253 c-13 -11 -39 -73 -69 -165 l-48 -148 -153 0 c-95 0 -162
-4 -178 -12 -28 -13 -42 -49 -29 -78 5 -11 66 -60 137 -110 70 -50 127 -96
127 -102 0 -6 -20 -73 -45 -150 -25 -77 -45 -148 -45 -157 0 -26 32 -51 66
-51 22 0 63 25 153 91 67 50 129 88 136 85 8 -3 65 -44 128 -91 127 -95 163
-106 193 -60 15 23 14 32 -31 172 -26 81 -48 153 -49 159 0 6 55 53 124 104
69 51 128 98 132 104 15 22 7 55 -18 75 -24 19 -40 21 -185 21 l-158 0 -46
148 c-26 81 -52 152 -58 159 -22 22 -62 25 -84 6z m72 -340 c15 -43 31 -82 36
-88 6 -5 50 -12 99 -15 l89 -5 -67 -50 c-78 -58 -82 -72 -52 -159 11 -33 20
-63 20 -68 0 -5 -25 9 -57 31 -37 27 -67 41 -88 41 -21 0 -51 -14 -88 -41 -32
-22 -57 -37 -57 -33 0 4 10 38 21 74 13 39 19 77 16 91 -4 15 -33 42 -73 69
l-67 45 79 3 c51 2 84 8 94 17 9 8 27 49 40 90 13 41 24 75 25 75 2 0 15 -35
30 -77z"/>
<path d="M4813 4004 c-39 -61 -92 -112 -162 -157 l-53 -35 33 -18 c47 -24 143
-118 180 -176 18 -27 35 -46 38 -41 4 4 24 34 45 66 33 48 106 115 175 158 14
9 14 11 -3 22 -80 52 -152 123 -207 206 l-15 24 -31 -49z"/>
<path d="M1805 2581 c-33 -9 -116 -45 -185 -78 -127 -63 -271 -116 -347 -128
l-43 -7 0 65 c0 50 -5 70 -21 91 l-20 26 -215 0 c-201 0 -215 -1 -234 -20 -15
-15 -20 -33 -20 -75 l0 -55 -153 0 c-169 0 -183 -4 -193 -57 -5 -26 -1 -37 19
-57 26 -26 28 -26 187 -26 l160 0 0 -375 0 -375 -163 0 c-190 0 -207 -6 -207
-70 0 -64 17 -70 207 -70 l162 0 3 -62 c4 -87 7 -88 246 -88 223 0 251 7 252
68 0 21 4 22 78 22 42 0 136 -9 207 -19 224 -33 380 -77 645 -179 348 -134
710 -170 909 -89 59 24 510 318 791 515 464 326 798 598 856 699 39 65 44 153
12 213 -14 25 -44 59 -67 75 -38 27 -51 30 -114 30 -90 0 -113 -11 -403 -182
-243 -143 -358 -210 -421 -241 l-41 -22 -26 44 c-38 64 -110 124 -172 142 -48
14 -68 14 -216 -2 -383 -39 -674 9 -855 141 -95 69 -216 129 -303 149 -87 21
-239 19 -315 -3z m290 -126 c83 -22 153 -55 238 -114 148 -103 298 -152 525
-171 127 -11 338 -1 470 21 117 21 176 -7 227 -104 l29 -54 -28 -57 c-34 -70
-94 -118 -185 -148 -64 -22 -83 -23 -589 -28 -504 -5 -524 -6 -538 -24 -19
-27 -18 -59 5 -87 l19 -24 519 1 c501 0 521 1 597 22 149 41 255 127 296 240
21 57 21 57 118 107 53 28 227 128 387 224 255 153 296 175 341 179 46 4 53 2
72 -23 51 -64 18 -113 -203 -298 -321 -270 -1290 -943 -1408 -979 -56 -17
-352 -17 -432 0 -117 25 -240 64 -407 128 -267 102 -497 155 -770 176 l-148
12 0 391 0 392 87 17 c103 20 245 72 368 134 50 25 115 53 145 63 69 22 187
24 265 4z m-985 -555 l0 -520 -125 0 -125 0 0 520 0 520 125 0 125 0 0 -520z"/>
<path d="M4498 1725 c-23 -38 -83 -92 -121 -109 -8 -4 -5 -10 8 -18 27 -17
117 -108 132 -133 l12 -20 12 20 c15 25 108 116 132 130 16 9 12 14 -30 45
-26 19 -61 56 -78 82 -16 26 -32 47 -35 47 -3 0 -17 -19 -32 -44z"/>
<path d="M244 1252 c-17 -26 -54 -63 -82 -83 l-52 -36 46 -29 c26 -16 63 -53
84 -82 l39 -53 14 28 c19 36 84 101 120 120 l28 14 -53 39 c-29 21 -66 59 -82
84 -16 25 -29 46 -30 45 -1 0 -15 -21 -32 -47z"/>
<path d="M70 780 c-24 -24 -26 -72 -5 -94 9 -8 30 -18 48 -21 18 -3 1131 -4
2473 -3 2385 3 2442 3 2463 22 27 24 27 70 1 96 -20 20 -33 20 -2490 20 -2457
0 -2470 0 -2490 -20z"/>
<path d="M810 483 c-50 -19 -68 -84 -32 -116 17 -16 155 -17 1780 -17 1749 0
1762 0 1782 20 26 26 26 72 -1 96 -21 19 -65 19 -1768 21 -960 1 -1753 -1
-1761 -4z"/>
<path d="M1410 150 c-23 -23 -26 -68 -6 -96 14 -18 35 -19 738 -22 398 -1 733
0 745 3 34 8 53 33 53 70 0 68 38 65 -777 65 -720 0 -733 0 -753 -20z"/>
<path d="M3140 150 c-25 -25 -26 -61 -1 -91 l19 -24 265 0 c246 0 266 1 286
19 27 24 27 70 1 96 -19 19 -33 20 -285 20 -252 0 -266 -1 -285 -20z"/>
</g>
</svg>
