<?xml version="1.0" standalone="no"?>
<!DOCTYPE svg PUBLIC "-//W3C//DTD SVG 20010904//EN"
 "http://www.w3.org/TR/2001/REC-SVG-20010904/DTD/svg10.dtd">
<svg version="1.0" xmlns="http://www.w3.org/2000/svg"
 width="512.000000pt" height="512.000000pt" viewBox="0 0 512.000000 512.000000"
 preserveAspectRatio="xMidYMid meet">
<metadata>

</metadata>
<g transform="translate(0.000000,512.000000) scale(0.100000,-0.100000)"
fill="#000000" stroke="none">
<path d="M2345 4464 c-485 -51 -903 -219 -1260 -507 -93 -75 -299 -285 -366
-372 -248 -324 -403 -690 -464 -1094 -16 -109 -20 -195 -7 -189 4 2 26 14 49
28 40 24 43 29 59 100 20 93 63 199 109 268 19 29 41 74 49 100 84 282 268
596 484 824 636 671 1630 852 2457 449 232 -113 403 -237 586 -421 254 -257
442 -581 533 -920 19 -68 34 -99 75 -154 66 -87 105 -165 132 -263 19 -70 31
-92 50 -93 15 0 -16 284 -47 430 -194 928 -958 1647 -1904 1795 -101 16 -448
28 -535 19z"/>
<path d="M2325 4090 c-539 -62 -1025 -341 -1342 -772 -93 -124 -192 -293 -180
-304 2 -3 17 1 33 7 16 7 69 24 119 39 l89 26 71 99 c84 120 258 297 375 384
317 234 742 367 1114 348 637 -34 1209 -403 1491 -964 44 -87 48 -93 83 -98
20 -4 68 -15 106 -26 37 -11 70 -19 72 -17 1 2 -12 39 -30 83 -108 263 -254
475 -464 676 -277 266 -610 431 -1002 500 -132 23 -410 33 -535 19z"/>
<path d="M2292 3714 c-213 -34 -450 -127 -636 -251 -146 -97 -414 -366 -374
-377 7 -1 51 -12 98 -24 l85 -20 58 64 c121 133 313 266 492 339 413 171 904
124 1271 -122 171 -114 324 -271 421 -432 27 -46 55 -80 64 -81 9 0 42 9 74
20 32 11 66 20 77 20 10 0 18 4 18 8 0 4 -27 53 -59 108 -223 373 -599 642
-1029 735 -131 28 -426 35 -560 13z"/>
<path d="M2420 3344 c-14 -2 -56 -9 -95 -15 -155 -25 -349 -107 -481 -203 -66
-47 -194 -164 -194 -175 0 -4 32 -33 70 -65 l71 -58 68 65 c119 112 243 183
406 233 84 26 102 28 270 28 168 0 186 -2 270 -28 179 -55 320 -141 445 -272
79 -83 129 -153 174 -242 15 -29 30 -52 34 -50 4 2 36 33 71 70 l64 67 -42 71
c-166 280 -442 479 -761 551 -81 18 -314 33 -370 23z"/>
<path d="M1085 2959 c-282 -36 -523 -243 -594 -509 -11 -41 -22 -101 -26 -132
-6 -53 -8 -57 -36 -63 -51 -11 -147 -84 -189 -143 -152 -211 -76 -513 155
-619 153 -70 328 -45 454 65 l44 38 71 -25 c63 -22 87 -25 211 -25 124 0 149
3 220 27 44 14 106 42 139 62 l58 35 67 -21 c46 -14 93 -20 157 -21 463 -1
690 569 353 887 -104 98 -215 145 -342 145 l-59 0 -65 70 c-161 174 -389 258
-618 229z m210 -194 c132 -34 218 -93 311 -212 l61 -78 109 0 c103 0 113 -2
176 -33 215 -105 259 -377 86 -538 -72 -67 -126 -89 -223 -89 -70 0 -89 4
-152 34 -83 39 -99 37 -167 -14 -164 -126 -380 -144 -568 -49 -85 43 -105 36
-187 -66 -65 -81 -171 -103 -269 -54 -171 85 -168 320 5 408 18 9 44 16 58 16
37 0 92 25 104 48 6 12 11 58 11 104 0 154 50 278 156 384 127 127 320 182
489 139z"/>
<path d="M3920 2724 c-99 -21 -202 -76 -281 -151 -38 -36 -78 -80 -90 -99 -16
-27 -27 -34 -52 -34 -18 0 -54 -6 -82 -14 -259 -69 -402 -337 -315 -592 82
-238 357 -365 589 -271 50 20 61 22 77 10 10 -7 55 -25 99 -40 67 -22 98 -27
195 -27 103 0 124 3 201 30 l86 31 24 -20 c13 -11 49 -32 79 -46 46 -22 69
-26 145 -26 77 0 98 4 150 28 78 36 146 104 182 181 24 53 28 73 28 151 0 100
-15 148 -68 222 -36 51 -133 119 -180 128 -31 6 -33 9 -45 73 -7 37 -29 101
-49 142 -50 104 -168 222 -273 274 -129 63 -278 81 -420 50z m255 -186 c112
-28 219 -118 274 -229 25 -51 34 -86 40 -153 10 -101 32 -136 85 -136 129 0
226 -110 195 -222 -23 -88 -87 -138 -176 -138 -56 0 -104 26 -153 83 -27 31
-38 37 -71 37 -25 0 -53 -9 -77 -25 -135 -89 -328 -87 -471 5 -57 36 -95 38
-141 7 -82 -55 -184 -63 -268 -21 -171 85 -203 310 -63 437 56 51 104 69 181
69 91 -1 116 11 147 71 36 71 120 152 195 187 101 47 193 56 303 28z"/>
<path d="M1256 1418 c-25 -23 -106 -192 -106 -222 0 -64 71 -108 132 -83 30
13 40 28 82 121 37 82 46 113 41 136 -14 65 -100 92 -149 48z"/>
<path d="M1517 1069 c-26 -15 -117 -213 -117 -254 0 -47 39 -85 87 -85 21 0
48 7 59 15 25 17 114 212 114 249 0 40 -50 86 -92 86 -18 0 -41 -5 -51 -11z"/>
<path d="M653 978 c-14 -7 -40 -47 -68 -105 -59 -124 -60 -179 -4 -208 70 -37
108 -11 165 112 52 113 55 144 15 184 -31 31 -68 37 -108 17z"/>
</g>
</svg>
