<?xml version="1.0" standalone="no"?>
<!DOCTYPE svg PUBLIC "-//W3C//DTD SVG 20010904//EN"
 "http://www.w3.org/TR/2001/REC-SVG-20010904/DTD/svg10.dtd">
<svg version="1.0" xmlns="http://www.w3.org/2000/svg"
 width="512.000000pt" height="512.000000pt" viewBox="0 0 512.000000 512.000000"
 preserveAspectRatio="xMidYMid meet">
<metadata>

</metadata>
<g transform="translate(0.000000,512.000000) scale(0.100000,-0.100000)"
fill="#000000" stroke="none">
<path d="M3610 3930 c-96 -20 -135 -34 -145 -50 -5 -8 26 -99 82 -237 4 -10
-170 -13 -851 -13 l-856 0 0 39 0 39 91 4 c86 3 92 5 116 32 19 23 23 36 19
59 -14 67 -12 67 -293 67 -240 0 -254 -1 -273 -20 -21 -21 -26 -69 -10 -100
15 -27 64 -40 156 -40 l84 0 0 -52 c0 -46 -7 -63 -50 -130 l-49 -77 -93 44
c-318 152 -679 150 -991 -6 -83 -41 -167 -95 -167 -107 0 -4 17 -27 38 -52
l39 -44 49 32 c78 50 212 109 304 134 73 20 108 23 245 23 135 0 173 -4 245
-24 71 -19 260 -97 260 -107 0 -2 -10 -19 -21 -39 -16 -26 -26 -34 -38 -29
-189 78 -294 98 -475 91 -255 -10 -460 -93 -642 -261 -612 -563 -331 -1569
486 -1738 123 -26 324 -21 445 12 120 31 286 117 385 197 202 164 340 413 367
658 l8 70 171 3 171 2 49 -49 c36 -36 64 -54 97 -63 l47 -12 35 -88 c19 -49
35 -90 35 -93 0 -3 -17 -12 -37 -20 -44 -19 -53 -30 -53 -71 0 -34 26 -64 56
-64 11 0 76 24 145 54 134 57 158 79 145 130 -10 41 -47 53 -102 33 l-44 -16
-13 32 c-8 18 -22 55 -32 83 l-18 52 35 35 c66 66 85 166 46 244 l-14 29 356
489 357 490 47 0 47 0 45 -114 c24 -63 43 -115 42 -116 -2 -1 -28 -13 -59 -27
-93 -42 -209 -126 -294 -214 -137 -140 -231 -318 -270 -513 -24 -115 -16 -332
15 -446 85 -312 327 -578 629 -691 128 -48 251 -67 391 -61 263 12 482 109
671 297 135 134 220 280 271 468 32 115 32 362 0 486 -88 347 -359 627 -707
732 -75 22 -114 27 -240 31 -101 3 -173 0 -220 -9 l-70 -14 -97 245 c-70 177
-94 247 -85 253 20 12 113 21 181 16 73 -4 132 -40 142 -86 14 -64 12 -62 70
-62 l54 0 0 36 c0 105 -64 188 -166 217 -77 22 -185 21 -294 -3z m-257 -432
c-5 -7 -152 -210 -327 -450 l-318 -436 -76 5 c-42 3 -78 6 -78 7 -14 14 -654
875 -654 880 0 3 329 6 731 6 584 0 730 -3 722 -12z m-1229 -498 l332 -444
-31 -63 -30 -62 -162 -1 -163 0 0 39 c0 70 -48 233 -100 336 -73 148 -200 297
-329 387 l-24 17 78 121 c43 66 82 119 88 117 5 -1 159 -203 341 -447z m-849
230 c110 -25 178 -56 168 -74 -4 -7 -84 -133 -177 -279 l-170 -265 -48 -4
c-166 -16 -247 -227 -135 -354 63 -73 174 -96 256 -55 38 20 101 83 101 101 0
6 130 10 345 10 l346 0 -7 -52 c-28 -222 -146 -444 -305 -577 -171 -143 -361
-212 -584 -212 -416 0 -758 261 -866 661 -32 115 -36 290 -11 412 103 498 587
805 1087 688z m3005 -30 c324 -78 586 -351 654 -682 20 -97 21 -275 1 -365
-71 -338 -305 -588 -637 -684 -94 -27 -280 -36 -384 -20 -538 87 -872 631
-708 1154 51 162 147 307 273 413 71 59 214 144 243 144 10 0 55 -103 141
-321 l125 -321 -31 -45 c-29 -40 -32 -52 -32 -117 0 -62 4 -78 28 -114 15 -23
46 -54 69 -69 36 -24 52 -28 113 -28 61 0 77 4 113 28 113 74 136 225 49 323
-41 48 -96 74 -154 74 l-48 0 -122 312 c-67 172 -119 316 -115 320 15 15 140
27 237 23 55 -3 138 -14 185 -25z m-2648 -146 c171 -138 289 -354 322 -586 l5
-38 -334 0 -335 0 -6 26 c-4 14 -22 46 -40 70 l-33 43 172 271 c95 148 174
270 176 270 2 0 35 -25 73 -56z m1053 -579 c19 -18 25 -35 25 -67 0 -24 -6
-50 -13 -59 -42 -54 -140 -50 -166 8 -35 76 5 143 84 143 35 0 52 -6 70 -25z
m-1546 -2 c43 -36 44 -119 1 -158 -25 -23 -100 -26 -125 -5 -10 8 -24 30 -32
48 -17 41 -3 94 30 117 29 21 100 19 126 -2z m3060 -37 c29 -23 43 -75 31
-112 -15 -44 -45 -64 -96 -64 -73 0 -113 59 -90 130 19 60 106 86 155 46z"/>
<path d="M4265 3048 c-5 -30 -4 -43 5 -46 61 -21 178 -92 233 -142 120 -111
211 -282 224 -427 3 -35 9 -65 12 -67 3 -2 24 -7 45 -10 l39 -7 -6 78 c-8 97
-37 194 -90 298 -32 62 -63 102 -137 176 -80 81 -110 103 -189 142 -117 59
-127 59 -136 5z"/>
</g>
</svg>
