<?xml version="1.0" standalone="no"?>
<!DOCTYPE svg PUBLIC "-//W3C//DTD SVG 20010904//EN"
 "http://www.w3.org/TR/2001/REC-SVG-20010904/DTD/svg10.dtd">
<svg version="1.0" xmlns="http://www.w3.org/2000/svg"
 width="512.000000pt" height="512.000000pt" viewBox="0 0 512.000000 512.000000"
 preserveAspectRatio="xMidYMid meet">
<metadata>
Created by potrace 1.15, written by Peter Selinger 2001-2017
</metadata>
<g transform="translate(0.000000,512.000000) scale(0.100000,-0.100000)"
fill="#000000" stroke="none">
<path d="M2245 4783 c-232 -31 -477 -108 -697 -220 -232 -117 -385 -229 -574
-417 -188 -189 -300 -342 -417 -574 -164 -323 -237 -635 -237 -1012 0 -377 73
-689 237 -1012 117 -232 229 -385 417 -574 189 -188 342 -300 574 -417 323
-164 635 -237 1012 -237 377 0 689 73 1013 237 581 295 1001 817 1162 1447 46
181 65 343 65 556 0 377 -73 689 -237 1012 -117 232 -229 385 -417 574 -189
188 -342 300 -574 417 -226 115 -467 190 -710 221 -155 20 -465 20 -617 -1z
m523 -214 c696 -75 1301 -500 1608 -1126 404 -826 193 -1825 -512 -2424 -359
-305 -832 -479 -1304 -479 -768 0 -1477 443 -1816 1137 -534 1093 22 2413
1180 2798 274 92 568 124 844 94z"/>
<path d="M2514 4371 c-49 -21 -64 -58 -64 -152 0 -99 12 -134 51 -155 57 -29
134 -9 157 41 7 14 12 66 12 115 0 84 -2 92 -27 120 -30 34 -89 48 -129 31z"/>
<path d="M1541 3616 c-32 -18 -50 -53 -51 -97 -1 -91 343 -814 522 -1098 159
-252 266 -341 664 -556 283 -152 783 -375 841 -375 70 0 113 43 113 114 0 57
-225 560 -375 840 -162 299 -273 457 -388 547 -198 156 -579 359 -1070 570
-165 71 -210 81 -256 55z m629 -477 c221 -110 437 -235 538 -311 76 -58 144
-145 242 -308 78 -129 261 -486 327 -636 l31 -72 -72 31 c-154 68 -508 249
-634 325 -240 146 -283 188 -423 417 -76 124 -269 498 -336 651 l-31 72 72
-31 c39 -17 168 -79 286 -138z"/>
<path d="M2501 2656 c-69 -38 -67 -162 4 -194 82 -37 165 12 165 98 0 87 -92
139 -169 96z"/>
<path d="M778 2641 c-29 -26 -33 -35 -33 -81 0 -46 4 -55 33 -81 31 -27 37
-29 122 -29 49 0 101 5 115 12 72 33 72 163 0 196 -14 7 -66 12 -115 12 -85 0
-91 -2 -122 -29z"/>
<path d="M4101 2656 c-69 -38 -67 -162 4 -194 14 -7 66 -12 115 -12 85 0 91 2
122 29 29 26 33 35 33 81 0 46 -4 55 -33 81 -31 28 -37 29 -125 29 -57 -1
-101 -6 -116 -14z"/>
<path d="M2501 1056 c-40 -22 -50 -54 -51 -153 0 -88 1 -94 29 -125 26 -29 35
-33 81 -33 46 0 55 4 81 33 27 31 29 37 29 122 0 49 -5 101 -12 115 -22 50
-104 71 -157 41z"/>
</g>
</svg>
