<?xml version="1.0" standalone="no"?>
<!DOCTYPE svg PUBLIC "-//W3C//DTD SVG 20010904//EN"
 "http://www.w3.org/TR/2001/REC-SVG-20010904/DTD/svg10.dtd">
<svg version="1.0" xmlns="http://www.w3.org/2000/svg"
 width="512.000000pt" height="512.000000pt" viewBox="0 0 512.000000 512.000000"
 preserveAspectRatio="xMidYMid meet">
<metadata>
Created by potrace 1.15, written by Peter Selinger 2001-2017
</metadata>
<g transform="translate(0.000000,512.000000) scale(0.100000,-0.100000)"
fill="#000000" stroke="none">
<path d="M2550 4880 l0 -80 85 0 85 0 0 80 0 80 -85 0 -85 0 0 -80z"/>
<path d="M2240 4887 c-41 -17 -76 -31 -77 -32 -6 -3 60 -155 67 -155 4 0 38
13 76 29 79 32 80 34 37 128 l-28 62 -75 -32z"/>
<path d="M2950 4894 c-6 -14 -19 -47 -31 -74 -11 -27 -18 -53 -15 -58 6 -10
145 -67 150 -61 6 6 66 153 63 154 -1 1 -37 16 -80 33 l-78 31 -9 -25z"/>
<path d="M1895 4660 l-60 -60 63 -63 62 -62 62 62 63 63 -60 60 c-33 33 -62
60 -65 60 -3 0 -32 -27 -65 -60z"/>
<path d="M3255 4660 l-60 -60 63 -63 62 -62 60 60 60 60 -63 63 -63 62 -59
-60z"/>
<path d="M2544 4639 c-261 -31 -497 -222 -588 -476 -35 -99 -49 -223 -37 -321
24 -183 86 -308 218 -440 l93 -92 0 -60 c0 -55 -2 -61 -27 -74 -37 -19 -86
-72 -108 -115 -27 -54 -24 -147 7 -210 l25 -51 -25 -51 c-62 -124 -10 -274
113 -330 37 -17 73 -19 423 -19 422 0 425 0 491 63 74 71 95 199 46 291 l-24
46 24 46 c31 59 34 158 6 219 -18 41 -75 98 -117 117 -22 10 -24 18 -24 72 l0
61 57 45 c114 90 214 248 247 390 23 94 21 259 -4 354 -63 246 -265 450 -511
515 -92 24 -192 31 -285 20z m281 -198 c206 -73 350 -266 362 -486 6 -107 -7
-178 -48 -265 -44 -93 -94 -154 -177 -217 -40 -30 -78 -66 -83 -80 -5 -13 -9
-62 -9 -109 l0 -84 -75 0 -75 0 0 137 0 137 144 146 c165 165 185 199 186 301
0 111 -60 200 -159 235 -61 22 -151 17 -205 -10 l-48 -24 -35 20 c-42 25 -155
36 -206 19 -179 -59 -227 -301 -87 -436 l31 -29 61 62 62 62 -32 33 c-39 40
-43 89 -10 124 34 36 78 31 133 -17 37 -32 54 -40 86 -40 32 0 47 7 83 40 50
46 88 52 130 19 20 -15 26 -29 26 -57 0 -35 -11 -48 -151 -187 -83 -83 -157
-164 -165 -182 -10 -23 -14 -77 -14 -193 l0 -160 -75 0 -75 0 0 104 c0 117 7
104 -100 181 -86 61 -165 181 -195 296 -19 70 -19 209 0 279 47 176 188 327
360 385 109 36 249 35 360 -4z m160 -1415 c37 -16 52 -48 41 -92 -13 -51 -44
-55 -407 -52 -323 3 -329 3 -350 25 -41 41 -20 115 35 126 11 2 162 5 334 6
251 1 319 -2 347 -13z m0 -320 c37 -16 52 -48 41 -92 -13 -51 -44 -55 -407
-52 -323 3 -329 3 -350 25 -41 41 -20 115 35 126 11 2 162 5 334 6 251 1 319
-2 347 -13z"/>
<path d="M1678 4332 c-15 -37 -29 -73 -30 -80 -3 -14 130 -75 147 -68 11 4 70
144 64 150 -4 3 -149 66 -153 66 0 0 -13 -30 -28 -68z"/>
<path d="M3496 4369 c-38 -16 -72 -31 -74 -34 -7 -6 47 -143 58 -150 12 -8
141 45 146 60 5 12 -43 142 -55 149 -3 2 -37 -10 -75 -25z"/>
<path d="M1617 1982 l-257 -258 0 -120 0 -120 -39 -38 c-38 -37 -40 -38 -62
-22 -13 9 -41 16 -63 16 -38 0 -47 -8 -209 -167 -93 -93 -176 -183 -183 -200
-12 -28 -12 -38 0 -65 8 -19 189 -208 423 -441 l409 -407 44 0 c44 0 45 1 222
178 171 171 178 179 178 218 0 22 -7 50 -16 63 -16 23 -15 25 97 137 l114 114
503 0 c408 0 509 3 535 14 18 8 258 241 560 543 l527 528 0 44 c0 38 -5 48
-42 82 -126 115 -338 164 -503 115 -120 -36 -170 -71 -361 -258 l-181 -178
-136 0 -137 0 0 153 c0 174 -10 209 -75 266 -72 62 -57 61 -597 61 l-494 0
-257 -258z m1211 83 c38 -9 52 -60 52 -190 l0 -115 -320 0 -320 0 0 -85 0 -85
559 0 c371 0 569 4 588 11 15 5 116 97 223 203 174 173 201 196 255 216 82 31
188 31 269 0 l59 -22 -479 -479 -479 -479 -519 0 -519 0 -139 -137 -138 -138
-257 257 -257 257 57 60 57 60 0 116 0 117 215 221 216 222 427 -3 c235 -1
437 -5 450 -7z m-1288 -1170 l335 -335 -98 -97 -97 -98 -217 217 -218 218 50
50 50 50 -63 62 -62 63 -50 -50 -50 -50 -57 58 -58 57 95 95 c52 52 97 95 100
95 3 0 156 -151 340 -335z"/>
</g>
</svg>
