<?xml version="1.0" standalone="no"?>
<!DOCTYPE svg PUBLIC "-//W3C//DTD SVG 20010904//EN"
 "http://www.w3.org/TR/2001/REC-SVG-20010904/DTD/svg10.dtd">
<svg version="1.0" xmlns="http://www.w3.org/2000/svg"
 width="512.000000pt" height="512.000000pt" viewBox="0 0 512.000000 512.000000"
 preserveAspectRatio="xMidYMid meet">
<metadata>
Created by potrace 1.15, written by Peter Selinger 2001-2017
</metadata>
<g transform="translate(0.000000,512.000000) scale(0.100000,-0.100000)"
fill="#000000" stroke="none">
<path d="M1220 4940 c-21 -21 -21 -25 -18 -328 4 -304 4 -308 32 -387 85 -248
264 -426 511 -511 78 -27 87 -28 345 -31 l265 -4 103 -102 102 -102 0 -216 0
-217 -64 -11 c-130 -23 -260 -83 -369 -170 -62 -49 -157 -161 -187 -220 l-18
-37 74 -38 c41 -21 76 -37 78 -35 1 2 20 30 40 62 79 120 227 225 371 263 78
20 232 20 310 0 250 -66 448 -292 473 -539 l7 -72 84 -3 84 -3 -6 83 c-14 190
-99 362 -249 503 -116 110 -238 173 -390 203 l-78 15 0 216 0 216 103 103 102
102 191 0 c157 0 204 3 268 20 248 63 453 268 516 516 17 66 20 111 20 311 0
220 -1 234 -20 253 -19 19 -33 20 -253 20 -200 0 -245 -3 -311 -20 -248 -63
-453 -268 -516 -516 -17 -64 -20 -111 -20 -268 l0 -191 -80 -80 -80 -80 -79
79 -79 79 -4 266 c-4 259 -5 268 -32 346 -85 247 -263 426 -511 511 -79 28
-83 28 -387 32 -303 3 -307 3 -328 -18z m625 -165 c207 -57 393 -243 450 -450
11 -42 18 -123 22 -274 l6 -214 -214 6 c-239 7 -290 16 -404 75 -95 49 -218
172 -267 267 -59 114 -68 165 -75 404 l-6 214 214 -6 c151 -4 232 -11 274 -22z
m1912 -297 c-7 -188 -15 -226 -65 -327 -49 -100 -143 -194 -243 -243 -101 -50
-139 -58 -328 -65 l-164 -6 6 164 c7 189 15 227 64 328 60 122 177 225 313
275 61 23 152 33 299 35 l124 1 -6 -162z"/>
<path d="M1537 1982 l-257 -258 0 -120 0 -120 -39 -38 c-38 -37 -40 -38 -62
-22 -13 9 -41 16 -63 16 -39 0 -47 -7 -218 -178 -177 -177 -178 -178 -178
-222 l0 -45 418 -417 417 -418 45 0 c44 0 45 1 222 178 171 171 178 179 178
218 0 22 -7 50 -16 63 -16 23 -15 25 97 137 l114 114 503 0 c408 0 509 3 535
14 18 8 258 241 560 543 l527 528 0 44 c0 38 -5 48 -42 82 -61 56 -161 105
-250 123 -96 20 -120 20 -216 0 -137 -28 -195 -67 -398 -266 l-181 -178 -136
0 -137 0 0 153 c0 174 -10 209 -75 266 -72 62 -57 61 -597 61 l-494 0 -257
-258z m1211 83 c38 -9 52 -60 52 -190 l0 -115 -320 0 -320 0 0 -85 0 -85 559
0 c371 0 569 4 588 11 15 5 116 97 223 203 174 173 201 196 255 216 82 31 188
31 269 0 l59 -22 -479 -479 -479 -479 -519 0 -519 0 -139 -137 -138 -138 -257
257 -257 257 57 60 57 60 0 116 0 117 215 221 216 222 427 -3 c235 -1 437 -5
450 -7z m-1288 -1170 l335 -335 -98 -97 -97 -98 -217 217 -218 218 50 50 50
50 -63 62 -62 63 -50 -50 -50 -50 -57 58 -58 57 95 95 c52 52 97 95 100 95 3
0 156 -151 340 -335z"/>
</g>
</svg>
