<?xml version="1.0" standalone="no"?>
<!DOCTYPE svg PUBLIC "-//W3C//DTD SVG 20010904//EN"
 "http://www.w3.org/TR/2001/REC-SVG-20010904/DTD/svg10.dtd">
<svg version="1.0" xmlns="http://www.w3.org/2000/svg"
 width="512.000000pt" height="512.000000pt" viewBox="0 0 512.000000 512.000000"
 preserveAspectRatio="xMidYMid meet">
<metadata>
Created by potrace 1.15, written by Peter Selinger 2001-2017
</metadata>
<g transform="translate(0.000000,512.000000) scale(0.100000,-0.100000)"
fill="#000000" stroke="none">
<path d="M2285 4939 c-532 -65 -1004 -288 -1384 -654 -398 -383 -643 -873
-716 -1428 -8 -65 -15 -138 -15 -163 l0 -44 -60 0 c-78 0 -110 -27 -110 -90 0
-63 32 -90 110 -90 l60 0 0 -44 c0 -71 28 -270 56 -396 202 -909 933 -1627
1849 -1815 294 -60 676 -60 970 0 443 91 845 303 1174 620 398 383 643 873
716 1428 8 65 15 138 15 163 l0 44 60 0 c78 0 110 27 110 90 0 63 -32 90 -110
90 l-60 0 0 44 c0 71 -28 270 -56 396 -202 909 -933 1627 -1849 1815 -206 42
-561 58 -760 34z m557 -185 c1032 -133 1838 -980 1924 -2021 l7 -83 -80 0 -80
0 -12 115 c-58 574 -348 1090 -806 1435 -673 506 -1591 549 -2312 109 -255
-155 -517 -417 -672 -672 -167 -275 -267 -581 -296 -909 l-7 -78 -79 0 -79 0
0 34 c0 73 33 282 64 408 197 791 818 1413 1611 1613 72 19 180 40 240 48 151
20 424 21 577 1z m-372 -404 l0 -79 -32 -5 c-18 -3 -73 -10 -123 -16 -178 -22
-404 -94 -565 -182 -450 -245 -760 -662 -867 -1167 -25 -114 -27 -146 -27
-341 0 -195 2 -227 27 -341 107 -505 418 -923 867 -1167 161 -88 387 -160 565
-182 50 -6 105 -13 123 -16 l32 -5 0 -79 c0 -92 11 -86 -120 -70 -430 54 -811
239 -1110 539 -157 158 -257 296 -355 490 -260 520 -260 1142 0 1662 283 565
823 947 1451 1028 38 4 84 9 102 10 l32 1 0 -80z m300 70 c430 -54 811 -239
1110 -539 157 -158 257 -296 355 -490 260 -520 260 -1142 0 -1662 -98 -194
-198 -332 -355 -490 -299 -300 -680 -485 -1110 -539 -131 -16 -120 -22 -120
70 l0 79 33 5 c17 3 73 10 122 16 383 48 777 259 1037 556 198 226 332 495
395 793 25 114 27 146 27 341 0 195 -2 227 -27 341 -63 299 -197 566 -395 793
-260 297 -654 508 -1037 556 -49 6 -105 13 -122 16 l-33 5 0 79 c0 92 -11 86
120 70z m92 -360 c609 -129 1067 -588 1200 -1204 29 -137 32 -435 5 -571 -28
-138 -73 -269 -138 -400 -212 -430 -613 -735 -1094 -832 -136 -27 -434 -24
-571 5 -618 133 -1072 587 -1206 1206 -32 146 -32 446 0 592 142 656 652 1132
1312 1224 107 15 381 4 492 -20z m-2343 -1707 c96 -949 830 -1705 1774 -1828
151 -19 383 -19 534 0 945 123 1678 878 1774 1830 l12 115 80 0 80 0 -7 -82
c-78 -947 -751 -1741 -1671 -1973 -254 -64 -557 -83 -817 -49 -898 116 -1645
782 -1864 1662 -31 126 -64 335 -64 408 l0 34 79 0 78 0 12 -117z"/>
<path d="M2424 3915 c-132 -28 -274 -122 -343 -225 -61 -92 -86 -176 -85 -290
1 -149 15 -180 250 -533 l204 -307 -204 -308 c-235 -352 -249 -383 -250 -532
0 -74 4 -110 23 -163 106 -310 492 -458 803 -307 139 68 233 171 279 307 19
53 23 89 23 163 -1 149 -15 180 -250 532 l-204 308 204 307 c235 353 249 384
250 533 0 74 -4 110 -23 163 -90 263 -384 416 -677 352z m225 -176 c157 -36
275 -156 296 -300 14 -98 -9 -150 -203 -441 -97 -147 -179 -268 -182 -268 -3
0 -85 121 -182 268 -194 291 -217 343 -203 441 30 207 256 351 474 300z m74
-1587 c86 -131 157 -240 157 -244 0 -14 -104 -71 -161 -89 -83 -26 -235 -26
-318 0 -57 18 -161 75 -161 89 0 9 314 482 320 482 3 0 76 -107 163 -238z
m-466 -471 c34 -17 90 -38 125 -46 82 -19 274 -19 356 0 60 14 170 62 201 88
24 20 4 -79 -30 -151 -59 -121 -193 -197 -349 -197 -156 0 -290 76 -349 197
-34 72 -54 171 -30 151 8 -7 42 -26 76 -42z"/>
<path d="M1642 3647 c-30 -32 -30 -96 1 -125 89 -83 213 42 127 128 -29 29
-100 27 -128 -3z"/>
<path d="M3350 3650 c-44 -44 -33 -118 22 -146 36 -18 73 -12 106 18 31 30 31
96 -1 126 -31 29 -99 30 -127 2z"/>
<path d="M1476 3139 c-20 -16 -26 -29 -26 -59 0 -53 8 -68 42 -86 64 -33 133
6 133 76 0 79 -86 119 -149 69z"/>
<path d="M3519 3134 c-30 -32 -32 -93 -5 -123 26 -29 77 -36 114 -17 34 18 42
33 42 86 0 30 -6 43 -26 59 -38 30 -94 28 -125 -5z"/>
<path d="M1234 2638 c-39 -18 -54 -75 -33 -121 28 -61 130 -61 158 0 39 85
-41 162 -125 121z"/>
<path d="M1815 2625 c-56 -56 -18 -155 60 -155 48 0 95 45 95 90 0 76 -102
119 -155 65z"/>
<path d="M3179 2621 c-20 -20 -29 -39 -29 -61 0 -45 47 -90 95 -90 51 0 85 36
85 90 0 85 -90 121 -151 61z"/>
<path d="M3794 2638 c-58 -28 -56 -130 3 -157 65 -30 133 11 133 79 0 69 -72
110 -136 78z"/>
<path d="M1495 2129 c-34 -19 -45 -41 -45 -85 0 -34 5 -47 26 -63 38 -30 94
-28 125 5 31 33 33 95 3 124 -24 25 -82 35 -109 19z"/>
<path d="M3540 2127 c-80 -40 -49 -167 40 -167 55 0 90 31 90 80 0 52 -8 68
-41 85 -34 18 -56 19 -89 2z"/>
<path d="M1680 1623 c-61 -22 -82 -109 -37 -151 31 -29 99 -30 127 -2 66 66
-3 185 -90 153z"/>
<path d="M3369 1615 c-52 -29 -61 -103 -19 -145 29 -29 100 -27 128 3 31 33
30 96 -1 125 -30 28 -75 36 -108 17z"/>
</g>
</svg>
