<?xml version="1.0" standalone="no"?>
<!DOCTYPE svg PUBLIC "-//W3C//DTD SVG 20010904//EN"
 "http://www.w3.org/TR/2001/REC-SVG-20010904/DTD/svg10.dtd">
<svg version="1.0" xmlns="http://www.w3.org/2000/svg"
 width="512.000000pt" height="512.000000pt" viewBox="0 0 512.000000 512.000000"
 preserveAspectRatio="xMidYMid meet">
<metadata>
Created by potrace 1.15, written by Peter Selinger 2001-2017
</metadata>
<g transform="translate(0.000000,512.000000) scale(0.100000,-0.100000)"
fill="#000000" stroke="none">
<path d="M2355 4671 c-101 -26 -194 -109 -220 -194 -24 -84 -88 -630 -80 -690
11 -82 33 -128 173 -359 l131 -218 -60 -57 c-85 -81 -123 -161 -124 -263 l0
-77 -506 -292 c-322 -186 -519 -305 -543 -330 -78 -80 -101 -228 -50 -330 46
-91 151 -151 267 -151 52 0 88 12 345 121 291 123 364 164 415 231 14 18 80
132 147 253 67 121 123 221 125 223 1 1 14 -3 29 -9 l26 -12 0 -469 c0 -492
-2 -512 -45 -548 -15 -12 -76 -16 -359 -20 l-341 -5 -60 -29 c-77 -38 -153
-114 -190 -191 -25 -50 -30 -72 -30 -135 0 -63 5 -85 30 -135 37 -77 113 -153
190 -191 l60 -29 533 -3 532 -3 0 -27 c0 -47 54 -144 109 -195 79 -74 126 -92
246 -92 117 0 166 18 238 84 l44 41 82 0 c125 0 181 40 181 129 0 87 -58 141
-150 141 l-40 0 0 60 0 60 50 0 c93 0 140 45 140 135 0 38 -6 52 -34 83 l-34
37 -99 4 -98 3 -43 40 c-73 67 -120 83 -242 83 -96 0 -110 -2 -159 -28 -98
-52 -176 -154 -188 -247 l-6 -40 -514 0 -514 0 -24 25 c-31 30 -34 92 -6 126
l19 24 339 5 338 5 68 32 c84 40 163 117 203 198 l29 60 3 506 3 506 32 16
c17 9 44 24 58 33 25 16 28 15 514 -266 270 -156 508 -291 530 -301 87 -40
229 -17 313 50 97 76 114 264 36 380 -21 31 -476 385 -534 416 -88 46 -112 48
-406 46 l-281 -3 -12 59 c-6 32 -24 81 -40 108 -34 59 -124 147 -175 172 l-36
17 0 606 0 606 -26 51 c-58 117 -200 192 -309 164z m75 -658 l0 -398 -55 90
c-33 55 -54 102 -55 120 0 29 54 486 65 553 4 23 11 32 25 32 20 0 20 -10 20
-397z m222 -1040 c48 -48 28 -181 -30 -204 -26 -10 -86 -12 -119 -3 -32 9 -63
67 -63 117 0 86 40 120 133 114 42 -2 63 -9 79 -24z m871 -375 c130 -93 446
-334 447 -341 1 -30 -64 1 -362 173 -183 106 -335 194 -337 196 -2 2 43 4 101
4 103 0 107 -1 151 -32z m-1583 -285 c-23 -43 -52 -87 -64 -99 -25 -24 -544
-246 -557 -238 -5 3 -9 11 -9 17 1 9 644 390 668 396 2 1 -15 -34 -38 -76z
m1253 -1273 c5 -19 7 -97 5 -173 -3 -108 -7 -140 -18 -147 -8 -5 -45 -10 -82
-10 -56 0 -69 3 -78 19 -13 26 -13 306 1 332 9 18 19 19 86 17 l77 -3 9 -35z"/>
</g>
</svg>
