<?xml version="1.0" standalone="no"?>
<!DOCTYPE svg PUBLIC "-//W3C//DTD SVG 20010904//EN"
 "http://www.w3.org/TR/2001/REC-SVG-20010904/DTD/svg10.dtd">
<svg version="1.0" xmlns="http://www.w3.org/2000/svg"
 width="512.000000pt" height="512.000000pt" viewBox="0 0 512.000000 512.000000"
 preserveAspectRatio="xMidYMid meet">
<metadata>
Created by potrace 1.15, written by Peter Selinger 2001-2017
</metadata>
<g transform="translate(0.000000,512.000000) scale(0.100000,-0.100000)"
fill="#000000" stroke="none">
<path d="M2607 4709 c-11 -6 -25 -26 -33 -45 -12 -29 -12 -39 0 -68 39 -93
166 -67 166 34 0 72 -72 114 -133 79z"/>
<path d="M1775 4536 c-86 -14 -89 -18 -105 -177 -37 -361 100 -609 385 -699
81 -26 284 -38 378 -22 l57 9 -1 -586 0 -586 -24 52 c-104 228 -318 376 -600
414 -143 19 -491 -4 -522 -34 -13 -13 -33 -157 -39 -284 -26 -505 211 -834
651 -903 126 -20 373 -12 508 16 l27 6 0 -151 0 -151 -42 0 c-152 0 -387 -77
-528 -173 -148 -101 -288 -302 -278 -401 l3 -31 871 -3 c782 -2 873 0 884 14
11 13 10 27 -8 83 -86 266 -400 478 -753 507 l-79 7 0 168 0 169 23 -10 c90
-38 533 -63 714 -40 144 18 275 55 392 111 493 235 688 753 565 1499 -9 52
-19 98 -23 102 -3 4 -65 17 -136 30 -176 30 -542 33 -679 5 -428 -87 -706
-318 -836 -695 l-19 -57 -1 481 c0 306 4 501 11 535 19 95 14 303 -10 392 -47
178 -159 308 -321 371 -111 44 -309 58 -465 32z m1458 -1403 c3 -5 15 -132 27
-283 13 -151 24 -276 25 -278 3 -3 137 134 317 323 57 60 68 67 82 56 9 -7 16
-17 16 -22 0 -5 -171 -187 -380 -405 -209 -218 -380 -400 -380 -405 0 -5 10
-7 23 -4 41 9 528 85 547 85 20 0 32 -21 21 -39 -5 -7 -148 -34 -341 -65
l-333 -53 -98 -104 c-96 -103 -97 -104 -117 -85 -21 18 -19 20 281 332 227
236 303 321 305 342 1 15 -8 153 -21 307 -13 154 -22 286 -19 293 5 13 38 17
45 5z m-1366 -685 c71 -73 173 -179 228 -235 54 -57 102 -103 106 -103 3 0 9
57 13 128 9 175 16 223 33 229 34 13 36 -12 23 -222 l-13 -207 97 -97 c95 -95
108 -120 72 -134 -8 -3 -110 96 -241 234 -125 131 -234 244 -241 250 -10 8
-48 -3 -153 -42 -138 -51 -176 -56 -169 -22 2 12 42 32 128 65 69 26 129 49
134 50 5 2 -35 50 -89 106 -79 85 -94 106 -85 118 7 7 16 14 20 14 4 0 66 -60
137 -132z"/>
<path d="M4024 4301 c-47 -29 -64 -59 -64 -114 0 -42 5 -54 33 -82 41 -41 90
-52 140 -31 99 41 100 191 2 232 -46 19 -74 18 -111 -5z"/>
<path d="M872 3192 c-106 -99 9 -270 140 -208 62 30 87 111 53 176 -23 44 -53
60 -111 60 -43 0 -57 -5 -82 -28z"/>
<path d="M1043 675 c-8 -6 -13 -22 -11 -36 l3 -24 1485 0 1485 0 3 24 c2 13
-1 28 -8 35 -16 16 -2935 17 -2957 1z"/>
<path d="M1043 465 c-8 -6 -13 -22 -11 -36 l3 -24 1485 0 1485 0 3 24 c2 13
-1 28 -8 35 -15 15 -2936 16 -2957 1z"/>
</g>
</svg>
