<?xml version="1.0" standalone="no"?>
<!DOCTYPE svg PUBLIC "-//W3C//DTD SVG 20010904//EN"
 "http://www.w3.org/TR/2001/REC-SVG-20010904/DTD/svg10.dtd">
<svg version="1.0" xmlns="http://www.w3.org/2000/svg"
 width="512.000000pt" height="384.000000pt" viewBox="0 0 512.000000 384.000000"
 preserveAspectRatio="xMidYMid meet">
<metadata>
Created by potrace 1.15, written by Peter Selinger 2001-2017
</metadata>
<g transform="translate(0.000000,384.000000) scale(0.100000,-0.100000)"
fill="#000000" stroke="none">
<path d="M4316 3693 l-249 -146 -51 19 c-74 27 -176 25 -244 -5 -95 -43 -172
-154 -172 -250 0 -36 -2 -37 -132 -111 -465 -265 -541 -322 -909 -687 -285
-282 -323 -313 -387 -313 -64 0 -106 38 -247 225 -75 99 -143 186 -152 193
-47 35 -55 32 -914 -453 -453 -256 -832 -475 -841 -487 -10 -11 -18 -36 -18
-56 0 -46 334 -1125 365 -1177 63 -108 200 -224 351 -299 329 -163 736 -170
1086 -20 214 92 462 291 608 489 24 33 81 105 126 160 224 275 409 546 669
980 273 455 394 622 607 837 92 94 112 109 131 103 12 -4 57 -10 99 -12 66 -4
84 -2 130 19 77 36 113 71 149 143 30 61 31 70 27 153 l-4 88 76 56 c179 132
369 241 564 323 60 25 115 53 122 63 22 29 17 96 -8 119 -36 32 -451 193 -496
192 -29 -1 -92 -33 -286 -146z m393 -77 l83 -33 -108 -57 c-108 -57 -305 -182
-375 -237 -20 -16 -41 -29 -46 -29 -12 0 -79 138 -70 146 12 13 412 243 423
243 5 1 48 -14 93 -33z m-739 -234 c15 -11 61 -89 119 -203 l94 -186 -14 -44
c-27 -84 -125 -117 -189 -63 -44 38 -200 350 -200 402 0 96 110 151 190 94z
m-249 -424 l67 -131 -87 -86 c-241 -238 -374 -423 -691 -956 -205 -343 -376
-593 -584 -853 -55 -70 -131 -165 -167 -212 -127 -163 -304 -314 -460 -391
-273 -136 -613 -162 -891 -68 -151 50 -300 153 -371 256 -17 25 -72 186 -162
478 -75 242 -137 445 -140 451 -2 8 14 7 53 -2 77 -18 259 -17 368 1 183 32
337 91 526 202 300 177 503 398 592 647 5 15 20 0 79 -77 121 -158 177 -192
322 -192 149 0 157 5 498 343 319 315 426 403 657 539 74 44 173 103 220 131
47 27 90 51 95 51 6 1 40 -58 76 -131z m-2145 -664 c-102 -214 -309 -405 -595
-549 -91 -45 -230 -96 -320 -116 -121 -26 -368 -25 -359 3 4 10 1301 746 1307
742 2 -2 -13 -38 -33 -80z"/>
<path d="M542 1180 c-12 -11 -25 -32 -28 -47 -8 -32 29 -154 54 -175 45 -39
119 -23 142 31 11 28 10 41 -9 104 -12 41 -30 80 -42 90 -29 24 -90 22 -117
-3z"/>
<path d="M725 745 c-38 -37 -34 -91 10 -142 82 -96 231 -184 370 -218 94 -23
276 -23 311 0 51 33 54 107 7 145 -22 17 -41 20 -133 20 -171 0 -292 49 -410
166 -48 46 -61 54 -93 54 -27 0 -45 -7 -62 -25z"/>
</g>
</svg>
