<?xml version="1.0" standalone="no"?>
<!DOCTYPE svg PUBLIC "-//W3C//DTD SVG 20010904//EN"
 "http://www.w3.org/TR/2001/REC-SVG-20010904/DTD/svg10.dtd">
<svg version="1.0" xmlns="http://www.w3.org/2000/svg"
 width="512.000000pt" height="512.000000pt" viewBox="0 0 512.000000 512.000000"
 preserveAspectRatio="xMidYMid meet">
<metadata>
Created by potrace 1.15, written by Peter Selinger 2001-2017
</metadata>
<g transform="translate(0.000000,512.000000) scale(0.100000,-0.100000)"
fill="#000000" stroke="none">
<path d="M2405 5105 c-157 -44 -311 -168 -390 -314 -76 -141 -167 -207 -332
-242 -54 -12 -125 -33 -158 -49 -214 -98 -355 -312 -355 -540 1 -168 55 -307
170 -436 39 -43 86 -108 103 -144 l32 -65 -3 -184 c-3 -210 6 -260 64 -380 24
-48 60 -98 105 -146 116 -121 250 -177 429 -178 113 -1 176 13 291 64 48 22
94 39 103 39 15 0 16 -47 16 -510 0 -280 -2 -510 -5 -510 -3 0 -29 17 -58 39
-290 215 -693 305 -1055 236 -252 -48 -509 -181 -694 -358 -74 -70 -78 -76
-78 -118 0 -42 4 -48 81 -121 138 -133 308 -236 495 -301 171 -60 247 -72 449
-72 192 0 269 11 424 61 106 34 283 123 366 184 l70 50 3 -529 2 -530 26 -20
c34 -27 74 -27 108 0 l26 20 0 785 0 784 78 -54 c157 -110 373 -199 561 -230
119 -20 332 -21 442 -1 277 48 533 175 724 358 80 77 85 84 85 123 0 39 -5 47
-89 127 -187 177 -408 292 -674 349 -144 30 -380 30 -524 0 -120 -26 -251 -71
-348 -119 -80 -40 -199 -115 -232 -146 l-23 -20 0 262 0 263 28 -7 c15 -3 61
-21 102 -40 41 -18 95 -39 120 -46 69 -20 253 -17 324 5 193 58 339 200 407
396 21 59 23 83 24 270 l0 205 31 65 c17 36 60 98 98 139 181 201 225 470 114
699 -23 48 -56 91 -118 153 -103 103 -185 147 -333 178 -165 34 -256 101 -332
242 -80 149 -234 271 -395 314 -68 18 -237 18 -305 0z m275 -167 c63 -19 149
-70 188 -112 21 -23 60 -79 87 -125 106 -179 249 -281 450 -321 138 -28 229
-85 296 -184 86 -129 103 -289 42 -417 -16 -35 -63 -102 -102 -149 -85 -99
-125 -173 -152 -279 -17 -64 -19 -104 -17 -256 l3 -180 -32 -68 c-42 -89 -124
-170 -218 -216 -57 -28 -85 -35 -151 -39 -90 -5 -125 3 -266 62 -193 81 -333
73 -578 -30 -91 -38 -193 -44 -278 -15 -144 49 -248 147 -292 277 -17 49 -19
81 -17 243 2 172 0 191 -21 256 -32 96 -71 160 -154 257 -39 45 -83 107 -97
137 -23 50 -26 68 -26 166 0 106 1 113 37 187 66 138 178 222 333 249 193 33
344 141 450 320 68 115 114 162 201 205 100 50 215 61 314 32z m1048 -2813
c202 -39 408 -139 557 -270 l40 -36 -50 -46 c-136 -126 -352 -228 -564 -268
-105 -19 -303 -19 -412 0 -156 27 -309 88 -449 178 l-64 42 388 5 388 5 19 24
c24 30 24 82 0 112 l-19 24 -389 5 -388 5 64 44 c138 94 337 169 512 191 96
11 262 5 367 -15z m-1938 -499 c175 -27 371 -104 500 -196 l55 -40 -353 0
-353 0 -24 -25 c-32 -31 -32 -75 -1 -112 l24 -28 347 -5 346 -5 -66 -43 c-389
-256 -917 -256 -1300 1 -73 49 -165 125 -165 137 0 20 170 142 268 193 144 74
240 103 432 131 62 9 203 5 290 -8z"/>
<path d="M2422 4294 c-104 -28 -182 -74 -267 -159 -120 -119 -175 -247 -175
-405 0 -158 55 -285 175 -405 121 -121 246 -175 405 -175 159 0 284 54 405
175 120 120 175 247 175 405 0 158 -55 286 -175 405 -86 86 -164 132 -271 160
-72 19 -201 18 -272 -1z m291 -180 c230 -88 328 -382 200 -601 -36 -62 -124
-138 -191 -164 -82 -33 -242 -33 -324 0 -67 26 -155 102 -191 164 -120 204
-42 485 162 583 98 48 246 55 344 18z"/>
</g>
</svg>
