<?xml version="1.0" standalone="no"?>
<!DOCTYPE svg PUBLIC "-//W3C//DTD SVG 20010904//EN"
 "http://www.w3.org/TR/2001/REC-SVG-20010904/DTD/svg10.dtd">
<svg version="1.0" xmlns="http://www.w3.org/2000/svg"
 width="512.000000pt" height="512.000000pt" viewBox="0 0 512.000000 512.000000"
 preserveAspectRatio="xMidYMid meet">
<metadata>
Created by potrace 1.15, written by Peter Selinger 2001-2017
</metadata>
<g transform="translate(0.000000,512.000000) scale(0.100000,-0.100000)"
fill="#000000" stroke="none">
<path d="M1639 5007 c-129 -48 -209 -162 -209 -296 0 -109 51 -203 143 -261
l56 -35 1 -130 0 -130 205 -205 205 -205 0 -132 0 -133 110 0 110 0 0 178 0
177 -205 205 -205 205 0 87 c0 78 2 87 20 93 41 13 116 83 145 136 27 49 30
62 30 149 0 79 -4 102 -23 137 -33 63 -75 106 -134 138 -43 24 -67 29 -133 32
-50 2 -93 -2 -116 -10z m171 -232 c50 -51 21 -144 -51 -160 -67 -15 -134 64
-108 127 28 67 108 84 159 33z"/>
<path d="M2464 5010 c-86 -27 -180 -123 -204 -208 -38 -137 20 -287 139 -357
l51 -30 0 -467 0 -468 110 0 110 0 0 468 0 467 51 30 c102 60 155 164 147 289
-8 113 -61 197 -160 251 -44 24 -67 29 -133 32 -44 1 -94 -2 -111 -7z m163
-231 c49 -47 33 -125 -32 -156 -33 -16 -37 -16 -70 0 -82 39 -79 148 5 180 25
10 73 -2 97 -24z"/>
<path d="M3284 5010 c-89 -27 -181 -123 -205 -213 -19 -70 -7 -175 27 -237 28
-52 103 -122 144 -135 18 -6 20 -15 20 -93 l0 -87 -205 -205 -205 -205 0 -177
0 -178 110 0 110 0 0 133 0 132 205 205 205 205 0 130 1 130 56 35 c198 125
188 422 -18 535 -45 24 -67 29 -134 32 -44 1 -94 -2 -111 -7z m142 -219 c17
-10 36 -32 43 -49 26 -63 -41 -142 -108 -127 -91 20 -102 150 -16 186 31 12
48 10 81 -10z"/>
<path d="M385 4593 c-121 -44 -196 -110 -249 -222 l-31 -66 -3 -1255 -2 -1255
255 -255 255 -255 0 -592 0 -593 670 0 670 0 0 948 0 948 -402 401 c-360 359
-410 405 -467 432 -36 17 -84 33 -108 37 l-43 6 0 673 c0 410 -4 693 -10 725
-25 130 -113 246 -229 302 -57 28 -79 32 -161 35 -72 3 -107 -1 -145 -14z
m212 -218 c32 -16 61 -41 79 -67 l29 -41 3 -721 2 -721 -47 -35 c-106 -78
-158 -196 -151 -338 7 -146 22 -168 297 -445 129 -130 240 -237 245 -237 14 0
146 131 146 144 0 6 -103 114 -229 241 -189 189 -231 237 -241 272 -39 131 88
258 222 223 38 -10 89 -57 416 -383 l372 -372 0 -792 0 -793 -460 0 -460 0 0
538 0 537 -255 255 -255 255 0 1160 c0 797 3 1172 11 1199 21 76 112 144 195
146 16 0 53 -11 81 -25z"/>
<path d="M4472 4591 c-74 -27 -112 -53 -166 -111 -54 -57 -91 -132 -106 -210
-6 -32 -10 -315 -10 -725 l0 -673 -43 -6 c-24 -4 -72 -20 -108 -37 -57 -27
-107 -73 -466 -432 l-403 -401 0 -948 0 -948 670 0 670 0 0 593 0 592 255 255
255 255 -2 1256 -3 1255 -37 76 c-45 91 -103 148 -196 191 -58 27 -80 32 -162
34 -75 3 -106 -1 -148 -16z m193 -202 c23 -7 57 -28 81 -53 25 -24 46 -58 53
-81 8 -28 11 -381 11 -1200 l0 -1160 -255 -255 -255 -255 0 -537 0 -538 -460
0 -460 0 0 793 0 792 373 372 c326 326 377 373 415 383 134 35 261 -92 222
-223 -10 -35 -52 -83 -241 -272 -126 -127 -229 -235 -229 -240 0 -13 132 -145
145 -145 6 0 117 107 246 238 275 276 290 298 297 444 7 142 -45 260 -151 338
l-47 35 2 721 3 721 29 41 c30 44 111 92 155 92 15 0 44 -5 66 -11z"/>
<path d="M1630 3380 l0 -310 930 0 930 0 0 310 0 310 -110 0 -110 0 0 -205 0
-205 -710 0 -710 0 0 205 0 205 -110 0 -110 0 0 -310z"/>
</g>
</svg>
