<?xml version="1.0" standalone="no"?>
<!DOCTYPE svg PUBLIC "-//W3C//DTD SVG 20010904//EN"
 "http://www.w3.org/TR/2001/REC-SVG-20010904/DTD/svg10.dtd">
<svg version="1.0" xmlns="http://www.w3.org/2000/svg"
 width="512.000000pt" height="512.000000pt" viewBox="0 0 512.000000 512.000000"
 preserveAspectRatio="xMidYMid meet">
<metadata>
Created by potrace 1.15, written by Peter Selinger 2001-2017
</metadata>
<g transform="translate(0.000000,512.000000) scale(0.100000,-0.100000)"
fill="#000000" stroke="none">
<path d="M278 5059 c-15 -8 -18 -24 -18 -92 0 -93 8 -107 56 -107 51 0 64 21
64 105 0 65 -3 76 -22 89 -26 18 -55 20 -80 5z"/>
<path d="M2338 5059 c-142 -19 -275 -84 -398 -194 -131 -118 -213 -151 -405
-165 -260 -19 -447 -123 -576 -319 -65 -99 -97 -203 -110 -351 -6 -63 -15
-135 -20 -160 -18 -82 -75 -183 -149 -266 -144 -160 -191 -271 -198 -465 -4
-107 -1 -137 17 -204 30 -109 78 -194 167 -300 42 -49 87 -107 100 -127 43
-68 72 -175 83 -308 5 -69 17 -150 27 -180 48 -159 160 -306 301 -393 99 -62
263 -107 392 -107 126 0 244 -53 381 -170 102 -88 229 -157 330 -181 30 -7
102 -13 160 -12 176 1 323 58 460 179 149 130 239 170 425 185 240 19 392 88
524 235 104 117 157 256 172 448 15 200 51 284 188 441 71 81 120 169 152 275
19 61 23 97 23 190 -1 194 -49 320 -185 480 -136 160 -163 225 -178 427 -15
184 -56 298 -155 424 -123 157 -294 240 -529 258 -193 15 -276 50 -427 180
-43 37 -110 84 -147 104 -126 66 -287 95 -425 76z m245 -144 c87 -23 163 -66
261 -149 150 -127 284 -183 461 -193 187 -10 311 -60 419 -168 107 -107 153
-214 167 -390 5 -66 16 -147 24 -180 25 -100 87 -213 174 -314 130 -152 171
-251 171 -411 0 -156 -49 -277 -168 -411 -129 -146 -177 -257 -194 -444 -5
-60 -16 -138 -23 -172 -30 -135 -114 -256 -235 -338 -98 -66 -183 -93 -335
-104 -193 -14 -320 -66 -455 -186 -34 -31 -85 -71 -114 -90 -110 -73 -272
-101 -401 -71 -127 30 -182 62 -324 188 -76 68 -190 129 -281 153 -36 9 -117
21 -180 25 -133 10 -212 34 -299 90 -172 111 -254 260 -270 493 -15 208 -65
321 -223 502 -70 81 -112 163 -133 261 -18 87 -18 141 0 227 21 100 67 184
161 294 46 54 100 130 119 168 44 88 75 208 75 294 1 155 55 293 158 403 120
127 228 174 428 188 198 14 306 58 462 188 89 75 175 123 263 146 71 19 220
20 292 1z"/>
<path d="M2290 4504 c-365 -45 -718 -236 -933 -504 -301 -377 -393 -885 -242
-1337 72 -215 177 -385 340 -549 202 -203 435 -330 718 -391 104 -23 426 -25
532 -4 630 124 1098 664 1132 1307 6 104 5 112 -16 133 -26 26 -61 27 -90 4
-19 -16 -23 -34 -31 -138 -25 -317 -149 -585 -375 -810 -250 -250 -554 -377
-900 -378 -159 -1 -266 17 -403 64 -425 150 -731 490 -843 939 -21 84 -24 117
-23 285 0 172 3 199 26 286 115 425 436 762 861 904 154 52 274 68 447 62 199
-8 345 -45 520 -132 266 -133 510 -394 606 -648 15 -40 36 -80 47 -89 45 -41
114 -3 103 56 -11 57 -133 290 -196 374 -127 170 -295 314 -481 411 -198 105
-379 151 -609 156 -85 2 -171 1 -190 -1z"/>
<path d="M2398 4093 c-9 -10 -75 -136 -147 -280 -117 -235 -133 -262 -158
-267 -15 -3 -152 -24 -303 -46 -295 -43 -300 -45 -300 -102 0 -24 36 -64 221
-246 l221 -217 -56 -291 c-42 -218 -54 -298 -47 -317 10 -25 29 -37 61 -37 10
0 139 63 285 139 l267 140 267 -140 c147 -76 279 -139 294 -139 30 0 47 24 47
67 0 15 -23 152 -50 303 l-49 275 224 218 c315 306 320 289 -104 351 -167 25
-307 48 -311 53 -4 4 -62 123 -130 263 -67 140 -129 263 -138 273 -8 9 -29 17
-47 17 -18 0 -39 -8 -47 -17z m162 -431 l115 -227 250 -37 c138 -20 255 -37
260 -37 6 -1 -75 -84 -180 -184 l-189 -183 45 -260 c25 -142 45 -260 44 -261
-1 -2 -104 51 -229 117 -125 66 -231 120 -235 120 -4 0 -108 -53 -231 -119
-124 -65 -226 -115 -228 -112 -1 4 16 111 38 237 22 126 40 240 40 254 0 19
-43 68 -181 206 -177 177 -181 182 -153 188 16 3 128 19 249 36 140 20 226 37
236 46 9 8 63 111 120 229 57 118 106 215 109 215 3 0 57 -102 120 -228z"/>
<path d="M4356 4888 c-10 -14 -16 -44 -16 -79 l0 -57 -66 -4 c-75 -5 -94 -20
-94 -74 0 -46 30 -64 102 -64 l58 0 0 -58 c0 -75 18 -102 69 -102 56 0 71 22
71 103 l0 67 63 0 c73 0 97 17 97 68 0 43 -30 62 -102 62 l-58 0 0 58 c0 76
-18 102 -70 102 -29 0 -43 -6 -54 -22z"/>
<path d="M272 4738 c-9 -9 -12 -104 -12 -364 0 -386 0 -384 59 -384 61 0 61 2
61 383 0 301 -2 348 -16 361 -18 19 -75 21 -92 4z"/>
<path d="M346 2374 c-11 -11 -16 -35 -16 -80 l0 -64 -51 0 c-78 0 -109 -21
-109 -77 0 -45 30 -63 102 -63 l58 0 0 -52 c0 -89 38 -128 100 -106 35 13 40
25 40 96 l0 62 40 0 c77 0 120 40 106 96 -8 30 -41 44 -107 44 l-49 0 0 63 c0
49 -4 68 -18 80 -23 21 -76 22 -96 1z"/>
<path d="M947 1498 c-30 -28 -427 -882 -427 -919 0 -30 28 -59 56 -59 11 0
174 56 363 125 189 69 346 123 349 121 2 -3 61 -161 131 -353 111 -305 130
-349 154 -363 58 -32 62 -26 293 470 116 250 214 465 218 477 5 17 1 29 -18
48 -61 61 -76 40 -276 -388 l-175 -375 -38 107 c-130 366 -182 505 -194 517
-8 8 -26 14 -41 14 -15 0 -163 -49 -328 -108 l-301 -109 32 71 c18 39 94 203
169 365 75 161 136 304 136 316 0 24 -24 49 -57 59 -14 5 -29 0 -46 -16z"/>
<path d="M3756 1444 c-36 -36 -31 -52 128 -394 86 -184 154 -336 152 -338 -3
-2 -137 44 -299 102 -291 105 -344 118 -365 93 -6 -7 -56 -143 -112 -302 -56
-160 -104 -293 -108 -297 -4 -4 -79 149 -166 340 -88 191 -166 355 -174 365
-22 25 -77 22 -96 -5 -9 -12 -16 -30 -16 -39 0 -17 378 -835 405 -876 16 -24
66 -32 93 -14 8 4 70 163 139 352 68 189 128 348 133 353 8 8 674 -227 694
-245 26 -24 76 8 76 48 0 29 -386 845 -407 860 -23 18 -58 16 -77 -3z"/>
<path d="M3502 164 c-16 -11 -22 -25 -22 -54 0 -72 -18 -70 538 -70 l493 0 24
25 c14 13 25 33 25 45 0 12 -11 32 -25 45 l-24 25 -493 0 c-431 0 -496 -2
-516 -16z"/>
<path d="M4680 160 c-12 -12 -20 -33 -20 -54 0 -55 25 -66 147 -66 116 0 143
13 143 70 0 57 -27 70 -145 70 -92 0 -108 -3 -125 -20z"/>
</g>
</svg>
