<?xml version="1.0" standalone="no"?>
<!DOCTYPE svg PUBLIC "-//W3C//DTD SVG 20010904//EN"
 "http://www.w3.org/TR/2001/REC-SVG-20010904/DTD/svg10.dtd">
<svg version="1.0" xmlns="http://www.w3.org/2000/svg"
 width="512.000000pt" height="512.000000pt" viewBox="0 0 512.000000 512.000000"
 preserveAspectRatio="xMidYMid meet">
<metadata>
Created by potrace 1.15, written by Peter Selinger 2001-2017
</metadata>
<g transform="translate(0.000000,512.000000) scale(0.100000,-0.100000)"
fill="#000000" stroke="none">
<path d="M383 5100 c-91 -24 -144 -51 -192 -99 -45 -45 -77 -108 -91 -180 -13
-69 -12 -248 1 -376 7 -67 10 -653 9 -1790 -1 -1371 -4 -1724 -16 -1870 -28
-357 -15 -556 44 -640 39 -56 90 -81 233 -112 l124 -28 460 4 c818 7 2184 5
2421 -4 211 -7 236 -6 290 11 75 23 143 88 167 159 20 59 22 397 7 1108 l-10
449 307 314 c170 174 393 390 496 481 190 167 275 256 334 349 76 118 94 256
49 367 -33 80 -62 119 -177 239 -54 57 -114 120 -134 140 -46 48 -145 96 -227
110 -164 28 -325 -43 -545 -241 l-100 -89 -7 99 c-8 116 -35 230 -75 314 -59
126 -277 382 -526 617 -342 322 -526 492 -580 533 -85 66 -186 113 -295 135
-125 26 -488 27 -863 3 -254 -16 -280 -16 -485 0 -290 23 -523 22 -619 -3z
m1442 -244 c261 -4 336 -8 405 -23 l85 -18 1 -570 c0 -618 1 -628 55 -689 50
-57 109 -72 274 -66 77 2 318 4 535 5 l395 0 6 -45 c4 -25 10 -106 14 -180 l7
-135 -104 -105 c-56 -58 -226 -224 -376 -370 -319 -307 -480 -487 -552 -617
-23 -41 -24 -42 -43 -25 -18 16 -76 17 -888 17 l-869 0 -26 -26 c-49 -49 -40
-159 15 -189 13 -7 306 -10 872 -10 l852 0 -7 -37 c-3 -21 -20 -135 -37 -253
-17 -118 -32 -216 -33 -217 -1 -1 -348 -5 -771 -9 -430 -3 -787 -10 -808 -15
-98 -25 -102 -191 -5 -216 18 -5 408 -5 871 -1 l839 9 46 23 c82 41 191 76
400 127 296 72 408 122 552 243 36 30 66 53 68 51 3 -2 8 -219 13 -482 5 -263
9 -518 10 -566 2 -74 -1 -92 -18 -115 -30 -41 -118 -89 -194 -106 -79 -18
-336 -21 -519 -6 -63 5 -606 12 -1206 15 -888 4 -1108 8 -1188 20 -54 8 -104
20 -112 26 -59 49 -71 501 -47 1724 7 341 13 888 13 1215 0 502 -3 633 -20
840 -31 381 -25 511 26 617 43 90 137 146 269 162 59 6 561 5 1200 -3z m811
-212 c119 -89 256 -214 449 -408 201 -202 321 -342 378 -437 l37 -64 -482 -6
c-266 -3 -484 -5 -485 -5 -1 1 3 31 9 67 9 45 12 190 10 487 -2 232 0 422 3
422 4 0 40 -25 81 -56z m1882 -1191 c98 -80 166 -150 183 -188 35 -77 20 -234
-31 -335 -10 -19 -37 -57 -60 -83 l-43 -48 -16 25 c-19 29 -423 423 -460 449
-14 9 -23 18 -20 20 94 79 226 158 304 183 68 21 94 17 143 -23z m-611 -344
c57 -21 107 -66 294 -267 l191 -205 -434 -427 c-238 -234 -462 -453 -498 -485
-153 -137 -295 -224 -435 -269 -87 -27 -364 -90 -371 -83 -8 8 37 234 63 316
69 221 184 388 468 681 72 74 205 218 295 320 151 170 390 430 396 430 2 0 15
-5 31 -11z"/>
<path d="M815 3491 c-32 -13 -55 -46 -62 -84 -8 -49 3 -84 34 -113 l26 -24
432 0 c420 0 433 1 458 20 61 48 52 161 -15 196 -22 11 -103 14 -440 13 -227
0 -422 -4 -433 -8z"/>
<path d="M815 2761 c-32 -14 -55 -46 -62 -84 -8 -49 3 -84 34 -113 l26 -24
857 0 857 0 26 24 c48 44 49 129 2 175 l-25 26 -848 2 c-466 1 -856 -2 -867
-6z"/>
</g>
</svg>
