<?xml version="1.0" standalone="no"?>
<!DOCTYPE svg PUBLIC "-//W3C//DTD SVG 20010904//EN"
 "http://www.w3.org/TR/2001/REC-SVG-20010904/DTD/svg10.dtd">
<svg version="1.0" xmlns="http://www.w3.org/2000/svg"
 width="512.000000pt" height="512.000000pt" viewBox="0 0 512.000000 512.000000"
 preserveAspectRatio="xMidYMid meet">
<metadata>
Created by potrace 1.15, written by Peter Selinger 2001-2017
</metadata>
<g transform="translate(0.000000,512.000000) scale(0.100000,-0.100000)"
fill="#000000" stroke="none">
<path d="M625 4141 c-179 -52 -324 -173 -403 -336 -65 -132 -62 -77 -62 -1245
0 -1189 -4 -1116 73 -1265 56 -108 154 -206 263 -263 142 -73 124 -72 906 -72
l698 0 29 -57 c58 -116 157 -201 279 -242 85 -29 220 -29 304 0 122 41 234
139 280 246 l23 53 700 0 c785 0 767 -1 909 72 154 80 281 243 321 409 22 96
22 2142 0 2238 -61 258 -327 481 -574 481 l-51 0 0 -165 0 -165 38 0 c51 0
152 -51 193 -98 18 -20 44 -61 58 -92 l26 -55 0 -1025 0 -1025 -33 -67 c-37
-76 -82 -120 -162 -157 l-55 -26 -831 -3 -831 -3 -5 -98 c-4 -74 -10 -107 -24
-132 -62 -106 -206 -106 -268 0 -14 25 -20 58 -24 132 l-5 98 -831 3 -831 3
-67 33 c-76 37 -120 82 -157 162 l-26 55 0 1025 0 1025 26 55 c14 31 40 72 58
92 41 47 142 98 193 98 l38 0 0 165 0 165 -57 -1 c-32 0 -85 -8 -118 -18z"/>
</g>
</svg>
