<?xml version="1.0" standalone="no"?>
<!DOCTYPE svg PUBLIC "-//W3C//DTD SVG 20010904//EN"
 "http://www.w3.org/TR/2001/REC-SVG-20010904/DTD/svg10.dtd">
<svg version="1.0" xmlns="http://www.w3.org/2000/svg"
 width="512.000000pt" height="512.000000pt" viewBox="0 0 512.000000 512.000000"
 preserveAspectRatio="xMidYMid meet">
<metadata>
Created by potrace 1.15, written by Peter Selinger 2001-2017
</metadata>
<g transform="translate(0.000000,512.000000) scale(0.100000,-0.100000)"
fill="#000000" stroke="none">
<path d="M240 5023 c-34 -54 -130 -144 -177 -166 -32 -14 -29 -23 18 -53 61
-38 124 -99 159 -155 18 -27 35 -49 39 -49 3 0 15 16 25 35 26 49 101 124 164
167 l53 36 -45 26 c-56 33 -125 102 -167 166 -18 28 -33 50 -33 50 -1 0 -17
-26 -36 -57z"/>
<path d="M2404 4889 c-366 -33 -716 -191 -983 -445 -585 -556 -688 -1422 -251
-2103 28 -44 63 -90 77 -101 26 -20 69 -26 89 -12 13 8 34 46 34 60 0 5 -30
54 -66 108 -109 162 -171 300 -217 479 -26 99 -47 229 -47 286 l0 29 1516 0
1517 0 -6 -77 c-20 -235 -110 -488 -252 -704 -41 -63 -65 -110 -65 -128 0 -56
70 -81 111 -40 71 71 214 342 263 496 59 189 70 271 70 508 0 191 -3 234 -22
325 -113 521 -437 936 -905 1160 -201 96 -369 142 -585 160 -130 11 -148 11
-278 -1z m96 -419 l0 -300 -280 0 c-154 0 -280 3 -280 8 1 18 102 217 141 274
95 141 231 254 355 297 32 11 60 20 62 21 1 0 2 -135 2 -300z m287 238 c119
-67 240 -208 331 -385 28 -55 56 -112 61 -127 l11 -26 -280 0 -280 0 0 299 0
300 53 -15 c28 -9 76 -29 104 -46z m-719 -55 c-84 -91 -190 -267 -253 -421
l-23 -57 -222 -3 -222 -2 48 56 c128 149 311 292 490 383 77 39 199 89 218 91
5 0 -11 -21 -36 -47z m1177 -52 c170 -83 371 -243 478 -380 l49 -61 -222 2
-221 3 -39 93 c-66 156 -142 280 -236 381 l-56 60 74 -25 c40 -13 118 -46 173
-73z m-1499 -578 c-16 -53 -56 -241 -70 -328 -13 -83 -36 -322 -36 -371 0 -12
-55 -14 -301 -14 l-302 0 7 73 c16 179 84 399 173 569 l47 88 243 0 c228 0
244 -1 239 -17z m754 -348 l0 -365 -360 0 -360 0 0 49 c0 138 42 419 87 584
l27 97 303 0 303 0 0 -365z m734 356 c3 -5 19 -61 36 -124 33 -130 65 -340 76
-494 l7 -103 -362 0 -361 0 0 365 0 365 299 0 c165 0 302 -4 305 -9z m679
-101 c88 -172 157 -421 157 -566 l0 -54 -299 0 -298 0 -7 108 c-11 179 -37
360 -70 495 l-32 127 247 0 247 0 55 -110z"/>
<path d="M4813 4004 c-39 -61 -92 -112 -162 -157 l-53 -35 33 -18 c47 -24 143
-118 180 -176 18 -27 35 -46 38 -41 4 4 24 34 45 66 33 48 106 115 175 158 14
9 14 11 -3 22 -80 52 -152 123 -207 206 l-15 24 -31 -49z"/>
<path d="M2484 3070 c-104 -21 -202 -93 -252 -187 -101 -191 -27 -425 166
-520 51 -25 67 -28 162 -28 95 0 111 3 162 28 324 159 259 640 -94 707 -58 11
-86 11 -144 0z m141 -131 c131 -37 208 -174 170 -304 -54 -186 -288 -239 -419
-95 -161 178 17 463 249 399z"/>
<path d="M1691 2805 c-70 -20 -111 -46 -160 -101 -99 -113 -104 -289 -11 -412
l39 -51 -42 -25 c-52 -30 -124 -106 -159 -166 -44 -76 -59 -144 -65 -301 -7
-173 1 -247 30 -291 27 -41 99 -78 149 -78 l38 0 0 -229 c0 -195 2 -232 16
-245 13 -14 51 -16 258 -16 223 0 244 2 259 18 15 16 17 47 17 221 0 181 2
202 16 197 9 -3 42 -6 75 -6 l59 0 0 -260 0 -260 -1060 0 c-1047 0 -1060 0
-1080 -20 -24 -24 -26 -72 -5 -94 9 -8 30 -18 48 -21 18 -3 1131 -4 2473 -3
2385 3 2442 3 2463 22 27 24 27 70 1 96 -20 20 -33 20 -1085 20 l-1065 0 0
260 0 260 59 0 c33 0 66 3 75 6 14 5 16 -17 16 -205 0 -198 1 -212 20 -231 19
-19 33 -20 258 -20 219 0 240 2 255 18 15 16 17 49 17 249 l0 231 59 4 c74 5
122 38 146 102 15 38 17 72 13 233 -4 158 -8 197 -26 245 -39 108 -108 194
-204 254 l-40 26 30 31 c53 54 77 121 77 212 0 66 -5 90 -26 135 -32 66 -86
123 -154 158 -44 24 -62 27 -145 27 -84 0 -101 -3 -146 -27 -68 -36 -138 -115
-160 -181 -11 -31 -18 -81 -18 -124 1 -61 6 -82 33 -138 57 -115 136 -161 318
-184 158 -20 270 -109 314 -252 15 -49 19 -91 19 -218 0 -172 -3 -181 -57
-181 l-33 0 0 59 c0 70 -15 91 -65 91 -65 0 -65 2 -65 -341 l0 -309 -40 0 -40
0 0 229 c0 191 -3 232 -15 245 -24 23 -52 28 -82 14 l-28 -13 -3 -238 -2 -237
-45 0 -44 0 -3 463 c-3 445 -4 464 -25 527 -41 120 -117 226 -227 313 -44 34
-55 38 -90 34 -23 -2 -70 -17 -106 -32 -121 -52 -275 -44 -386 21 -22 13 -50
24 -61 24 -29 0 -129 -76 -186 -141 -66 -75 -124 -195 -142 -294 -11 -61 -14
-182 -15 -497 l0 -418 -40 0 -40 0 0 223 c0 180 -3 227 -15 244 -18 26 -59 37
-85 23 -19 -10 -20 -22 -20 -240 l0 -230 -45 0 -45 0 0 309 c0 309 0 310 -22
325 -28 20 -58 20 -86 0 -19 -13 -22 -24 -22 -80 0 -64 0 -64 -28 -64 -55 0
-62 21 -62 181 0 165 14 238 61 311 66 102 157 154 297 168 49 5 110 18 135
29 65 28 132 93 164 160 23 47 27 69 27 141 0 72 -4 93 -27 142 -69 141 -234
215 -386 173z m1707 -131 c104 -43 159 -161 118 -257 -29 -70 -112 -127 -185
-127 -81 1 -170 71 -191 151 -40 149 118 292 258 233z m-1522 -13 c101 -46
147 -173 96 -266 -31 -58 -112 -105 -182 -105 -112 0 -190 79 -190 193 0 139
149 235 276 178z m473 -478 c55 -22 85 -27 186 -31 115 -4 125 -3 213 27 l92
32 40 -33 c50 -41 112 -130 141 -206 20 -51 23 -79 27 -250 2 -106 1 -204 -2
-218 -8 -30 -58 -54 -111 -54 l-35 0 0 94 c0 87 -2 96 -22 110 -12 9 -32 16
-43 16 -11 0 -31 -7 -43 -16 l-22 -15 0 -415 0 -414 -70 0 -70 0 0 263 c0 300
-2 307 -70 307 -69 0 -70 -6 -70 -312 l0 -268 -75 0 -75 0 0 419 0 420 -22 15
c-31 22 -64 20 -88 -4 -17 -17 -20 -33 -20 -111 l0 -92 -52 5 c-40 4 -57 11
-75 32 -22 26 -23 34 -23 190 0 195 9 248 56 345 34 69 136 191 159 191 5 0
38 -12 74 -27z"/>
<path d="M4498 1725 c-23 -38 -83 -92 -121 -109 -7 -3 0 -14 18 -28 40 -30
107 -98 122 -123 12 -20 12 -20 24 0 15 25 108 116 132 130 16 9 12 14 -30 45
-26 19 -61 56 -78 82 -16 26 -32 47 -35 47 -3 0 -17 -19 -32 -44z"/>
<path d="M244 1252 c-17 -26 -54 -63 -82 -83 l-52 -36 46 -29 c26 -16 63 -53
84 -82 l39 -53 14 28 c19 36 84 101 120 120 l28 14 -53 39 c-29 21 -66 59 -82
84 -16 25 -29 46 -30 45 -1 0 -15 -21 -32 -47z"/>
<path d="M810 483 c-50 -19 -68 -84 -32 -116 17 -16 155 -17 1780 -17 1749 0
1762 0 1782 20 26 26 26 72 -1 96 -21 19 -65 19 -1768 21 -960 1 -1753 -1
-1761 -4z"/>
<path d="M1410 150 c-23 -23 -26 -68 -6 -96 14 -18 35 -19 738 -22 398 -1 733
0 745 3 34 8 53 33 53 70 0 68 38 65 -777 65 -720 0 -733 0 -753 -20z"/>
<path d="M3140 150 c-25 -25 -26 -61 -1 -91 l19 -24 265 0 c246 0 266 1 286
19 27 24 27 70 1 96 -19 19 -33 20 -285 20 -252 0 -266 -1 -285 -20z"/>
</g>
</svg>
