<?xml version="1.0" standalone="no"?>
<!DOCTYPE svg PUBLIC "-//W3C//DTD SVG 20010904//EN"
 "http://www.w3.org/TR/2001/REC-SVG-20010904/DTD/svg10.dtd">
<svg version="1.0" xmlns="http://www.w3.org/2000/svg"
 width="512.000000pt" height="512.000000pt" viewBox="0 0 512.000000 512.000000"
 preserveAspectRatio="xMidYMid meet">
<metadata>
Created by potrace 1.15, written by Peter Selinger 2001-2017
</metadata>
<g transform="translate(0.000000,512.000000) scale(0.100000,-0.100000)"
fill="#000000" stroke="none">
<path d="M240 5023 c-34 -54 -130 -144 -177 -166 -32 -14 -29 -23 18 -53 61
-38 124 -99 159 -155 18 -27 35 -49 39 -49 3 0 15 16 25 35 26 49 101 124 164
167 l53 36 -45 26 c-56 33 -125 102 -167 166 -18 28 -33 50 -33 50 -1 0 -17
-26 -36 -57z"/>
<path d="M3960 4899 c-13 -17 -20 -17 -60 -8 -73 18 -321 5 -408 -20 -324 -94
-567 -343 -659 -674 -25 -90 -25 -355 0 -452 23 -85 102 -253 150 -315 l34
-45 -63 -175 c-35 -96 -64 -181 -64 -190 0 -28 30 -60 56 -60 13 0 111 36 216
80 l192 80 41 -16 c103 -42 172 -56 304 -61 87 -4 158 -1 204 7 552 99 897
662 730 1194 -82 262 -283 485 -525 582 -35 14 -79 41 -98 59 -34 32 -36 33
-50 14z m-22 -150 c274 -70 493 -289 574 -574 32 -114 32 -297 -1 -410 -99
-349 -414 -594 -766 -598 -119 -1 -190 13 -306 59 l-86 35 -139 -60 c-76 -33
-140 -58 -142 -57 -1 2 18 55 43 119 25 63 45 124 45 135 0 11 -23 50 -51 88
-65 87 -132 228 -153 321 -59 266 32 556 234 746 202 192 481 264 748 196z"/>
<path d="M3296 4328 c-9 -12 -16 -32 -16 -43 0 -11 7 -31 16 -43 l15 -22 428
0 c402 0 429 1 444 18 21 23 22 76 1 96 -14 14 -68 16 -444 16 l-429 0 -15
-22z"/>
<path d="M3145 4015 c-14 -13 -25 -33 -25 -45 0 -11 11 -32 25 -45 l24 -25
576 0 c562 0 575 0 595 20 11 11 20 33 20 50 0 17 -9 39 -20 50 -20 20 -33 20
-595 20 l-576 0 -24 -25z"/>
<path d="M3297 3692 c-22 -25 -21 -75 1 -95 17 -15 62 -17 444 -17 399 0 426
1 441 18 21 23 22 76 1 96 -14 14 -68 16 -443 16 -402 0 -429 -1 -444 -18z"/>
<path d="M2205 4181 c-588 -69 -1021 -441 -1136 -976 -13 -59 -22 -151 -26
-270 l-6 -180 -145 -325 c-132 -296 -145 -330 -146 -385 -1 -71 19 -112 77
-159 37 -30 44 -31 143 -34 l104 -4 0 -279 c0 -255 2 -283 19 -317 22 -42 43
-63 88 -86 27 -14 73 -16 303 -16 l270 0 0 -180 0 -180 -839 0 c-734 0 -841
-2 -855 -15 -23 -24 -28 -52 -14 -82 l13 -28 2482 -3 c2246 -2 2483 -1 2497
14 18 18 21 76 6 105 -10 19 -31 19 -915 19 l-903 0 -7 32 c-13 57 -7 330 9
435 40 264 130 518 283 799 110 201 162 375 185 618 l12 129 -28 23 c-33 29
-46 30 -78 4 -22 -17 -26 -29 -32 -112 -8 -114 -39 -266 -74 -372 -14 -44 -69
-166 -122 -271 -144 -284 -209 -466 -262 -730 -19 -94 -23 -143 -23 -332 l0
-223 -592 0 -592 0 -3 226 c-3 224 -3 226 -27 245 -22 18 -43 19 -321 19 -278
0 -299 1 -321 19 l-24 19 -3 314 c-3 379 11 348 -158 348 -103 0 -115 2 -140
23 -16 14 -26 33 -26 49 0 14 64 171 143 349 l143 324 7 190 c9 265 49 419
153 595 217 368 682 588 1142 540 106 -11 117 -10 135 6 20 18 25 59 10 82 -4
7 -26 17 -47 22 -58 14 -279 20 -359 11z"/>
<path d="M4824 3628 c-25 -48 -112 -136 -173 -176 l-54 -35 34 -18 c53 -27
133 -102 174 -164 20 -30 38 -55 40 -55 3 0 12 14 21 32 24 46 108 132 165
169 27 17 49 34 49 38 0 3 -15 15 -34 25 -46 24 -121 100 -164 164 -19 28 -36
52 -38 52 -2 0 -11 -14 -20 -32z"/>
<path d="M4498 1725 c-23 -38 -83 -92 -121 -109 -8 -4 -5 -10 8 -18 27 -17
117 -108 132 -133 l12 -20 12 20 c15 25 108 116 132 130 16 9 12 14 -30 45
-26 19 -61 56 -78 82 -16 26 -32 47 -35 47 -3 0 -17 -19 -32 -44z"/>
<path d="M244 1252 c-17 -26 -54 -63 -82 -83 l-52 -36 46 -29 c26 -16 63 -53
84 -82 l39 -53 14 28 c19 36 84 101 120 120 l28 14 -53 39 c-29 21 -66 59 -82
84 -16 25 -29 46 -30 45 -1 0 -15 -21 -32 -47z"/>
<path d="M810 483 c-50 -19 -68 -84 -32 -116 17 -16 155 -17 1780 -17 1749 0
1762 0 1782 20 26 26 26 72 -1 96 -21 19 -65 19 -1768 21 -960 1 -1753 -1
-1761 -4z"/>
<path d="M1410 150 c-23 -23 -26 -68 -6 -96 14 -18 35 -19 738 -22 398 -1 733
0 745 3 34 8 53 33 53 70 0 68 38 65 -777 65 -720 0 -733 0 -753 -20z"/>
<path d="M3140 150 c-25 -25 -26 -61 -1 -91 l19 -24 265 0 c246 0 266 1 286
19 27 24 27 70 1 96 -19 19 -33 20 -285 20 -252 0 -266 -1 -285 -20z"/>
</g>
</svg>
