<?xml version="1.0" standalone="no"?>
<!DOCTYPE svg PUBLIC "-//W3C//DTD SVG 20010904//EN"
 "http://www.w3.org/TR/2001/REC-SVG-20010904/DTD/svg10.dtd">
<svg version="1.0" xmlns="http://www.w3.org/2000/svg"
 width="512.000000pt" height="512.000000pt" viewBox="0 0 512.000000 512.000000"
 preserveAspectRatio="xMidYMid meet">
<metadata>
Created by potrace 1.15, written by Peter Selinger 2001-2017
</metadata>
<g transform="translate(0.000000,512.000000) scale(0.100000,-0.100000)"
fill="#000000" stroke="none">
<path d="M2180 5020 c-18 -18 -20 -33 -20 -160 l0 -140 -60 0 c-47 0 -64 -4
-80 -20 -20 -20 -20 -33 -20 -700 0 -667 0 -680 20 -700 16 -16 33 -20 80 -20
l60 0 0 -400 0 -400 -105 0 c-163 0 -188 -13 -360 -181 l-142 -139 -256 0
-257 0 0 60 c0 107 32 100 -480 100 -427 0 -441 -1 -460 -20 -20 -20 -20 -33
-20 -780 0 -747 0 -760 20 -780 19 -19 33 -20 460 -20 512 0 480 -7 480 100
l0 60 262 0 261 0 136 -102 c170 -127 196 -138 346 -138 l115 0 0 -158 c0
-157 0 -160 30 -220 59 -117 162 -182 290 -182 128 0 231 65 290 182 l30 61 0
199 0 198 310 0 c345 0 349 1 419 71 87 86 97 227 23 312 -14 15 -14 19 0 35
65 74 65 210 0 285 -14 15 -14 19 0 35 65 74 65 210 0 285 -14 15 -14 19 0 35
52 58 65 170 28 241 -25 49 -72 96 -121 121 -34 18 -59 20 -231 20 l-193 0 3
69 c3 54 -1 77 -17 109 -39 77 -127 142 -191 142 l-30 0 0 400 0 400 61 0 61
0 96 96 97 95 5 -173 c5 -189 10 -207 71 -267 96 -97 242 -97 338 0 50 50 71
100 71 171 0 71 13 128 32 140 17 10 79 10 96 0 25 -16 32 -81 32 -300 0 -202
2 -226 20 -261 79 -156 269 -190 389 -70 50 50 71 100 71 171 0 71 13 128 32
140 17 10 79 10 96 0 26 -17 32 -84 32 -340 0 -241 2 -266 20 -301 79 -156
269 -190 389 -70 18 17 41 49 51 70 19 36 20 61 20 484 l0 446 22 -15 c32 -23
94 -20 118 4 19 19 20 33 20 244 0 248 -11 333 -60 469 -111 304 -367 555
-665 655 -151 51 -170 52 -865 52 l-650 0 0 140 c0 196 29 180 -320 180 -267
0 -281 -1 -300 -20z m460 -220 l0 -80 -160 0 -160 0 0 80 0 80 160 0 160 0 0
-80z m160 -400 l0 -160 -320 0 -320 0 0 160 0 160 320 0 320 0 0 -160z m1350
136 c189 -44 325 -119 461 -255 173 -174 246 -344 264 -620 l7 -103 -58 48
c-183 149 -427 258 -674 300 -121 21 -416 15 -529 -11 -212 -47 -428 -148
-586 -272 -27 -21 -56 -42 -62 -47 -10 -6 -13 95 -13 489 l0 497 558 -5 c482
-3 567 -6 632 -21z m-1350 -536 l0 -80 -320 0 -320 0 0 80 0 80 320 0 320 0 0
-80z m0 -400 l0 -160 -320 0 -320 0 0 160 0 160 320 0 320 0 0 -160z m1340
133 c52 -8 129 -26 170 -40 101 -32 260 -113 343 -173 l67 -50 0 -488 c0 -289
-4 -501 -10 -521 -12 -42 -24 -51 -70 -51 -75 0 -80 20 -80 348 0 241 -2 266
-20 301 -79 156 -269 190 -389 70 -50 -50 -71 -100 -71 -171 0 -71 -13 -128
-32 -140 -17 -10 -79 -10 -96 0 -25 16 -32 81 -32 300 0 202 -2 226 -20 261
-79 156 -269 190 -389 70 -50 -50 -71 -100 -71 -171 0 -71 -13 -128 -32 -140
-17 -10 -79 -10 -96 0 -24 16 -32 79 -32 263 l0 186 98 46 c240 113 491 146
762 100z m-1500 -853 l0 -400 -160 0 -160 0 0 400 0 400 160 0 160 0 0 -400z
m179 -570 c19 -5 38 -15 43 -22 10 -17 10 -79 0 -96 -17 -27 -86 -32 -411 -32
l-335 0 -170 -170 -171 -170 62 -62 63 -63 130 130 130 130 0 -579 0 -579 -98
5 c-53 3 -108 10 -121 17 -13 8 -86 60 -163 117 l-139 104 -300 0 -299 0 0
220 c0 282 16 260 -197 260 l-157 0 177 178 177 178 0 62 0 62 302 0 302 0
152 151 c127 126 159 153 191 159 58 12 793 12 832 0z m-1939 -247 l0 -97
-240 -241 c-237 -238 -240 -241 -240 -283 0 -29 6 -48 20 -62 19 -19 33 -20
240 -20 l220 0 0 -240 0 -240 -320 0 -320 0 0 640 0 640 320 0 320 0 0 -97z
m1602 -124 c-5 -74 0 -95 33 -143 23 -34 24 -40 12 -55 -64 -73 -64 -210 1
-283 14 -16 14 -20 0 -35 -33 -38 -48 -83 -48 -143 0 -60 15 -105 48 -142 14
-16 14 -20 0 -35 -52 -59 -65 -171 -28 -242 23 -46 71 -96 112 -117 l30 -16
-4 -186 c-3 -154 -7 -193 -21 -220 -26 -48 -71 -72 -137 -72 -65 0 -111 24
-137 72 -17 31 -18 86 -21 856 l-3 822 83 0 83 0 -3 -61z m897 51 c19 -5 38
-15 43 -22 10 -17 10 -79 0 -96 -17 -26 -85 -32 -382 -32 -297 0 -365 6 -382
32 -10 17 -10 79 1 96 4 7 21 17 37 22 41 12 641 12 683 0z m0 -320 c19 -5 38
-15 43 -22 10 -17 10 -79 0 -96 -17 -26 -85 -32 -382 -32 -297 0 -365 6 -382
32 -10 17 -10 79 1 96 4 7 21 17 37 22 41 12 641 12 683 0z m0 -320 c19 -5 38
-15 43 -22 10 -17 10 -79 0 -96 -17 -26 -85 -32 -382 -32 -297 0 -365 6 -382
32 -10 17 -10 79 1 96 4 7 21 17 37 22 41 12 641 12 683 0z m0 -320 c19 -5 38
-15 43 -22 10 -17 10 -79 0 -96 -17 -26 -85 -32 -382 -32 -297 0 -365 6 -382
32 -10 17 -10 79 1 96 4 7 21 17 37 22 41 12 641 12 683 0z"/>
<path d="M4560 1760 l0 -320 80 0 80 0 0 320 0 320 -80 0 -80 0 0 -320z"/>
<path d="M4560 1200 l0 -80 80 0 80 0 0 80 0 80 -80 0 -80 0 0 -80z"/>
</g>
</svg>
