<?xml version="1.0" standalone="no"?>
<!DOCTYPE svg PUBLIC "-//W3C//DTD SVG 20010904//EN"
 "http://www.w3.org/TR/2001/REC-SVG-20010904/DTD/svg10.dtd">
<svg version="1.0" xmlns="http://www.w3.org/2000/svg"
 width="512.000000pt" height="512.000000pt" viewBox="0 0 512.000000 512.000000"
 preserveAspectRatio="xMidYMid meet">
<metadata>
Created by potrace 1.15, written by Peter Selinger 2001-2017
</metadata>
<g transform="translate(0.000000,512.000000) scale(0.100000,-0.100000)"
fill="#000000" stroke="none">
<path d="M240 5023 c-34 -54 -130 -144 -177 -166 -32 -14 -29 -23 18 -53 61
-38 124 -99 159 -155 18 -27 35 -49 39 -49 3 0 15 16 25 35 26 49 101 124 164
167 l53 36 -45 26 c-56 33 -125 102 -167 166 -18 28 -33 50 -33 50 -1 0 -17
-26 -36 -57z"/>
<path d="M2413 4876 c-203 -77 -325 -283 -293 -493 15 -95 67 -198 133 -260
l53 -50 -61 -31 c-171 -90 -297 -250 -346 -440 -17 -69 -19 -113 -19 -506 0
-428 0 -431 23 -471 12 -21 42 -53 65 -70 39 -27 53 -30 128 -34 l83 -3 3
-574 c3 -642 -1 -608 74 -608 67 0 64 -41 64 771 0 720 0 733 -20 753 -20 20
-65 26 -87 12 -22 -14 -33 -63 -33 -149 l0 -85 -60 4 c-45 3 -66 10 -85 28
l-25 23 0 412 c0 453 2 474 63 589 17 34 63 93 102 132 111 113 240 167 395
168 258 0 485 -181 545 -435 12 -51 15 -141 15 -457 0 -263 -4 -400 -11 -414
-14 -27 -69 -48 -124 -48 l-45 0 0 100 c0 113 -14 140 -69 140 -64 0 -61 44
-61 -774 0 -826 -5 -770 67 -770 65 0 63 -23 63 611 l0 573 75 0 c84 0 120 13
172 63 63 59 65 78 60 549 -3 367 -6 431 -21 483 -53 178 -173 330 -332 419
l-69 39 55 56 c144 148 172 374 67 553 -38 65 -128 145 -204 181 -61 28 -79
32 -173 34 -90 3 -114 0 -167 -21z m281 -140 c171 -79 239 -283 149 -448 -121
-222 -445 -222 -566 0 -70 129 -49 275 55 381 99 99 237 125 362 67z"/>
<path d="M3707 4563 l-159 -158 7 71 c6 65 5 73 -17 99 -20 23 -29 26 -56 20
-18 -3 -37 -15 -42 -25 -12 -23 -36 -350 -27 -373 13 -33 50 -37 229 -23 157
13 174 16 190 36 23 29 23 62 0 83 -14 13 -38 17 -97 17 l-78 0 151 154 c129
132 152 159 152 185 0 38 -31 71 -67 71 -21 0 -60 -33 -186 -157z"/>
<path d="M1170 4690 c-44 -44 -31 -64 138 -227 l157 -152 -81 -1 c-65 0 -84
-4 -97 -18 -22 -24 -21 -54 1 -82 16 -20 33 -23 192 -36 96 -8 183 -11 193 -8
10 3 22 16 27 28 12 32 -16 367 -32 382 -25 24 -63 26 -88 6 -22 -18 -24 -26
-22 -97 l3 -78 -160 151 c-170 161 -190 173 -231 132z"/>
<path d="M4813 4004 c-39 -61 -92 -112 -162 -157 l-53 -35 33 -18 c47 -24 143
-118 180 -176 18 -27 35 -46 38 -41 4 4 24 34 45 66 33 48 106 115 175 158 14
9 14 11 -3 22 -80 52 -152 123 -207 206 l-15 24 -31 -49z"/>
<path d="M1430 2629 c-124 -11 -139 -15 -152 -44 -29 -64 19 -100 121 -89 l66
7 -102 -109 c-56 -60 -124 -131 -152 -159 -41 -39 -51 -56 -51 -82 0 -35 29
-63 65 -63 12 0 78 59 178 158 l158 157 -2 -70 c-1 -39 1 -80 5 -93 13 -40 98
-42 111 -2 4 11 12 93 20 183 17 213 17 212 -90 213 -44 1 -123 -2 -175 -7z"/>
<path d="M3428 2629 c-22 -12 -23 -73 -7 -254 12 -137 26 -165 85 -165 50 0
62 25 56 118 l-4 77 159 -157 c99 -99 166 -158 178 -158 36 0 65 28 65 63 0
28 -20 52 -157 190 l-158 159 76 -7 c70 -7 79 -5 98 14 26 26 27 62 4 89 -15
18 -37 22 -152 31 -164 13 -221 13 -243 0z"/>
<path d="M2510 2420 c-19 -19 -20 -33 -20 -529 0 -470 1 -510 18 -529 29 -35
67 -38 96 -8 l26 25 0 504 c0 495 0 505 -21 531 -25 32 -70 35 -99 6z"/>
<path d="M1875 2101 c-362 -99 -618 -269 -722 -477 -37 -77 -38 -80 -38 -193
0 -111 2 -119 33 -183 81 -165 254 -309 493 -408 l94 -39 -823 -1 c-808 0
-822 0 -842 -20 -24 -24 -26 -72 -5 -94 9 -8 30 -18 48 -21 18 -3 1131 -4
2473 -3 2385 3 2442 3 2463 22 27 24 27 70 1 96 -20 20 -33 20 -842 20 l-823
0 80 34 c253 104 421 239 502 402 37 77 38 80 38 193 0 138 -16 188 -96 294
-118 157 -351 291 -647 372 -135 38 -163 36 -184 -11 -10 -21 -9 -31 2 -52 13
-21 37 -32 145 -64 232 -69 392 -150 505 -255 85 -78 125 -141 146 -225 15
-59 15 -70 0 -128 -69 -269 -457 -477 -1026 -551 -122 -16 -458 -16 -580 0
-413 54 -710 168 -897 344 -70 66 -110 130 -129 209 -15 59 -15 70 0 128 51
200 279 368 646 476 125 36 160 57 160 94 0 23 -29 57 -55 63 -11 3 -65 -7
-120 -22z"/>
<path d="M1887 1761 c-180 -90 -267 -196 -267 -327 0 -190 205 -347 555 -424
280 -61 661 -45 916 40 182 60 337 171 385 275 64 136 2 285 -163 391 -62 40
-158 84 -184 84 -46 0 -79 -81 -44 -110 8 -6 46 -27 84 -45 124 -60 211 -163
195 -232 -27 -119 -220 -230 -496 -285 -149 -29 -461 -32 -607 -5 -286 54
-499 173 -518 289 -12 76 62 159 201 229 44 22 86 45 93 51 20 16 16 65 -7 88
-28 28 -54 25 -143 -19z"/>
<path d="M4498 1725 c-23 -38 -83 -92 -121 -109 -7 -3 0 -14 18 -28 40 -30
107 -98 122 -123 12 -20 12 -20 24 0 15 25 108 116 132 130 16 9 12 14 -30 45
-26 19 -61 56 -78 82 -16 26 -32 47 -35 47 -3 0 -17 -19 -32 -44z"/>
<path d="M244 1252 c-17 -26 -54 -63 -82 -83 l-52 -36 46 -29 c26 -16 63 -53
84 -82 l39 -53 14 28 c19 36 84 101 120 120 l28 14 -53 39 c-29 21 -66 59 -82
84 -16 25 -29 46 -30 45 -1 0 -15 -21 -32 -47z"/>
<path d="M810 483 c-50 -19 -68 -84 -32 -116 17 -16 155 -17 1780 -17 1749 0
1762 0 1782 20 26 26 26 72 -1 96 -21 19 -65 19 -1768 21 -960 1 -1753 -1
-1761 -4z"/>
<path d="M1410 150 c-23 -23 -26 -68 -6 -96 14 -18 35 -19 738 -22 398 -1 733
0 745 3 34 8 53 33 53 70 0 68 38 65 -777 65 -720 0 -733 0 -753 -20z"/>
<path d="M3140 150 c-25 -25 -26 -61 -1 -91 l19 -24 265 0 c246 0 266 1 286
19 27 24 27 70 1 96 -19 19 -33 20 -285 20 -252 0 -266 -1 -285 -20z"/>
</g>
</svg>
