<?xml version="1.0" standalone="no"?>
<!DOCTYPE svg PUBLIC "-//W3C//DTD SVG 20010904//EN"
 "http://www.w3.org/TR/2001/REC-SVG-20010904/DTD/svg10.dtd">
<svg version="1.0" xmlns="http://www.w3.org/2000/svg"
 width="512.000000pt" height="512.000000pt" viewBox="0 0 512.000000 512.000000"
 preserveAspectRatio="xMidYMid meet">
<metadata>
Created by potrace 1.15, written by Peter Selinger 2001-2017
</metadata>
<g transform="translate(0.000000,512.000000) scale(0.100000,-0.100000)"
fill="#000000" stroke="none">
<path d="M2495 4719 c-212 -20 -394 -165 -467 -373 -23 -68 -28 -97 -28 -184
0 -167 53 -295 171 -410 45 -44 154 -111 220 -134 28 -10 -1 -20 -112 -39
-662 -113 -1186 -641 -1300 -1310 -18 -107 -21 -150 -16 -319 6 -214 24 -316
87 -495 191 -537 670 -938 1234 -1035 253 -43 546 -21 786 59 559 187 971 666
1070 1245 27 160 27 391 0 549 -43 256 -145 489 -308 705 l-55 74 91 91 c91
91 91 91 112 72 21 -19 21 -19 143 103 l122 122 -123 122 -122 123 -122 -122
c-122 -122 -122 -122 -103 -143 19 -21 19 -21 -72 -112 l-91 -91 -89 65 c-212
156 -428 252 -663 293 -52 9 -105 19 -117 21 -13 2 -23 8 -23 12 0 4 36 24 80
45 105 49 204 142 253 235 52 100 67 161 67 276 0 85 -5 114 -28 182 -89 254
-319 398 -597 373z m225 -113 c72 -27 121 -60 181 -123 91 -95 129 -191 129
-324 0 -135 -50 -249 -149 -342 -40 -38 -136 -97 -156 -97 -3 0 -5 45 -5 100
l0 100 40 0 40 0 0 205 0 205 -240 0 -240 0 0 -205 0 -205 40 0 40 0 0 -100
c0 -55 -2 -100 -5 -100 -20 0 -116 59 -156 97 -160 150 -197 388 -89 578 32
56 116 140 171 173 114 68 274 83 399 38z m0 -481 l0 -115 -160 0 -160 0 0
115 0 115 160 0 160 0 0 -115z m-80 -360 l0 -155 -80 0 -80 0 0 155 0 155 80
0 80 0 0 -155z m1420 -270 l55 -55 -58 -58 -57 -57 -57 57 -58 58 55 55 c30
30 57 55 60 55 3 0 30 -25 60 -55z m-1364 11 c254 -16 539 -125 769 -295 126
-92 286 -265 377 -407 84 -130 168 -342 205 -514 26 -121 26 -459 0 -580 -37
-172 -121 -383 -205 -514 -113 -177 -300 -363 -478 -478 -78 -50 -226 -119
-328 -153 -180 -60 -248 -70 -476 -70 -228 0 -296 10 -476 70 -232 77 -431
203 -605 382 -210 215 -342 464 -406 763 -26 121 -26 459 0 580 37 172 121
384 205 514 117 182 297 362 478 478 130 83 345 169 509 203 81 17 266 33 320
28 17 -1 66 -4 111 -7z"/>
<path d="M2450 3278 c-306 -21 -593 -158 -816 -389 -182 -189 -295 -411 -339
-665 -20 -113 -19 -336 0 -450 30 -167 101 -344 202 -498 60 -91 248 -279 339
-339 228 -150 453 -217 724 -217 271 0 496 67 725 218 90 59 278 247 338 338
100 153 172 330 202 498 20 115 20 337 0 452 -44 251 -161 478 -342 665 -277
286 -621 415 -1033 387z m291 -98 c248 -36 480 -156 669 -349 157 -160 249
-321 307 -538 25 -90 27 -113 27 -293 0 -180 -2 -203 -27 -293 -60 -225 -151
-380 -317 -547 -167 -166 -322 -257 -547 -317 -90 -25 -113 -27 -293 -27 -180
0 -203 2 -293 27 -225 60 -380 151 -547 317 -166 167 -257 322 -317 547 -25
90 -27 113 -27 293 0 180 2 203 27 293 54 201 147 370 284 516 93 100 156 151
273 221 227 137 502 189 781 150z"/>
<path d="M2537 3112 c-14 -15 -17 -40 -17 -128 0 -78 -14 -211 -51 -468 -48
-334 -54 -363 -80 -405 -24 -37 -29 -56 -29 -110 0 -124 77 -201 200 -201 123
0 200 77 200 201 0 54 -5 73 -29 110 -26 42 -32 71 -80 405 -37 260 -51 390
-51 470 0 95 -3 113 -18 127 -23 21 -25 21 -45 -1z m76 -1014 c34 -13 57 -55
57 -104 0 -51 -53 -104 -105 -104 -123 0 -162 161 -51 211 39 17 45 17 99 -3z"/>
<path d="M1992 2968 c-19 -19 -14 -46 19 -109 34 -63 74 -109 94 -109 22 0 38
29 32 59 -8 39 -74 149 -97 161 -24 13 -33 13 -48 -2z"/>
<path d="M3062 2951 c-33 -34 -82 -130 -82 -158 0 -11 7 -26 15 -33 24 -20 56
3 94 65 44 72 58 120 41 140 -19 22 -39 18 -68 -14z"/>
<path d="M1590 2565 c-21 -26 3 -60 71 -100 34 -20 75 -39 90 -42 30 -6 59 10
59 32 0 20 -46 60 -109 94 -65 35 -92 38 -111 16z"/>
<path d="M3425 2552 c-79 -44 -93 -55 -106 -79 -9 -18 -9 -26 1 -38 20 -24 49
-18 128 26 78 43 105 77 82 104 -18 22 -48 18 -105 -13z"/>
<path d="M1486 2041 c-37 -8 -55 -34 -40 -58 16 -26 204 -32 228 -8 18 19 19
25 7 43 -16 26 -124 39 -195 23z"/>
<path d="M3481 2041 c-49 -13 -63 -38 -35 -65 20 -20 203 -23 222 -4 16 16 15
43 -2 57 -18 15 -141 23 -185 12z"/>
<path d="M1695 1554 c-104 -55 -133 -90 -101 -122 20 -20 65 -7 141 39 62 38
85 70 65 94 -18 22 -48 19 -105 -11z"/>
<path d="M3323 1574 c-41 -18 8 -78 100 -124 68 -34 89 -37 107 -15 21 26 -3
60 -72 100 -61 36 -110 50 -135 39z"/>
<path d="M2068 1225 c-35 -35 -90 -141 -86 -167 5 -33 30 -44 59 -24 38 24
104 155 95 189 -8 34 -35 35 -68 2z"/>
<path d="M2984 1226 c-8 -32 0 -55 43 -128 38 -65 72 -89 98 -68 22 18 19 39
-15 107 -51 102 -112 144 -126 89z"/>
<path d="M2535 1114 c-24 -24 -18 -212 8 -228 12 -8 22 -8 35 0 25 16 31 204
7 228 -9 9 -20 16 -25 16 -5 0 -16 -7 -25 -16z"/>
</g>
</svg>
