<?xml version="1.0" standalone="no"?>
<!DOCTYPE svg PUBLIC "-//W3C//DTD SVG 20010904//EN"
 "http://www.w3.org/TR/2001/REC-SVG-20010904/DTD/svg10.dtd">
<svg version="1.0" xmlns="http://www.w3.org/2000/svg"
 width="114.000000pt" height="141.000000pt" viewBox="0 0 114.000000 141.000000"
 preserveAspectRatio="xMidYMid meet">
<metadata>
Created by potrace 1.15, written by Peter Selinger 2001-2017
</metadata>
<g transform="translate(0.000000,141.000000) scale(0.100000,-0.100000)"
fill="#000000" stroke="none">
<path d="M473 884 c-26 -13 -33 -23 -33 -45 0 -34 9 -35 70 -14 61 21 99 7
100 -37 0 -15 -9 -18 -54 -18 -95 0 -150 -61 -125 -137 6 -18 20 -40 32 -48
28 -20 106 -19 135 1 12 8 22 10 22 5 0 -6 18 -11 41 -11 l41 0 -4 136 c-3
135 -3 136 -31 160 -24 20 -39 24 -95 24 -41 0 -80 -7 -99 -16z"/>
</g>
</svg>
