<?xml version="1.0" standalone="no"?>
<!DOCTYPE svg PUBLIC "-//W3C//DTD SVG 20010904//EN"
 "http://www.w3.org/TR/2001/REC-SVG-20010904/DTD/svg10.dtd">
<svg version="1.0" xmlns="http://www.w3.org/2000/svg"
 width="512.000000pt" height="512.000000pt" viewBox="0 0 512.000000 512.000000"
 preserveAspectRatio="xMidYMid meet">
<metadata>
Created by potrace 1.15, written by Peter Selinger 2001-2017
</metadata>
<g transform="translate(0.000000,512.000000) scale(0.100000,-0.100000)"
fill="#000000" stroke="none">
<path d="M213 4759 c-66 -26 -141 -92 -178 -161 l-30 -53 -3 -287 -3 -288 25
-25 c21 -21 34 -25 86 -25 l60 0 0 -1655 0 -1654 22 -58 c29 -79 112 -162 191
-191 l58 -22 1179 0 1179 0 58 22 c77 28 152 100 189 181 l29 62 3 1658 2
1657 55 0 c43 0 60 5 82 24 l28 24 3 246 c2 200 0 258 -13 309 -25 99 -86 176
-180 225 l-50 27 -1370 2 c-1350 2 -1371 2 -1422 -18z m297 -409 l0 -250 -165
0 -165 0 0 194 c0 184 1 195 23 227 44 66 77 79 198 79 l109 0 0 -250z m510 0
l0 -250 -165 0 -165 0 0 250 0 250 165 0 165 0 0 -250z m510 0 l0 -250 -165 0
-165 0 0 250 0 250 165 0 165 0 0 -250z m510 0 l0 -250 -165 0 -165 0 0 250 0
250 165 0 165 0 0 -250z m520 0 l0 -250 -170 0 -170 0 0 250 0 250 170 0 170
0 0 -250z m422 228 c75 -43 83 -67 86 -285 l4 -193 -166 0 -166 0 0 250 0 250
101 0 c86 0 107 -3 141 -22z m-82 -823 l0 -165 -1275 0 -1275 0 0 165 0 165
1275 0 1275 0 0 -165z m0 -1535 l0 -1190 -1275 0 -1275 0 0 1190 0 1190 1275
0 1275 0 0 -1190z m0 -1452 c0 -101 -14 -154 -48 -191 -57 -61 22 -57 -1235
-57 l-1154 0 -34 23 c-66 44 -79 77 -79 198 l0 109 1275 0 1275 0 0 -82z"/>
<path d="M705 3135 c-18 -18 -25 -35 -25 -65 0 -44 -9 -33 323 -377 l70 -71
-22 -30 c-91 -129 -136 -320 -107 -458 19 -92 46 -145 109 -211 l50 -53 -20
-23 c-10 -12 -93 -103 -184 -202 -90 -99 -177 -195 -192 -213 -33 -41 -35 -89
-6 -126 17 -21 29 -26 66 -26 41 0 50 4 86 43 21 23 120 131 220 240 99 108
186 196 191 194 7 -2 12 -79 14 -217 2 -204 3 -215 24 -237 21 -23 22 -23 315
-23 172 0 302 4 312 10 10 5 23 17 27 27 5 10 11 105 14 212 l5 194 228 -222
c225 -219 228 -221 270 -221 57 0 87 30 87 87 0 40 -4 45 -224 260 l-223 218
56 55 c90 88 141 207 141 326 0 115 -54 276 -126 376 -30 42 -33 53 -22 63 7
7 92 83 188 170 96 86 183 166 193 177 10 13 17 37 17 63 0 35 -5 48 -26 64
-37 29 -85 27 -126 -6 -18 -15 -105 -92 -193 -172 -88 -80 -170 -153 -181
-163 -21 -19 -22 -19 -71 11 -120 74 -285 110 -418 92 -121 -17 -202 -48 -308
-119 l-39 -26 -195 202 c-189 196 -196 202 -234 202 -29 0 -47 -7 -64 -25z
m1070 -439 c176 -63 312 -224 346 -408 27 -146 -21 -229 -199 -348 -63 -42
-117 -82 -123 -90 -5 -8 -9 -99 -9 -202 l0 -188 -164 0 -165 0 -3 189 c-3 215
-1 208 -95 262 -85 49 -168 115 -198 159 -66 95 -64 215 5 357 115 234 377
351 605 269z"/>
<path d="M1385 2365 c-22 -21 -25 -33 -25 -95 0 -102 24 -139 91 -140 26 0 44
7 63 26 24 24 26 34 26 106 0 70 -3 82 -25 103 -18 19 -35 25 -65 25 -30 0
-47 -6 -65 -25z"/>
<path d="M1742 2383 c-25 -10 -42 -62 -42 -128 0 -60 3 -69 29 -96 38 -38 91
-40 126 -4 22 22 25 32 25 105 0 73 -3 83 -25 105 -23 24 -77 33 -113 18z"/>
<path d="M3753 1330 c-22 -5 -60 -18 -84 -30 -59 -31 -349 -250 -384 -291 -83
-98 -105 -248 -53 -361 35 -75 94 -138 165 -174 52 -26 68 -29 153 -29 83 0
101 3 147 27 53 27 313 217 368 269 l30 28 0 -87 c1 -72 5 -96 27 -143 32 -69
89 -129 160 -166 l53 -28 256 -3 c239 -3 259 -2 312 18 70 26 144 91 182 162
28 49 30 60 30 158 0 91 -3 112 -24 155 -33 66 -100 131 -169 163 -56 26 -62
27 -289 30 -290 4 -339 -6 -433 -94 l-35 -33 0 87 c0 79 -3 94 -33 154 -39 80
-102 139 -178 168 -65 24 -144 32 -201 20z m152 -199 c70 -40 99 -125 69 -200
-17 -41 -39 -61 -188 -173 -180 -137 -208 -150 -279 -128 -108 32 -153 153
-92 246 23 35 327 261 366 273 41 11 83 5 124 -18z m941 -300 c57 -26 87 -72
92 -140 4 -65 -19 -109 -77 -148 -33 -22 -42 -23 -250 -23 -205 0 -218 1 -255
23 -57 31 -91 100 -81 162 8 55 61 120 109 134 17 5 119 10 226 10 170 0 200
-2 236 -18z"/>
</g>
</svg>
