<?xml version="1.0" standalone="no"?>
<!DOCTYPE svg PUBLIC "-//W3C//DTD SVG 20010904//EN"
 "http://www.w3.org/TR/2001/REC-SVG-20010904/DTD/svg10.dtd">
<svg version="1.0" xmlns="http://www.w3.org/2000/svg"
 width="512.000000pt" height="512.000000pt" viewBox="0 0 512.000000 512.000000"
 preserveAspectRatio="xMidYMid meet">
<metadata>
Created by potrace 1.15, written by Peter Selinger 2001-2017
</metadata>
<g transform="translate(0.000000,512.000000) scale(0.100000,-0.100000)"
fill="#000000" stroke="none">
<path d="M2132 4744 c-22 -15 -22 -18 -22 -273 l0 -257 -102 -23 c-143 -32
-241 -64 -396 -128 l-133 -55 -32 25 c-18 14 -120 95 -227 181 -162 130 -200
156 -223 154 -38 -4 -594 -443 -603 -476 -4 -13 -3 -31 2 -42 5 -10 105 -100
221 -200 179 -152 217 -181 240 -178 32 4 57 43 43 68 -5 9 -92 88 -194 175
l-185 158 237 189 c130 103 239 188 242 188 3 0 106 -81 230 -180 124 -99 233
-180 243 -180 10 0 44 13 77 30 148 75 343 141 535 181 55 11 105 25 112 31
10 8 13 71 13 264 l0 254 350 0 350 0 0 -254 c0 -193 3 -256 13 -264 7 -6 57
-20 112 -31 192 -40 387 -106 535 -181 33 -17 67 -30 77 -30 10 0 119 81 243
180 124 99 227 180 230 180 3 0 112 -85 242 -188 l237 -189 -185 -158 c-102
-87 -189 -166 -194 -175 -14 -25 11 -64 43 -68 23 -3 61 26 240 178 116 100
216 190 221 200 5 11 6 29 2 42 -9 33 -565 472 -603 476 -23 2 -61 -24 -223
-154 -107 -86 -209 -167 -227 -181 l-32 -25 -133 55 c-155 64 -253 96 -395
128 l-103 23 0 257 c0 255 0 258 -22 273 -19 14 -77 16 -428 16 -351 0 -409
-2 -428 -16z"/>
<path d="M2470 4395 l0 -95 90 0 90 0 0 95 0 95 -90 0 -90 0 0 -95z"/>
<path d="M2283 3795 c-507 -64 -968 -279 -1353 -628 -150 -137 -323 -344 -429
-514 l-50 -81 45 -73 c366 -594 993 -1017 1679 -1133 682 -116 1393 85 1945
550 194 164 409 416 524 615 l26 46 -76 114 c-347 523 -865 897 -1450 1045
-71 18 -177 40 -235 49 -145 23 -481 28 -626 10z m496 -365 c271 -77 482 -253
592 -495 57 -126 73 -206 74 -360 0 -168 -15 -235 -85 -381 -249 -517 -909
-668 -1355 -310 -142 114 -246 269 -301 451 -25 80 -28 106 -28 235 0 121 3
158 22 223 100 349 369 591 730 657 78 15 268 4 351 -20z"/>
<path d="M2495 3373 c-320 -29 -601 -247 -698 -540 -97 -294 -30 -592 182
-816 100 -106 219 -176 368 -219 112 -32 314 -32 426 0 239 69 420 223 522
445 151 331 55 730 -230 955 -155 122 -384 193 -570 175z m257 -395 c97 -48
168 -119 216 -216 33 -68 37 -84 40 -171 3 -78 0 -107 -17 -155 -59 -166 -192
-279 -366 -309 -164 -28 -351 57 -444 202 -55 85 -73 153 -69 262 3 87 7 103
40 170 58 117 149 197 273 242 38 13 74 17 151 15 93 -3 106 -6 176 -40z"/>
<path d="M2453 2926 c-104 -34 -185 -106 -232 -205 -22 -48 -26 -69 -26 -151
1 -83 4 -102 28 -152 137 -282 536 -284 673 -2 25 52 28 70 29 154 0 88 -3
101 -32 161 -63 128 -176 200 -318 206 -49 2 -96 -3 -122 -11z"/>
<path d="M818 1612 c-77 -48 -418 -330 -424 -349 -3 -12 -3 -30 0 -40 11 -30
570 -468 603 -471 23 -2 61 24 223 154 107 86 209 167 227 181 l32 25 133 -55
c155 -64 253 -96 396 -128 l102 -23 0 -257 c0 -255 0 -258 22 -273 19 -14 77
-16 428 -16 351 0 409 2 428 16 22 15 22 18 22 273 l0 257 103 23 c142 32 240
64 395 128 l133 55 32 -25 c18 -14 120 -95 227 -181 162 -130 200 -156 223
-154 37 4 594 443 603 475 3 12 3 30 -1 40 -9 27 -429 357 -459 361 -29 4 -61
-36 -52 -65 3 -10 91 -86 194 -168 l189 -150 -236 -187 c-130 -104 -238 -188
-241 -188 -3 0 -106 81 -230 180 -124 99 -233 180 -243 180 -10 0 -44 -13 -77
-30 -148 -75 -343 -141 -535 -181 -55 -11 -105 -25 -112 -31 -10 -8 -13 -71
-13 -264 l0 -254 -350 0 -350 0 0 254 c0 193 -3 256 -13 264 -7 6 -57 20 -112
31 -192 40 -387 106 -535 181 -33 17 -67 30 -77 30 -10 0 -119 -81 -243 -180
-124 -99 -227 -180 -230 -180 -3 0 -111 84 -241 188 l-236 187 188 150 c104
82 190 156 190 165 3 30 -3 45 -19 58 -21 16 -32 15 -64 -6z"/>
<path d="M2470 750 l0 -90 90 0 90 0 0 90 0 90 -90 0 -90 0 0 -90z"/>
</g>
</svg>
