<?xml version="1.0" standalone="no"?>
<!DOCTYPE svg PUBLIC "-//W3C//DTD SVG 20010904//EN"
 "http://www.w3.org/TR/2001/REC-SVG-20010904/DTD/svg10.dtd">
<svg version="1.0" xmlns="http://www.w3.org/2000/svg"
 width="512.000000pt" height="512.000000pt" viewBox="0 0 512.000000 512.000000"
 preserveAspectRatio="xMidYMid meet">
<metadata>
Created by potrace 1.15, written by Peter Selinger 2001-2017
</metadata>
<g transform="translate(0.000000,512.000000) scale(0.100000,-0.100000)"
fill="#000000" stroke="none">
<path d="M240 5023 c-34 -54 -130 -144 -177 -166 -32 -14 -29 -23 18 -53 61
-38 124 -99 159 -155 18 -27 35 -49 39 -49 3 0 15 16 25 35 26 49 101 124 164
167 l53 36 -45 26 c-56 33 -125 102 -167 166 -18 28 -33 50 -33 50 -1 0 -17
-26 -36 -57z"/>
<path d="M1855 4481 c-59 -27 -100 -65 -126 -118 -19 -41 -23 -69 -27 -190
l-4 -142 -432 -3 -431 -3 -57 -28 c-64 -32 -111 -80 -142 -146 -21 -45 -21
-59 -24 -707 -3 -654 -2 -661 18 -679 25 -23 76 -24 98 -1 16 15 17 72 22 674
6 733 0 681 77 739 l36 28 744 3 743 2 0 -805 0 -805 -60 0 c-75 0 -80 -8 -80
-129 l0 -91 -735 0 -735 0 0 111 c0 105 -8 144 -34 161 -21 14 -66 8 -86 -12
-18 -18 -20 -33 -20 -183 0 -194 2 -197 93 -197 l57 0 0 -570 0 -570 -334 0
c-335 0 -335 0 -350 -22 -21 -30 -20 -71 2 -91 17 -16 204 -17 2490 -17 2459
0 2472 0 2492 20 22 22 26 60 8 78 -9 9 -103 12 -360 12 l-348 0 0 570 0 570
63 0 c104 0 97 -35 97 482 0 418 -1 446 -18 461 -27 25 -78 22 -96 -5 -14 -19
-16 -76 -16 -415 l0 -393 -725 0 -725 0 0 95 c0 117 -12 135 -90 135 l-50 0 0
800 0 800 744 -2 744 -3 38 -31 c21 -16 47 -48 58 -70 20 -37 21 -60 26 -404
3 -201 7 -366 8 -366 1 -1 15 -7 32 -14 25 -10 34 -10 55 4 13 9 27 27 30 39
4 13 5 185 3 383 l-3 359 -26 55 c-36 77 -80 124 -147 157 l-57 28 -436 3
-436 3 -5 137 c-5 154 -23 209 -82 259 -78 65 -42 63 -776 63 -622 0 -668 -2
-705 -19z m1394 -137 c40 -33 51 -77 51 -206 l0 -108 -736 0 -736 0 4 136 3
136 37 34 38 34 654 0 654 0 31 -26z m-589 -1244 l0 -800 -95 0 -95 0 0 800 0
800 95 0 95 0 0 -800z m140 -1105 l0 -175 -240 0 -240 0 0 175 0 175 240 0
240 0 0 -175z m-610 -153 c0 -155 -33 -142 368 -142 185 0 342 4 349 8 22 14
33 63 33 148 l0 84 645 0 645 0 0 -560 0 -560 -1665 0 -1665 0 0 560 0 560
645 0 645 0 0 -98z"/>
<path d="M4813 4004 c-39 -61 -92 -112 -162 -157 l-53 -35 33 -18 c47 -24 143
-118 180 -176 18 -27 35 -46 38 -41 4 4 24 34 45 66 33 48 106 115 175 158 14
9 14 11 -3 22 -80 52 -152 123 -207 206 l-15 24 -31 -49z"/>
<path d="M4498 1725 c-23 -38 -83 -92 -121 -109 -8 -4 -5 -10 8 -18 27 -17
117 -108 132 -133 l12 -20 12 20 c15 25 108 116 132 130 16 9 12 14 -30 45
-26 19 -61 56 -78 82 -16 26 -32 47 -35 47 -3 0 -17 -19 -32 -44z"/>
<path d="M244 1252 c-17 -26 -54 -63 -82 -83 l-52 -36 46 -29 c26 -16 63 -53
84 -82 l39 -53 14 28 c19 36 84 101 120 120 l28 14 -53 39 c-29 21 -66 59 -82
84 -16 25 -29 46 -30 45 -1 0 -15 -21 -32 -47z"/>
<path d="M810 483 c-50 -19 -68 -84 -32 -116 17 -16 155 -17 1780 -17 1749 0
1762 0 1782 20 26 26 26 72 -1 96 -21 19 -65 19 -1768 21 -960 1 -1753 -1
-1761 -4z"/>
<path d="M1410 150 c-23 -23 -26 -68 -6 -96 14 -18 35 -19 738 -22 398 -1 733
0 745 3 34 8 53 33 53 70 0 68 38 65 -777 65 -720 0 -733 0 -753 -20z"/>
<path d="M3140 150 c-25 -25 -26 -61 -1 -91 l19 -24 265 0 c246 0 266 1 286
19 27 24 27 70 1 96 -19 19 -33 20 -285 20 -252 0 -266 -1 -285 -20z"/>
</g>
</svg>
