<?xml version="1.0" standalone="no"?>
<!DOCTYPE svg PUBLIC "-//W3C//DTD SVG 20010904//EN"
 "http://www.w3.org/TR/2001/REC-SVG-20010904/DTD/svg10.dtd">
<svg version="1.0" xmlns="http://www.w3.org/2000/svg"
 width="512.000000pt" height="512.000000pt" viewBox="0 0 512.000000 512.000000"
 preserveAspectRatio="xMidYMid meet">
<metadata>
Created by potrace 1.15, written by Peter Selinger 2001-2017
</metadata>
<g transform="translate(0.000000,512.000000) scale(0.100000,-0.100000)"
fill="#000000" stroke="none">
<path d="M2581 4847 c-7 -9 -10 -25 -6 -37 6 -19 14 -20 134 -20 104 0 147 -5
227 -25 349 -88 609 -355 687 -703 25 -111 34 -127 66 -117 28 9 27 47 -3 167
-45 176 -120 311 -249 445 -95 99 -214 181 -329 228 -138 57 -190 67 -358 72
-133 5 -158 3 -169 -10z"/>
<path d="M2585 4605 c-287 -54 -499 -244 -587 -525 -20 -65 -23 -95 -22 -220
0 -128 3 -154 26 -222 83 -248 278 -434 525 -499 100 -27 268 -29 368 -5 332
79 575 388 575 731 0 469 -427 826 -885 740z m256 -241 c95 -48 158 -162 144
-262 -8 -59 -54 -143 -95 -174 -22 -16 -30 -30 -30 -54 0 -35 -16 -25 233
-134 l98 -42 -3 -147 -3 -146 -465 0 -465 0 0 148 0 148 163 71 c160 70 162
71 162 102 0 24 -10 41 -36 67 -50 48 -76 103 -82 175 -4 51 0 71 20 115 68
148 220 204 359 133z"/>
<path d="M2640 4324 c-40 -17 -100 -72 -100 -91 0 -25 108 -19 162 8 38 19 90
77 82 91 -9 14 -107 8 -144 -8z"/>
<path d="M2720 4195 c-48 -26 -64 -30 -132 -29 l-78 1 0 -30 c0 -54 24 -111
65 -153 66 -68 155 -82 244 -38 70 35 103 86 109 165 4 57 4 59 -20 59 -14 0
-50 12 -79 28 l-54 27 -55 -30z"/>
<path d="M2630 3830 c0 -40 5 -51 38 -83 21 -20 42 -37 48 -37 5 0 29 19 52
43 35 36 42 49 42 82 l0 40 -90 0 -90 0 0 -45z"/>
<path d="M2413 3718 l-113 -51 0 -108 0 -109 164 0 163 0 12 69 c17 106 19
101 -44 101 l-55 0 0 75 c0 41 -3 75 -7 74 -5 0 -59 -23 -120 -51z"/>
<path d="M2898 3697 l-3 -72 -52 -3 c-61 -3 -60 -3 -42 -109 l11 -63 164 0
164 0 0 109 0 109 -87 37 c-49 21 -102 44 -120 51 l-32 14 -3 -73z"/>
<path d="M1734 3779 c-11 -18 6 -127 33 -213 48 -153 134 -295 238 -396 56
-53 67 -60 85 -50 32 17 24 37 -41 108 -122 134 -204 290 -238 456 -9 45 -20
87 -24 94 -10 15 -43 16 -53 1z"/>
<path d="M2890 3084 c-30 -7 -95 -16 -143 -20 l-88 -7 5 -36 c3 -20 11 -76 16
-126 6 -49 13 -91 15 -93 4 -5 288 27 293 33 4 3 -14 171 -24 233 -3 17 -8 32
-12 31 -4 -1 -32 -7 -62 -15z"/>
<path d="M3500 2983 c-14 -3 -131 -85 -260 -182 -245 -185 -819 -608 -857
-632 -17 -10 -25 -11 -34 -2 -9 9 1 44 45 148 99 236 118 363 67 462 -52 103
-143 80 -213 -54 -33 -61 -46 -102 -94 -281 -12 -43 -29 -68 -98 -141 -131
-138 -153 -201 -121 -350 l18 -82 -23 -24 -22 -24 348 -468 c191 -257 349
-470 351 -472 1 -2 51 2 110 9 l106 12 276 201 c467 339 593 438 615 484 22
43 20 101 -4 141 -35 56 -123 79 -184 47 -28 -15 -56 -7 -56 15 0 5 50 45 111
90 61 45 119 96 130 113 37 61 16 151 -43 187 -39 23 -111 26 -148 5 -24 -13
-50 -5 -50 16 0 5 42 40 94 79 73 55 98 80 110 111 21 51 20 64 -4 114 -35 72
-92 88 -212 59 -23 -5 -28 -3 -28 12 1 12 38 46 102 94 122 90 141 115 135
188 -3 41 -10 59 -32 82 -24 25 -86 54 -105 49 -3 -1 -16 -4 -30 -6z m-496
-588 c5 -13 -83 -84 -453 -362 -46 -34 -76 -39 -76 -13 0 17 483 389 506 389
9 1 19 -6 23 -14z"/>
<path d="M2836 2764 c-110 -13 -202 -26 -204 -29 -5 -4 27 -287 33 -293 2 -2
94 64 204 147 167 126 201 156 201 176 0 30 22 30 -234 -1z"/>
<path d="M1654 1645 c-115 -86 -210 -159 -211 -163 -3 -8 752 -1025 764 -1029
9 -3 423 303 423 312 0 5 -736 1001 -760 1028 -4 5 -101 -62 -216 -148z m682
-739 c29 -29 34 -41 34 -80 0 -88 -90 -142 -168 -102 -107 55 -64 216 57 216
36 0 49 -6 77 -34z"/>
<path d="M3328 1037 c-106 -78 -233 -173 -282 -210 l-89 -67 -62 6 -61 6 -187
-138 c-102 -77 -189 -147 -193 -157 -3 -10 0 -24 6 -32 11 -13 -62 -15 -568
-15 -576 0 -581 0 -587 -20 -17 -52 -52 -50 914 -48 l896 3 0 30 0 30 -308 3
-309 2 179 132 178 132 70 0 70 1 282 210 c155 116 285 216 288 223 7 18 -12
52 -30 52 -7 0 -101 -64 -207 -143z"/>
<path d="M1239 314 c-9 -11 -10 -20 -2 -32 9 -15 44 -17 321 -20 306 -2 311
-2 317 18 15 48 4 50 -320 50 -264 0 -304 -2 -316 -16z"/>
<path d="M2340 315 c-6 -8 -10 -22 -8 -32 3 -17 35 -18 638 -18 603 0 635 1
638 18 9 48 21 47 -638 47 -528 0 -619 -2 -630 -15z"/>
</g>
</svg>
