<?xml version="1.0" standalone="no"?>
<!DOCTYPE svg PUBLIC "-//W3C//DTD SVG 20010904//EN"
 "http://www.w3.org/TR/2001/REC-SVG-20010904/DTD/svg10.dtd">
<svg version="1.0" xmlns="http://www.w3.org/2000/svg"
 width="512.000000pt" height="512.000000pt" viewBox="0 0 512.000000 512.000000"
 preserveAspectRatio="xMidYMid meet">
<metadata>
Created by potrace 1.15, written by Peter Selinger 2001-2017
</metadata>
<g transform="translate(0.000000,512.000000) scale(0.100000,-0.100000)"
fill="#000000" stroke="none">
<path d="M727 4853 c-13 -12 -8 -508 5 -521 16 -16 53 -15 67 1 6 8 12 81 13
190 l3 177 370 -370 370 -370 -610 0 c-336 0 -616 -4 -624 -9 -18 -11 -18 -61
0 -72 8 -5 309 -9 669 -9 l655 0 175 -175 c96 -96 172 -176 170 -178 -3 -2
-30 -9 -60 -16 -404 -98 -790 -298 -1153 -599 -90 -74 -347 -328 -347 -342 0
-14 257 -268 347 -342 363 -301 749 -501 1153 -599 30 -7 57 -14 60 -16 2 -2
-72 -80 -165 -173 l-170 -170 -667 0 c-664 0 -667 0 -678 -21 -9 -16 -8 -26 5
-45 l15 -24 618 0 617 0 -375 -375 -375 -375 -3 177 c-1 109 -7 182 -13 190
-15 17 -53 17 -68 -1 -8 -9 -11 -88 -9 -267 l3 -254 263 -3 263 -2 8 22 c6 15
5 30 -4 43 -12 19 -22 20 -201 17 l-189 -3 415 416 415 415 274 0 275 0 158
157 158 157 158 -157 158 -157 275 0 274 0 415 -415 415 -416 -189 3 c-179 3
-189 2 -201 -17 -9 -13 -10 -28 -4 -43 l8 -22 263 2 263 3 3 254 c2 179 -1
258 -9 267 -15 18 -53 18 -68 1 -6 -8 -12 -81 -13 -190 l-3 -177 -375 375
-375 375 617 0 618 0 15 24 c13 19 14 29 5 45 -11 21 -14 21 -678 21 l-667 0
-170 170 c-93 93 -167 171 -165 173 3 2 30 9 60 16 516 125 1057 451 1429 861
l72 80 -73 81 c-197 219 -523 471 -798 617 -181 97 -420 190 -615 239 -38 9
-72 19 -75 20 -2 2 74 82 170 178 l175 175 655 0 c360 0 661 4 669 9 7 5 14
21 14 36 0 15 -7 31 -14 36 -8 5 -288 9 -624 9 l-610 0 370 370 370 370 3
-177 c1 -109 7 -182 13 -190 15 -17 53 -17 68 1 8 9 11 88 9 267 l-3 254 -263
3 -263 2 -8 -22 c-6 -15 -5 -30 4 -43 12 -19 22 -20 201 -17 l189 3 -410 -410
-410 -411 -279 0 -280 0 -158 -157 -158 -157 -158 157 -158 157 -280 0 -279 0
-410 411 -410 410 189 -3 c179 -3 189 -2 201 17 9 13 10 28 4 43 l-8 22 -259
0 c-142 0 -262 -3 -265 -7z m1622 -1127 l144 -144 -54 -6 c-30 -3 -105 -10
-167 -16 -62 -6 -125 -13 -140 -16 -24 -5 -45 13 -192 160 l-165 166 215 0
215 0 144 -144z m831 -22 c-147 -147 -168 -165 -192 -160 -15 3 -78 10 -140
16 -62 6 -137 13 -167 16 l-54 6 144 144 144 144 215 0 215 0 -165 -166z
m-460 -490 c219 -49 403 -223 485 -459 23 -64 31 -245 16 -324 -56 -286 -297
-508 -586 -539 -371 -40 -704 226 -743 593 -22 206 47 405 193 550 168 168
395 232 635 179z m-441 -1655 c64 -6 136 -13 160 -16 l44 -5 -139 -139 -139
-139 -210 0 -210 0 160 161 c146 146 162 160 189 155 15 -3 81 -11 145 -17z
m896 -139 l160 -160 -210 0 -210 0 -139 139 -138 138 32 7 c18 3 56 6 84 7 28
0 92 6 141 13 50 7 97 14 105 15 8 0 87 -71 175 -159z"/>
<path d="M2460 2915 c-192 -54 -305 -251 -256 -445 51 -200 247 -317 446 -266
248 63 357 349 215 563 -84 127 -255 189 -405 148z"/>
</g>
</svg>
