<?xml version="1.0" standalone="no"?>
<!DOCTYPE svg PUBLIC "-//W3C//DTD SVG 20010904//EN"
 "http://www.w3.org/TR/2001/REC-SVG-20010904/DTD/svg10.dtd">
<svg version="1.0" xmlns="http://www.w3.org/2000/svg"
 width="512.000000pt" height="512.000000pt" viewBox="0 0 512.000000 512.000000"
 preserveAspectRatio="xMidYMid meet">
<metadata>
Created by potrace 1.15, written by Peter Selinger 2001-2017
</metadata>
<g transform="translate(0.000000,512.000000) scale(0.100000,-0.100000)"
fill="#000000" stroke="none">
<path d="M391 5063 c-114 -29 -212 -107 -265 -211 -91 -180 -117 -525 -79
-1052 15 -198 17 -338 13 -895 -12 -1671 -4 -1972 66 -2477 32 -234 72 -285
266 -338 166 -44 451 -53 873 -26 387 25 527 27 1850 31 1125 2 1295 5 1405
19 156 21 200 32 275 67 153 71 244 213 280 432 21 128 19 386 -5 660 -29 338
-47 1781 -29 2378 19 640 3 939 -62 1179 -27 101 -71 154 -161 196 -74 34 -40
33 -783 16 -258 -6 -1151 -11 -1984 -11 -1346 -1 -1516 1 -1531 14 -30 27 -72
33 -129 18z m4147 -213 c54 -6 108 -18 130 -29 83 -42 130 -164 147 -376 6
-76 -9 -471 -21 -542 l-5 -33 -2271 0 -2271 0 6 198 c10 322 45 533 110 662
l32 65 1720 5 c1681 6 1725 6 1935 28 118 12 244 23 280 25 36 2 76 4 90 5 14
1 67 -3 118 -8z m256 -1482 c4 -150 11 -642 16 -1093 6 -451 15 -885 21 -965
16 -211 7 -485 -19 -582 -45 -167 -116 -261 -245 -322 -149 -71 -141 -70 -942
-76 -396 -3 -1226 -5 -1845 -5 l-1125 0 -50 26 c-91 48 -187 166 -234 285 -53
136 -53 146 -57 1039 -3 692 -7 885 -24 1160 -20 339 -40 712 -40 771 l0 34
2269 0 2269 0 6 -272z"/>
<path d="M1515 4478 c-39 -21 -55 -51 -55 -106 0 -46 4 -58 29 -83 42 -41 107
-41 153 0 30 27 33 35 33 86 0 51 -3 59 -33 86 -35 31 -88 39 -127 17z"/>
<path d="M599 4412 c-31 -28 -34 -35 -34 -87 0 -52 3 -59 34 -87 31 -27 39
-30 84 -25 70 6 97 38 97 112 0 74 -27 106 -97 112 -45 5 -53 2 -84 -25z"/>
<path d="M1063 4430 c-76 -31 -74 -181 3 -210 63 -24 121 -5 149 50 28 53 11
120 -37 154 -24 17 -80 20 -115 6z"/>
<path d="M2074 3321 c-369 -5 -454 -9 -468 -20 -36 -30 -44 -65 -45 -181 -1
-62 -4 -116 -7 -119 -3 -3 -99 -8 -213 -11 -236 -6 -251 -10 -272 -81 -16 -51
4 -135 60 -254 73 -155 403 -603 509 -690 81 -67 182 -119 277 -142 66 -15 75
-21 155 -97 120 -115 240 -189 338 -211 l32 -7 0 -253 0 -253 -179 -4 c-174
-3 -180 -4 -205 -27 -57 -53 -55 -151 2 -189 24 -16 66 -17 497 -14 500 4 515
6 549 53 9 14 16 43 16 71 0 39 -6 54 -29 80 l-29 33 -191 -3 -191 -4 0 251 0
251 28 6 c176 38 346 144 463 290 16 19 45 38 76 48 145 48 409 268 520 433
65 95 240 445 253 504 15 71 -1 124 -49 156 -33 22 -42 23 -232 23 l-198 0 -3
151 -3 151 -33 29 -32 29 -324 0 c-177 0 -390 2 -472 3 -82 2 -352 1 -600 -2z
m1236 -299 c0 -78 -24 -293 -45 -405 -50 -264 -147 -516 -234 -604 -23 -23
-41 -48 -41 -57 0 -24 -106 -121 -169 -155 -280 -149 -547 -29 -813 363 -159
235 -205 390 -215 724 l-6 202 762 0 761 0 0 -68z m-1737 -329 c8 -99 34 -215
72 -327 18 -54 30 -94 26 -90 -4 5 -66 88 -138 184 -115 154 -193 273 -193
293 0 4 51 7 114 7 l113 0 6 -67z m2094 27 l72 0 -49 -103 c-55 -119 -96 -189
-156 -267 -58 -76 -147 -169 -138 -145 29 79 78 269 101 386 l27 141 35 -6
c20 -3 68 -6 108 -6z"/>
</g>
</svg>
