<?xml version="1.0" standalone="no"?>
<!DOCTYPE svg PUBLIC "-//W3C//DTD SVG 20010904//EN"
 "http://www.w3.org/TR/2001/REC-SVG-20010904/DTD/svg10.dtd">
<svg version="1.0" xmlns="http://www.w3.org/2000/svg"
 width="512.000000pt" height="512.000000pt" viewBox="0 0 512.000000 512.000000"
 preserveAspectRatio="xMidYMid meet">
<metadata>
Created by potrace 1.15, written by Peter Selinger 2001-2017
</metadata>
<g transform="translate(0.000000,512.000000) scale(0.100000,-0.100000)"
fill="#000000" stroke="none">
<path d="M2592 3965 c-57 -24 -71 -97 -27 -141 l25 -25 0 -308 0 -309 -520
-627 -520 -627 51 -59 51 -59 444 533 c245 292 453 533 463 535 56 9 17 -43
-419 -565 -248 -296 -448 -544 -445 -550 2 -7 57 -76 121 -153 l117 -140 251
0 251 1 410 495 c226 273 409 500 407 506 -1 5 -133 166 -292 358 l-290 348 0
146 0 146 60 0 60 0 0 -49 c0 -79 5 -81 195 -81 211 0 212 1 161 125 -16 39
-16 43 8 100 35 88 29 95 -89 95 l-95 0 0 53 c0 29 -5 58 -12 65 -8 8 -56 12
-150 12 -85 0 -138 4 -138 10 0 6 5 10 10 10 6 0 18 15 27 34 37 79 -35 154
-115 121z"/>
<path d="M3041 2120 c-293 -353 -531 -644 -528 -646 2 -2 484 -3 1071 -2
l1066 3 -531 640 c-292 352 -534 641 -539 643 -4 1 -247 -286 -539 -638z"/>
<path d="M829 1909 c-184 -222 -340 -411 -347 -421 -12 -17 -9 -18 67 -18 l80
0 206 255 c114 140 211 257 216 261 10 6 39 -13 39 -25 0 -3 -88 -114 -195
-246 l-195 -240 290 -3 c160 -1 420 -1 580 0 l289 3 -335 405 c-185 223 -341
411 -348 418 -10 10 -77 -65 -347 -389z"/>
<path d="M764 1326 c-3 -8 -4 -23 -2 -33 3 -17 55 -18 1237 -18 1125 0 1235 1
1244 16 6 9 7 24 4 33 -6 15 -107 16 -1242 16 -1067 0 -1236 -2 -1241 -14z"/>
<path d="M485 1200 c-16 -50 -13 -50 436 -50 l419 0 6 24 c3 14 3 30 -1 35 -4
8 -143 11 -430 11 -418 0 -424 0 -430 -20z"/>
<path d="M2180 1205 c-16 -19 -4 -52 23 -59 41 -11 1677 -7 1698 4 21 12 25
40 7 58 -9 9 -215 12 -864 12 -732 0 -853 -2 -864 -15z"/>
<path d="M4027 1213 c-14 -13 -6 -53 12 -63 11 -5 65 -10 121 -10 107 0 140 9
140 38 0 36 -20 42 -145 42 -67 0 -125 -3 -128 -7z"/>
</g>
</svg>
