<?xml version="1.0" standalone="no"?>
<!DOCTYPE svg PUBLIC "-//W3C//DTD SVG 20010904//EN"
 "http://www.w3.org/TR/2001/REC-SVG-20010904/DTD/svg10.dtd">
<svg version="1.0" xmlns="http://www.w3.org/2000/svg"
 width="512.000000pt" height="512.000000pt" viewBox="0 0 512.000000 512.000000"
 preserveAspectRatio="xMidYMid meet">
<metadata>
Created by potrace 1.15, written by Peter Selinger 2001-2017
</metadata>
<g transform="translate(0.000000,512.000000) scale(0.100000,-0.100000)"
fill="#000000" stroke="none">
<path d="M2363 4192 c-140 -50 -221 -175 -211 -326 8 -117 71 -211 176 -263
49 -24 69 -28 142 -28 73 0 93 4 142 28 62 30 115 83 150 149 19 36 23 58 23
138 0 106 -15 147 -81 220 -78 87 -228 122 -341 82z"/>
<path d="M1327 3502 l-57 -57 163 -162 c149 -149 169 -165 255 -207 59 -30 96
-55 102 -69 5 -12 42 -169 81 -349 l72 -328 527 0 526 0 74 328 c40 180 76
337 81 349 5 15 40 38 101 69 86 42 106 58 255 207 l163 162 -57 57 c-32 32
-62 58 -68 58 -5 0 -84 -74 -175 -165 l-166 -166 -155 -29 c-278 -52 -383 -63
-579 -64 -197 0 -297 11 -579 65 l-156 29 -165 165 c-91 91 -170 165 -175 165
-6 0 -36 -26 -68 -58z"/>
<path d="M720 1850 l0 -840 -169 0 c-141 0 -172 -3 -185 -16 -20 -19 -20 -34
0 -62 l15 -22 2179 0 2179 0 15 22 c20 28 20 43 0 62 -13 13 -44 16 -185 16
l-169 0 0 840 0 840 -135 0 -135 0 0 -840 0 -840 -580 0 -580 0 0 440 0 440
-500 0 -500 0 0 -75 c0 -103 15 -165 52 -210 43 -51 98 -75 178 -75 79 0 133
23 177 74 34 37 38 49 51 125 8 50 32 72 60 55 16 -10 17 -42 20 -393 l2 -381
-760 0 -760 0 0 840 0 840 -135 0 -135 0 0 -840z"/>
<path d="M3525 2338 c-247 -38 -454 -74 -460 -79 -5 -5 -11 -68 -13 -140 l-4
-130 33 6 c58 10 942 145 951 145 4 0 8 61 8 135 l0 135 -32 -1 c-18 -1 -235
-32 -483 -71z"/>
<path d="M1080 2225 c0 -131 1 -135 23 -140 12 -2 180 -27 372 -55 193 -28
365 -53 384 -57 l33 -6 -3 136 c-2 74 -6 138 -9 140 -5 5 -758 117 -785 117
-12 0 -15 -23 -15 -135z"/>
<path d="M1970 2105 l0 -135 499 0 500 0 3 135 3 135 -502 0 -503 0 0 -135z"/>
</g>
</svg>
