<?xml version="1.0" standalone="no"?>
<!DOCTYPE svg PUBLIC "-//W3C//DTD SVG 20010904//EN"
 "http://www.w3.org/TR/2001/REC-SVG-20010904/DTD/svg10.dtd">
<svg version="1.0" xmlns="http://www.w3.org/2000/svg"
 width="512.000000pt" height="512.000000pt" viewBox="0 0 512.000000 512.000000"
 preserveAspectRatio="xMidYMid meet">
<metadata>
Created by potrace 1.15, written by Peter Selinger 2001-2017
</metadata>
<g transform="translate(0.000000,512.000000) scale(0.100000,-0.100000)"
fill="#000000" stroke="none">
<path d="M2391 4630 c-320 -67 -576 -315 -644 -625 -27 -121 -30 -202 -13
-301 39 -228 198 -659 425 -1156 l81 -178 0 -315 0 -315 -630 0 -630 0 0 -460
0 -460 1580 0 1580 0 0 460 0 460 -630 0 -630 0 0 311 0 311 59 126 c215 460
369 860 433 1120 89 364 -90 763 -422 940 -127 68 -194 84 -365 88 -82 2 -170
-1 -194 -6z m322 -342 c196 -64 318 -237 318 -448 0 -271 -200 -471 -471 -471
-271 0 -471 200 -471 471 0 330 310 552 624 448z m1147 -3008 l0 -180 -1300 0
-1300 0 0 180 0 180 1300 0 1300 0 0 -180z"/>
<path d="M1280 560 l0 -80 1280 0 1280 0 0 80 0 80 -1280 0 -1280 0 0 -80z"/>
</g>
</svg>
