<?xml version="1.0" standalone="no"?>
<!DOCTYPE svg PUBLIC "-//W3C//DTD SVG 20010904//EN"
 "http://www.w3.org/TR/2001/REC-SVG-20010904/DTD/svg10.dtd">
<svg version="1.0" xmlns="http://www.w3.org/2000/svg"
 width="512.000000pt" height="512.000000pt" viewBox="0 0 512.000000 512.000000"
 preserveAspectRatio="xMidYMid meet">
<metadata>
Created by potrace 1.15, written by Peter Selinger 2001-2017
</metadata>
<g transform="translate(0.000000,512.000000) scale(0.100000,-0.100000)"
fill="#000000" stroke="none">
<path d="M2151 5094 c-12 -15 -21 -39 -21 -53 0 -15 72 -494 160 -1066 88
-571 159 -1040 157 -1041 -1 -1 -258 49 -572 112 -313 63 -585 114 -603 114
-42 0 -82 -40 -82 -82 0 -34 1362 -3021 1393 -3055 41 -46 128 -24 150 38 3 9
-68 490 -157 1070 -90 580 -162 1055 -161 1056 1 2 260 -49 575 -112 316 -63
587 -115 603 -115 40 0 77 40 77 84 0 42 -1360 3030 -1392 3059 -13 10 -37 17
-63 17 -35 0 -48 -5 -64 -26z m1275 -2921 c-1 0 -246 48 -546 108 -299 60
-561 109 -581 109 -36 0 -69 -25 -82 -62 -3 -9 48 -366 114 -794 66 -427 118
-781 117 -785 -2 -5 -991 2148 -1006 2190 -1 5 241 -41 540 -100 298 -60 560
-109 581 -109 46 0 87 36 87 75 0 20 -176 1179 -236 1555 -3 19 224 -464 504
-1075 280 -610 508 -1111 508 -1112z"/>
</g>
</svg>
