<?xml version="1.0" standalone="no"?>
<!DOCTYPE svg PUBLIC "-//W3C//DTD SVG 20010904//EN"
 "http://www.w3.org/TR/2001/REC-SVG-20010904/DTD/svg10.dtd">
<svg version="1.0" xmlns="http://www.w3.org/2000/svg"
 width="98.000000pt" height="75.000000pt" viewBox="0 0 98.000000 75.000000"
 preserveAspectRatio="xMidYMid meet">
<metadata>
Created by potrace 1.15, written by Peter Selinger 2001-2017
</metadata>
<g transform="translate(0.000000,75.000000) scale(0.100000,-0.100000)"
fill="#000000" stroke="none">
<path d="M607 623 c-95 -127 -95 -128 -148 -290 -49 -152 -55 -163 -80 -168
-45 -10 -79 -43 -79 -76 0 -27 6 -33 57 -57 57 -26 62 -27 253 -27 194 0 195
0 253 28 49 25 57 32 57 57 0 32 -34 65 -78 75 -29 6 -29 6 -102 208 -31 86
-32 91 -21 170 25 193 25 207 3 207 -15 0 -48 -37 -115 -127z m65 -102 c-10
-68 -9 -73 29 -176 21 -58 39 -108 39 -111 0 -11 -67 -2 -84 11 -25 19 -67 19
-92 0 -21 -16 -84 -20 -84 -6 0 5 17 60 38 122 30 93 48 129 97 195 68 92 74
89 57 -35z m-112 -356 c7 -8 29 -15 50 -15 21 0 43 7 50 15 8 9 29 15 55 15
42 0 44 -1 61 -45 11 -31 22 -45 35 -45 11 0 19 7 19 15 0 18 11 19 34 2 46
-34 -68 -62 -254 -62 -186 0 -300 28 -254 62 23 17 34 16 34 -2 0 -8 9 -15 20
-15 15 0 23 11 32 45 l12 45 47 0 c29 0 51 -6 59 -15z"/>
<path d="M227 393 c-4 -3 -7 -19 -7 -35 0 -17 -8 -33 -20 -40 -22 -14 -28 -58
-8 -58 7 0 -30 -42 -81 -94 -94 -95 -105 -117 -65 -133 13 -5 41 19 106 88 54
57 91 89 94 82 8 -19 38 -15 51 6 7 12 26 21 45 23 25 2 34 8 36 24 2 11 -4
26 -12 33 -10 8 -12 24 -8 53 l5 41 -40 -6 c-30 -5 -44 -3 -53 8 -13 16 -32
19 -43 8z"/>
</g>
</svg>
