<?xml version="1.0" standalone="no"?>
<!DOCTYPE svg PUBLIC "-//W3C//DTD SVG 20010904//EN"
 "http://www.w3.org/TR/2001/REC-SVG-20010904/DTD/svg10.dtd">
<svg version="1.0" xmlns="http://www.w3.org/2000/svg"
 width="512.000000pt" height="512.000000pt" viewBox="0 0 512.000000 512.000000"
 preserveAspectRatio="xMidYMid meet">
<metadata>

</metadata>
<g transform="translate(0.000000,512.000000) scale(0.100000,-0.100000)"
fill="#000000" stroke="none">
<path d="M2341 5011 l-34 -6 -72 -215 -72 -215 -84 -21 c-46 -11 -106 -28
-133 -37 l-48 -17 -174 156 -175 155 -117 -61 c-132 -69 -312 -184 -312 -199
0 -6 20 -107 45 -225 l44 -215 -100 -100 -100 -101 -216 45 c-118 25 -219 45
-224 45 -15 0 -131 -183 -199 -313 l-62 -117 156 -174 156 -173 -17 -49 c-9
-27 -26 -87 -37 -133 l-21 -84 -215 -72 -215 -72 -7 -39 c-9 -51 -9 -377 0
-428 l7 -39 214 -72 214 -71 28 -105 c15 -57 32 -117 38 -132 11 -28 6 -34
-145 -203 l-155 -175 61 -117 c69 -132 184 -312 199 -312 6 0 107 20 225 45
l215 44 100 -100 100 -100 -44 -215 c-25 -118 -45 -219 -45 -225 0 -15 180
-130 312 -199 l117 -61 175 155 c169 151 175 156 203 145 15 -6 75 -23 132
-38 l105 -28 71 -214 72 -214 39 -7 c51 -9 377 -9 428 0 l39 7 72 214 71 214
105 28 c57 15 117 32 132 38 28 11 34 6 203 -145 l175 -155 117 61 c132 69
312 184 312 199 0 6 -20 107 -45 225 l-44 215 100 100 100 100 215 -44 c118
-25 219 -45 225 -45 15 0 130 180 199 312 l61 117 -155 175 -156 174 17 48 c9
27 26 87 37 133 l21 84 215 72 215 72 7 44 c9 58 9 373 0 423 l-7 39 -214 72
-214 71 -28 105 c-15 57 -32 117 -38 132 -11 28 -6 34 145 203 l155 175 -61
117 c-69 132 -184 312 -199 312 -6 0 -107 -20 -225 -45 l-215 -44 -100 100
-100 100 44 215 c25 118 45 219 45 225 0 15 -180 130 -312 199 l-117 61 -175
-155 -174 -156 -48 17 c-27 9 -87 26 -133 37 l-84 21 -72 215 -72 215 -39 7
c-47 8 -386 8 -433 -1z m379 -416 l70 -211 117 -23 c65 -12 171 -40 235 -62
65 -21 122 -39 127 -39 6 0 83 65 173 145 l162 144 57 -31 c32 -18 67 -39 79
-48 l21 -16 -45 -215 -45 -214 42 -34 c55 -45 234 -224 278 -278 l34 -42 214
45 215 45 16 -21 c9 -12 30 -47 48 -79 l31 -57 -144 -162 c-80 -90 -145 -167
-145 -173 0 -5 18 -62 39 -127 22 -64 50 -170 62 -235 l23 -117 211 -70 210
-69 0 -91 0 -91 -210 -69 -211 -70 -23 -117 c-12 -65 -40 -171 -62 -235 -21
-65 -39 -122 -39 -127 0 -6 65 -83 145 -173 l144 -162 -31 -57 c-18 -32 -39
-67 -48 -79 l-16 -21 -215 45 -214 45 -39 -47 c-51 -61 -219 -229 -273 -273
l-42 -34 45 -214 45 -215 -21 -16 c-12 -9 -47 -30 -79 -48 l-57 -31 -162 144
c-90 80 -167 145 -173 145 -5 0 -62 -18 -127 -39 -64 -22 -170 -50 -235 -62
l-118 -23 -68 -211 -69 -210 -90 -3 -90 -3 -71 214 -71 213 -118 23 c-64 12
-170 40 -234 62 -65 21 -122 39 -127 39 -6 0 -83 -65 -173 -145 l-162 -144
-57 31 c-32 18 -67 39 -79 48 l-22 17 45 214 46 214 -47 39 c-60 51 -217 207
-268 268 l-39 47 -214 -45 -215 -45 -16 21 c-9 12 -30 47 -48 79 l-31 57 144
162 c80 90 145 167 145 173 0 5 -18 62 -39 127 -22 64 -50 170 -62 235 l-23
117 -211 70 -210 69 0 91 0 91 210 69 211 70 23 117 c12 65 40 171 62 235 21
65 39 122 39 127 0 6 -65 83 -145 173 l-144 162 31 57 c18 32 39 67 48 79 l16
21 215 -45 214 -45 34 42 c45 54 224 233 278 278 l42 34 -45 214 -45 215 21
16 c12 9 47 30 79 48 l57 31 162 -144 c90 -80 167 -145 173 -145 5 0 62 18
127 39 64 22 170 50 235 62 l117 23 66 201 c36 110 67 206 69 213 4 9 28 12
95 10 l91 -3 69 -210z"/>
<path d="M2395 3579 c-312 -43 -617 -182 -930 -426 -172 -134 -397 -358 -522
-520 l-56 -73 56 -73 c143 -185 349 -387 552 -542 272 -207 521 -328 795 -386
85 -18 137 -23 270 -23 133 0 185 5 270 23 274 58 541 189 815 399 160 123
417 379 536 534 l52 68 -56 72 c-143 186 -349 388 -552 543 -273 208 -526 330
-795 385 -121 25 -328 34 -435 19z m386 -229 c188 -38 386 -126 584 -258 153
-102 278 -207 432 -363 156 -157 159 -162 138 -191 -31 -45 -252 -263 -350
-346 -191 -161 -434 -305 -633 -376 -248 -88 -536 -88 -784 0 -196 70 -441
214 -628 372 -94 78 -325 306 -355 350 -21 29 -18 34 138 191 335 339 680 551
1012 621 126 26 316 26 446 0z"/>
<path d="M2460 3174 c-59 -12 -159 -48 -210 -77 -71 -40 -187 -156 -227 -227
-58 -102 -78 -182 -78 -310 0 -128 20 -208 78 -310 40 -71 156 -187 227 -227
102 -58 182 -78 310 -78 94 0 128 4 185 23 103 35 171 77 251 156 79 80 121
148 156 251 33 100 33 270 0 370 -35 103 -77 171 -156 251 -121 120 -242 173
-411 179 -55 2 -111 1 -125 -1z m271 -251 c80 -40 159 -120 197 -200 24 -52
27 -70 27 -163 0 -93 -3 -111 -27 -163 -38 -80 -117 -160 -197 -200 -61 -30
-72 -32 -171 -32 -93 0 -111 3 -163 27 -80 38 -160 117 -200 197 -30 61 -32
72 -32 171 0 93 3 112 27 162 27 58 89 133 141 170 17 12 55 32 86 45 48 20
70 23 151 21 84 -3 103 -7 161 -35z"/>
</g>
</svg>
