<svg id="svg" version="1.1" xmlns="http://www.w3.org/2000/svg" xmlns:xlink="http://www.w3.org/1999/xlink" width="400" height="400" viewBox="0, 0, 400,400"><g id="svgg"><path id="path0" d="M165.400 12.400 C 165.264 12.620,163.993 12.800,162.576 12.800 C 161.125 12.800,160.000 12.975,160.000 13.200 C 160.000 13.420,159.100 13.600,158.000 13.600 C 156.900 13.600,156.000 13.780,156.000 14.000 C 156.000 14.220,155.291 14.400,154.424 14.400 C 153.557 14.400,152.736 14.580,152.600 14.800 C 152.464 15.020,151.744 15.200,151.000 15.200 C 150.256 15.200,149.536 15.380,149.400 15.600 C 149.264 15.820,148.533 16.000,147.776 16.000 C 147.019 16.000,146.400 16.180,146.400 16.400 C 146.400 16.620,145.860 16.800,145.200 16.800 C 144.540 16.800,144.000 16.980,144.000 17.200 C 144.000 17.420,143.550 17.600,143.000 17.600 C 142.450 17.600,142.000 17.780,142.000 18.000 C 142.000 18.220,141.460 18.400,140.800 18.400 C 140.140 18.400,139.600 18.580,139.600 18.800 C 139.600 19.020,139.251 19.200,138.824 19.200 C 138.397 19.200,137.936 19.380,137.800 19.600 C 137.664 19.820,137.113 20.000,136.576 20.000 C 136.039 20.000,135.600 20.180,135.600 20.400 C 135.600 20.620,135.240 20.800,134.800 20.800 C 134.360 20.800,134.000 20.980,134.000 21.200 C 134.000 21.420,133.728 21.600,133.395 21.600 C 133.062 21.600,132.477 21.760,132.095 21.956 C 131.713 22.152,130.500 22.737,129.400 23.256 C 128.300 23.775,127.340 24.335,127.267 24.500 C 127.193 24.665,126.810 24.800,126.416 24.800 C 126.021 24.800,125.474 25.070,125.200 25.400 C 124.926 25.730,124.364 26.000,123.951 26.000 C 123.538 26.000,123.200 26.180,123.200 26.400 C 123.200 26.620,122.964 26.800,122.675 26.800 C 122.387 26.800,121.764 27.160,121.292 27.600 C 120.820 28.040,120.156 28.400,119.817 28.400 C 119.478 28.400,119.200 28.550,119.200 28.732 C 119.200 28.915,118.705 29.320,118.100 29.632 C 117.495 29.945,116.651 30.515,116.225 30.900 C 115.798 31.285,115.253 31.600,115.013 31.600 C 114.773 31.600,114.317 31.960,114.000 32.400 C 113.683 32.840,113.220 33.200,112.971 33.200 C 112.722 33.200,111.954 33.740,111.263 34.400 C 110.572 35.060,109.917 35.600,109.806 35.600 C 109.696 35.600,108.508 36.680,107.168 38.000 C 105.827 39.320,104.552 40.400,104.334 40.400 C 103.424 40.400,92.905 51.604,91.781 53.772 C 91.454 54.402,90.829 55.228,90.393 55.606 C 89.957 55.984,89.600 56.516,89.600 56.786 C 89.600 57.057,89.060 57.783,88.400 58.400 C 87.740 59.017,87.200 59.719,87.200 59.960 C 87.200 60.202,87.020 60.400,86.800 60.400 C 86.580 60.400,86.400 60.670,86.400 61.000 C 86.400 61.330,86.220 61.600,86.000 61.600 C 85.780 61.600,85.600 61.870,85.600 62.200 C 85.600 62.530,85.420 62.800,85.200 62.800 C 84.980 62.800,84.800 63.036,84.800 63.325 C 84.800 63.613,84.440 64.236,84.000 64.708 C 83.560 65.180,83.200 65.844,83.200 66.183 C 83.200 66.522,83.020 66.800,82.800 66.800 C 82.580 66.800,82.400 67.078,82.400 67.417 C 82.400 67.756,82.040 68.420,81.600 68.892 C 81.160 69.364,80.800 69.987,80.800 70.275 C 80.800 70.564,80.620 70.800,80.400 70.800 C 80.180 70.800,80.000 71.160,80.000 71.600 C 80.000 72.040,79.820 72.400,79.600 72.400 C 79.380 72.400,79.200 72.760,79.200 73.200 C 79.200 73.640,79.020 74.000,78.800 74.000 C 78.580 74.000,78.400 74.272,78.400 74.605 C 78.400 74.938,78.236 75.523,78.035 75.905 C 76.942 77.983,75.610 81.219,75.196 82.800 C 74.937 83.790,74.562 84.913,74.363 85.295 C 74.163 85.677,74.000 86.341,74.000 86.771 C 74.000 87.201,73.820 87.664,73.600 87.800 C 73.380 87.936,73.200 88.577,73.200 89.224 C 73.200 89.871,73.020 90.400,72.800 90.400 C 72.580 90.400,72.400 90.940,72.400 91.600 C 72.400 92.260,72.220 92.800,72.000 92.800 C 71.780 92.800,71.600 93.430,71.600 94.200 C 71.600 94.970,71.420 95.600,71.200 95.600 C 70.980 95.600,70.800 96.320,70.800 97.200 C 70.800 98.080,70.620 98.800,70.400 98.800 C 70.180 98.800,70.000 99.689,70.000 100.776 C 70.000 101.863,69.820 102.864,69.600 103.000 C 69.380 103.136,69.200 104.407,69.200 105.824 C 69.200 107.275,69.025 108.400,68.800 108.400 C 68.559 108.400,68.400 110.059,68.400 112.576 C 68.400 114.929,68.225 116.861,68.000 117.000 C 67.742 117.159,67.600 124.004,67.600 136.224 C 67.600 148.608,67.461 155.200,67.200 155.200 C 66.980 155.200,66.800 155.560,66.800 156.000 C 66.800 156.440,66.620 156.800,66.400 156.800 C 66.180 156.800,66.000 157.160,66.000 157.600 C 66.000 158.040,65.864 158.400,65.698 158.400 C 65.531 158.400,65.141 158.985,64.830 159.700 C 64.519 160.415,64.160 161.090,64.032 161.200 C 63.686 161.499,62.541 163.522,61.316 166.000 C 60.719 167.210,60.088 168.260,59.915 168.333 C 59.742 168.407,59.600 168.661,59.600 168.899 C 59.600 169.620,58.268 172.400,57.923 172.400 C 57.745 172.400,57.600 172.760,57.600 173.200 C 57.600 173.640,57.420 174.000,57.200 174.000 C 56.980 174.000,56.800 174.360,56.800 174.800 C 56.800 175.240,56.620 175.600,56.400 175.600 C 56.180 175.600,56.000 175.870,56.000 176.200 C 56.000 176.530,55.820 176.800,55.600 176.800 C 55.380 176.800,55.200 177.160,55.200 177.600 C 55.200 178.040,55.020 178.400,54.800 178.400 C 54.580 178.400,54.400 178.760,54.400 179.200 C 54.400 179.640,54.220 180.000,54.000 180.000 C 53.780 180.000,53.600 180.278,53.600 180.617 C 53.600 180.956,53.240 181.620,52.800 182.092 C 52.360 182.564,52.000 183.187,52.000 183.475 C 52.000 183.764,51.820 184.000,51.600 184.000 C 51.380 184.000,51.200 184.360,51.200 184.800 C 51.200 185.240,51.020 185.600,50.800 185.600 C 50.580 185.600,50.400 185.960,50.400 186.400 C 50.400 186.840,50.220 187.200,50.000 187.200 C 49.780 187.200,49.600 187.560,49.600 188.000 C 49.600 188.440,49.420 188.800,49.200 188.800 C 48.980 188.800,48.800 189.160,48.800 189.600 C 48.800 190.040,48.620 190.400,48.400 190.400 C 48.180 190.400,48.000 190.760,48.000 191.200 C 48.000 191.640,47.850 192.000,47.668 192.000 C 47.485 192.000,47.080 192.495,46.768 193.100 C 46.456 193.705,46.103 194.290,45.983 194.400 C 45.863 194.510,44.883 196.400,43.805 198.600 C 42.727 200.800,41.700 202.660,41.522 202.733 C 41.345 202.807,41.200 203.212,41.200 203.633 C 41.200 204.055,41.020 204.400,40.800 204.400 C 40.580 204.400,40.400 204.760,40.400 205.200 C 40.400 205.640,40.220 206.000,40.000 206.000 C 39.780 206.000,39.600 206.360,39.600 206.800 C 39.600 207.240,39.454 207.600,39.275 207.600 C 39.096 207.600,38.702 208.230,38.400 209.000 C 38.098 209.770,37.704 210.400,37.525 210.400 C 37.346 210.400,37.200 210.760,37.200 211.200 C 37.200 211.640,37.020 212.000,36.800 212.000 C 36.580 212.000,36.400 212.270,36.400 212.600 C 36.400 212.930,36.220 213.200,36.000 213.200 C 35.780 213.200,35.600 213.470,35.600 213.800 C 35.600 214.130,35.420 214.400,35.200 214.400 C 34.980 214.400,34.800 214.760,34.800 215.200 C 34.800 215.640,34.620 216.000,34.400 216.000 C 34.180 216.000,34.000 216.360,34.000 216.800 C 34.000 217.240,33.820 217.600,33.600 217.600 C 33.380 217.600,33.200 217.960,33.200 218.400 C 33.200 218.840,33.020 219.200,32.800 219.200 C 32.580 219.200,32.400 219.560,32.400 220.000 C 32.400 220.440,32.220 220.800,32.000 220.800 C 31.780 220.800,31.600 221.145,31.600 221.567 C 31.600 221.988,31.414 222.395,31.186 222.471 C 30.629 222.657,30.629 232.789,31.186 233.346 C 31.414 233.574,31.600 234.174,31.600 234.680 C 31.600 235.186,31.780 235.600,32.000 235.600 C 32.220 235.600,32.400 235.825,32.400 236.100 C 32.401 237.018,36.078 241.044,37.258 241.418 C 37.666 241.548,38.000 241.822,38.000 242.027 C 38.000 242.232,38.360 242.400,38.800 242.400 C 39.240 242.400,39.600 242.580,39.600 242.800 C 39.600 243.020,40.140 243.200,40.800 243.200 C 41.460 243.200,42.000 243.380,42.000 243.600 C 42.000 243.858,46.533 244.000,54.800 244.000 L 67.600 244.000 67.600 278.800 C 67.600 301.733,67.736 313.600,68.000 313.600 C 68.220 313.600,68.400 314.500,68.400 315.600 C 68.400 316.700,68.580 317.600,68.800 317.600 C 69.020 317.600,69.200 317.949,69.200 318.376 C 69.200 318.803,69.380 319.264,69.600 319.400 C 69.820 319.536,70.000 319.997,70.000 320.424 C 70.000 320.851,70.180 321.200,70.400 321.200 C 70.620 321.200,70.800 321.470,70.800 321.800 C 70.800 322.130,70.980 322.400,71.200 322.400 C 71.420 322.400,71.600 322.583,71.600 322.807 C 71.600 323.339,76.661 328.400,77.193 328.400 C 77.417 328.400,77.600 328.580,77.600 328.800 C 77.600 329.020,77.960 329.200,78.400 329.200 C 78.840 329.200,79.200 329.380,79.200 329.600 C 79.200 329.820,79.560 330.000,80.000 330.000 C 80.440 330.000,80.800 330.180,80.800 330.400 C 80.800 330.620,81.340 330.800,82.000 330.800 C 82.660 330.800,83.200 330.980,83.200 331.200 C 83.200 331.463,94.400 331.600,116.000 331.600 L 148.800 331.600 148.800 357.400 C 148.800 374.333,148.937 383.200,149.200 383.200 C 149.420 383.200,149.600 383.472,149.600 383.805 C 149.600 385.094,151.195 387.200,152.171 387.200 C 152.517 387.200,152.800 387.380,152.800 387.600 C 152.800 387.865,171.870 388.000,209.211 388.000 L 265.621 388.000 267.411 386.211 L 269.200 384.421 269.200 340.499 C 269.200 297.035,269.208 296.571,270.000 296.000 C 270.440 295.683,270.800 295.175,270.800 294.872 C 270.800 294.569,271.296 293.844,271.901 293.260 C 272.507 292.677,273.533 291.480,274.181 290.600 C 274.829 289.720,275.683 288.709,276.079 288.353 C 276.476 287.997,276.800 287.488,276.800 287.222 C 276.800 286.955,277.520 286.046,278.400 285.200 C 279.280 284.354,280.000 283.454,280.000 283.200 C 280.000 282.946,280.720 282.046,281.600 281.200 C 282.480 280.354,283.200 279.454,283.200 279.200 C 283.200 278.946,283.920 278.046,284.800 277.200 C 285.680 276.354,286.400 275.534,286.400 275.376 C 286.400 275.218,287.075 274.330,287.900 273.402 C 288.725 272.475,289.850 271.118,290.400 270.387 C 290.950 269.657,291.625 268.834,291.900 268.558 C 292.175 268.283,292.400 267.850,292.400 267.597 C 292.400 267.344,293.120 266.446,294.000 265.600 C 294.880 264.754,295.600 263.854,295.600 263.600 C 295.600 263.346,296.320 262.446,297.200 261.600 C 298.080 260.754,298.800 259.861,298.800 259.615 C 298.800 259.369,299.520 258.483,300.400 257.646 C 301.280 256.809,302.000 256.006,302.000 255.862 C 302.000 255.719,302.720 254.859,303.600 253.952 C 304.480 253.045,305.200 252.146,305.200 251.953 C 305.200 251.760,305.830 250.934,306.600 250.118 C 307.370 249.301,308.000 248.423,308.000 248.165 C 308.000 247.907,308.720 246.955,309.600 246.048 C 310.480 245.141,311.200 244.205,311.200 243.968 C 311.200 243.731,311.920 242.846,312.800 242.000 C 313.680 241.154,314.400 240.357,314.400 240.228 C 314.400 240.098,314.940 239.428,315.600 238.737 C 316.260 238.046,316.800 237.326,316.800 237.137 C 316.800 236.948,317.340 236.228,318.000 235.537 C 318.660 234.846,319.200 234.121,319.200 233.924 C 319.200 233.727,319.560 233.180,320.000 232.708 C 320.440 232.236,320.800 231.613,320.800 231.325 C 320.800 231.036,320.980 230.800,321.200 230.800 C 321.420 230.800,321.600 230.564,321.600 230.275 C 321.600 229.987,321.960 229.364,322.400 228.892 C 322.840 228.420,323.200 227.756,323.200 227.417 C 323.200 227.078,323.362 226.800,323.560 226.800 C 323.759 226.800,324.254 225.991,324.660 225.001 C 325.067 224.012,325.535 223.202,325.700 223.201 C 325.865 223.201,326.000 222.930,326.000 222.600 C 326.000 222.270,326.180 222.000,326.400 222.000 C 326.620 222.000,326.800 221.730,326.800 221.400 C 326.800 221.070,326.980 220.800,327.200 220.800 C 327.420 220.800,327.600 220.440,327.600 220.000 C 327.600 219.560,327.780 219.200,328.000 219.200 C 328.220 219.200,328.400 218.840,328.400 218.400 C 328.400 217.960,328.580 217.600,328.800 217.600 C 329.020 217.600,329.200 217.240,329.200 216.800 C 329.200 216.360,329.380 216.000,329.600 216.000 C 329.820 216.000,330.000 215.640,330.000 215.200 C 330.000 214.760,330.180 214.400,330.400 214.400 C 330.620 214.400,330.800 214.040,330.800 213.600 C 330.800 213.160,330.980 212.800,331.200 212.800 C 331.420 212.800,331.600 212.451,331.600 212.024 C 331.600 211.597,331.780 211.136,332.000 211.000 C 332.220 210.864,332.400 210.313,332.400 209.776 C 332.400 209.239,332.536 208.800,332.702 208.800 C 332.869 208.800,333.240 208.215,333.529 207.500 C 333.817 206.785,334.221 205.887,334.426 205.505 C 334.632 205.123,334.800 204.538,334.800 204.205 C 334.800 203.872,334.980 203.600,335.200 203.600 C 335.420 203.600,335.600 203.075,335.600 202.433 C 335.600 201.792,335.735 201.207,335.901 201.133 C 336.312 200.951,338.000 195.897,338.000 194.847 C 338.000 194.381,338.180 194.000,338.400 194.000 C 338.620 194.000,338.800 193.471,338.800 192.824 C 338.800 192.177,338.980 191.536,339.200 191.400 C 339.420 191.264,339.600 190.634,339.600 190.000 C 339.600 189.366,339.761 188.748,339.958 188.626 C 340.332 188.395,340.476 187.646,341.255 181.900 C 341.516 179.975,341.880 178.400,342.064 178.400 C 342.249 178.400,342.400 177.320,342.400 176.000 C 342.400 174.667,342.578 173.600,342.800 173.600 C 343.035 173.600,343.200 172.200,343.200 170.200 C 343.200 168.200,343.365 166.800,343.600 166.800 C 343.859 166.800,344.000 161.867,344.000 152.800 C 344.000 143.733,343.859 138.800,343.600 138.800 C 343.367 138.800,343.200 137.467,343.200 135.600 C 343.200 133.733,343.033 132.400,342.800 132.400 C 342.578 132.400,342.400 131.333,342.400 130.000 C 342.400 128.680,342.245 127.600,342.055 127.600 C 341.866 127.600,341.587 126.205,341.437 124.500 C 341.286 122.795,341.004 120.860,340.809 120.200 C 340.614 119.540,340.244 118.190,339.988 117.200 C 339.732 116.210,339.360 115.087,339.161 114.705 C 338.962 114.323,338.800 113.479,338.800 112.829 C 338.800 112.179,338.620 111.536,338.400 111.400 C 338.180 111.264,338.000 110.713,338.000 110.176 C 338.000 109.639,337.820 109.200,337.600 109.200 C 337.380 109.200,337.200 108.660,337.200 108.000 C 337.200 107.340,337.020 106.800,336.800 106.800 C 336.580 106.800,336.400 106.438,336.400 105.995 C 336.400 105.552,336.192 104.787,335.938 104.295 C 334.942 102.369,334.800 101.983,334.800 101.205 C 334.800 100.762,334.620 100.400,334.400 100.400 C 334.180 100.400,334.000 100.128,334.000 99.795 C 334.000 99.462,333.792 98.787,333.538 98.295 C 332.567 96.418,332.400 95.993,332.400 95.405 C 332.400 95.072,332.220 94.800,332.000 94.800 C 331.780 94.800,331.600 94.440,331.600 94.000 C 331.600 93.560,331.420 93.200,331.200 93.200 C 330.980 93.200,330.800 92.750,330.800 92.200 C 330.800 91.650,330.620 91.200,330.400 91.200 C 330.180 91.200,330.000 90.964,330.000 90.675 C 330.000 90.387,329.640 89.764,329.200 89.292 C 328.760 88.820,328.400 88.156,328.400 87.817 C 328.400 87.478,328.220 87.200,328.000 87.200 C 327.780 87.200,327.600 86.840,327.600 86.400 C 327.600 85.960,327.420 85.600,327.200 85.600 C 326.980 85.600,326.800 85.240,326.800 84.800 C 326.800 84.360,326.620 84.000,326.400 84.000 C 326.180 84.000,326.000 83.640,326.000 83.200 C 326.000 82.760,325.820 82.400,325.600 82.400 C 325.380 82.400,325.200 82.138,325.200 81.818 C 325.200 81.326,324.018 79.255,322.906 77.800 C 322.738 77.580,322.331 76.860,322.003 76.200 C 321.674 75.540,321.089 74.709,320.703 74.353 C 320.316 73.997,320.000 73.529,320.000 73.312 C 320.000 73.096,319.460 72.354,318.800 71.663 C 318.140 70.972,317.600 70.175,317.600 69.892 C 317.600 69.609,317.240 69.117,316.800 68.800 C 316.360 68.483,316.000 68.015,316.000 67.760 C 316.000 67.505,315.280 66.555,314.400 65.648 C 313.520 64.741,312.800 63.819,312.800 63.600 C 312.800 63.380,312.620 63.200,312.400 63.200 C 312.180 63.200,312.000 63.015,312.000 62.789 C 312.000 62.564,311.235 61.597,310.300 60.641 C 309.365 59.685,307.880 58.043,307.000 56.993 C 304.601 54.128,300.383 49.911,298.800 48.796 C 298.030 48.253,296.451 46.862,295.291 45.705 C 294.132 44.547,293.033 43.600,292.850 43.600 C 292.667 43.600,292.064 43.195,291.510 42.700 C 289.910 41.269,288.807 40.400,288.592 40.400 C 288.482 40.400,287.828 39.860,287.137 39.200 C 286.446 38.540,285.638 38.000,285.341 38.000 C 285.043 38.000,284.800 37.850,284.800 37.668 C 284.800 37.485,284.305 37.081,283.700 36.770 C 283.095 36.460,282.309 35.889,281.953 35.503 C 281.597 35.116,281.052 34.800,280.741 34.800 C 280.431 34.800,279.917 34.440,279.600 34.000 C 279.283 33.560,278.703 33.200,278.312 33.200 C 277.920 33.200,277.600 33.020,277.600 32.800 C 277.600 32.580,277.306 32.400,276.947 32.400 C 276.588 32.400,276.003 32.071,275.647 31.670 C 275.291 31.268,274.415 30.684,273.700 30.372 C 272.985 30.060,272.400 29.669,272.400 29.502 C 272.400 29.336,272.040 29.200,271.600 29.200 C 271.160 29.200,270.800 29.052,270.800 28.872 C 270.800 28.691,268.955 27.689,266.700 26.645 C 264.445 25.601,262.287 24.579,261.905 24.373 C 261.523 24.168,260.848 24.000,260.405 24.000 C 259.962 24.000,259.600 23.820,259.600 23.600 C 259.600 23.380,259.240 23.200,258.800 23.200 C 258.360 23.200,258.000 23.020,258.000 22.800 C 258.000 22.580,257.550 22.400,257.000 22.400 C 256.450 22.400,256.000 22.220,256.000 22.000 C 256.000 21.780,255.640 21.600,255.200 21.600 C 254.760 21.600,254.400 21.420,254.400 21.200 C 254.400 20.980,253.860 20.800,253.200 20.800 C 252.540 20.800,252.000 20.620,252.000 20.400 C 252.000 20.180,251.460 20.000,250.800 20.000 C 250.140 20.000,249.600 19.820,249.600 19.600 C 249.600 19.380,249.060 19.200,248.400 19.200 C 247.740 19.200,247.200 19.020,247.200 18.800 C 247.200 18.580,246.660 18.400,246.000 18.400 C 245.340 18.400,244.800 18.220,244.800 18.000 C 244.800 17.780,244.260 17.600,243.600 17.600 C 242.940 17.600,242.400 17.420,242.400 17.200 C 242.400 16.980,241.781 16.800,241.024 16.800 C 240.267 16.800,239.536 16.620,239.400 16.400 C 239.264 16.180,238.533 16.000,237.776 16.000 C 237.019 16.000,236.400 15.820,236.400 15.600 C 236.400 15.380,235.680 15.200,234.800 15.200 C 233.920 15.200,233.200 15.020,233.200 14.800 C 233.200 14.580,232.300 14.400,231.200 14.400 C 230.100 14.400,229.200 14.220,229.200 14.000 C 229.200 13.778,228.133 13.600,226.800 13.600 C 225.467 13.600,224.400 13.422,224.400 13.200 C 224.400 12.969,223.141 12.800,221.424 12.800 C 219.787 12.800,218.336 12.620,218.200 12.400 C 217.860 11.849,165.740 11.849,165.400 12.400 M204.200 25.600 C 204.346 25.837,206.804 26.000,210.224 26.000 C 213.808 26.000,216.000 26.152,216.000 26.400 C 216.000 26.633,217.333 26.800,219.200 26.800 C 221.067 26.800,222.400 26.967,222.400 27.200 C 222.400 27.420,223.390 27.600,224.600 27.600 C 225.810 27.600,226.800 27.780,226.800 28.000 C 226.800 28.220,227.700 28.400,228.800 28.400 C 229.900 28.400,230.800 28.580,230.800 28.800 C 230.800 29.020,231.520 29.200,232.400 29.200 C 233.280 29.200,234.000 29.380,234.000 29.600 C 234.000 29.820,234.720 30.000,235.600 30.000 C 236.480 30.000,237.200 30.180,237.200 30.400 C 237.200 30.620,237.740 30.800,238.400 30.800 C 239.060 30.800,239.600 30.980,239.600 31.200 C 239.600 31.420,240.140 31.600,240.800 31.600 C 241.460 31.600,242.000 31.780,242.000 32.000 C 242.000 32.220,242.540 32.400,243.200 32.400 C 243.860 32.400,244.400 32.580,244.400 32.800 C 244.400 33.020,244.850 33.200,245.400 33.200 C 245.950 33.200,246.400 33.380,246.400 33.600 C 246.400 33.820,246.940 34.000,247.600 34.000 C 248.260 34.000,248.800 34.180,248.800 34.400 C 248.800 34.620,249.160 34.800,249.600 34.800 C 250.040 34.800,250.400 34.980,250.400 35.200 C 250.400 35.420,250.940 35.600,251.600 35.600 C 252.260 35.600,252.800 35.780,252.800 36.000 C 252.800 36.220,253.160 36.400,253.600 36.400 C 254.040 36.400,254.400 36.580,254.400 36.800 C 254.400 37.020,254.760 37.200,255.200 37.200 C 255.640 37.200,256.000 37.380,256.000 37.600 C 256.000 37.820,256.360 38.000,256.800 38.000 C 257.240 38.000,257.600 38.180,257.600 38.400 C 257.600 38.620,257.853 38.800,258.163 38.800 C 258.473 38.800,259.893 39.430,261.319 40.200 C 262.744 40.970,264.201 41.600,264.555 41.600 C 264.910 41.600,265.200 41.780,265.200 42.000 C 265.200 42.220,265.478 42.400,265.817 42.400 C 266.156 42.400,266.820 42.760,267.292 43.200 C 267.764 43.640,268.387 44.000,268.675 44.000 C 268.964 44.000,269.200 44.180,269.200 44.400 C 269.200 44.620,269.520 44.800,269.912 44.800 C 270.303 44.800,270.883 45.160,271.200 45.600 C 271.517 46.040,272.031 46.400,272.341 46.400 C 272.652 46.400,273.197 46.716,273.553 47.103 C 273.909 47.489,274.695 48.060,275.300 48.370 C 275.905 48.681,276.400 49.085,276.400 49.268 C 276.400 49.450,276.582 49.600,276.804 49.600 C 277.026 49.600,277.772 50.140,278.463 50.800 C 279.154 51.460,279.872 52.000,280.059 52.000 C 280.246 52.000,281.141 52.720,282.048 53.600 C 282.955 54.480,283.860 55.200,284.060 55.200 C 284.798 55.200,301.200 71.501,301.200 72.235 C 301.200 72.350,301.739 73.019,302.398 73.722 C 303.057 74.425,303.597 75.149,303.598 75.331 C 303.599 75.514,304.320 76.354,305.200 77.200 C 306.080 78.046,306.800 78.982,306.800 79.280 C 306.800 79.579,307.160 80.083,307.600 80.400 C 308.040 80.717,308.400 81.275,308.400 81.639 C 308.400 82.004,308.670 82.526,309.000 82.800 C 309.330 83.074,309.600 83.512,309.600 83.774 C 309.600 84.035,309.915 84.598,310.300 85.025 C 310.685 85.451,311.264 86.340,311.588 87.000 C 311.911 87.660,312.676 88.952,313.288 89.872 C 313.899 90.792,314.400 91.737,314.400 91.972 C 314.400 92.207,314.580 92.400,314.800 92.400 C 315.020 92.400,315.200 92.760,315.200 93.200 C 315.200 93.640,315.380 94.000,315.600 94.000 C 315.820 94.000,316.000 94.360,316.000 94.800 C 316.000 95.240,316.180 95.600,316.400 95.600 C 316.620 95.600,316.800 95.960,316.800 96.400 C 316.800 96.840,316.980 97.200,317.200 97.200 C 317.420 97.200,317.600 97.560,317.600 98.000 C 317.600 98.440,317.780 98.800,318.000 98.800 C 318.220 98.800,318.400 99.160,318.400 99.600 C 318.400 100.040,318.580 100.400,318.800 100.400 C 319.020 100.400,319.200 100.760,319.200 101.200 C 319.200 101.640,319.380 102.000,319.600 102.000 C 319.820 102.000,320.000 102.439,320.000 102.976 C 320.000 103.513,320.180 104.064,320.400 104.200 C 320.620 104.336,320.800 104.797,320.800 105.224 C 320.800 105.651,320.980 106.000,321.200 106.000 C 321.420 106.000,321.600 106.450,321.600 107.000 C 321.600 107.550,321.780 108.000,322.000 108.000 C 322.220 108.000,322.400 108.360,322.400 108.800 C 322.400 109.240,322.580 109.600,322.800 109.600 C 323.020 109.600,323.200 110.140,323.200 110.800 C 323.200 111.460,323.380 112.000,323.600 112.000 C 323.820 112.000,324.000 112.540,324.000 113.200 C 324.000 113.860,324.180 114.400,324.400 114.400 C 324.620 114.400,324.800 114.779,324.800 115.243 C 324.800 116.238,325.942 121.450,326.413 122.600 C 326.858 123.689,327.231 125.446,327.474 127.600 C 327.586 128.590,327.840 129.571,328.039 129.780 C 328.237 129.989,328.400 131.013,328.400 132.056 C 328.400 133.099,328.580 134.064,328.800 134.200 C 329.020 134.336,329.200 135.877,329.200 137.624 C 329.200 139.534,329.364 140.800,329.611 140.800 C 330.158 140.800,329.839 163.391,329.227 168.000 C 328.978 169.870,328.675 172.525,328.553 173.900 C 328.432 175.275,328.167 176.400,327.966 176.400 C 327.765 176.400,327.600 177.109,327.600 177.976 C 327.600 178.843,327.420 179.664,327.200 179.800 C 326.980 179.936,326.800 180.746,326.800 181.600 C 326.800 182.454,326.620 183.264,326.400 183.400 C 326.180 183.536,326.000 184.256,326.000 185.000 C 326.000 185.744,325.833 186.456,325.628 186.583 C 325.423 186.709,325.133 187.800,324.982 189.006 C 324.831 190.213,324.549 191.200,324.354 191.200 C 324.159 191.200,324.000 191.740,324.000 192.400 C 324.000 193.060,323.820 193.600,323.600 193.600 C 323.380 193.600,323.200 194.050,323.200 194.600 C 323.200 195.150,323.020 195.600,322.800 195.600 C 322.580 195.600,322.400 196.140,322.400 196.800 C 322.400 197.460,322.220 198.000,322.000 198.000 C 321.780 198.000,321.600 198.349,321.600 198.776 C 321.600 199.203,321.420 199.664,321.200 199.800 C 320.980 199.936,320.800 200.487,320.800 201.024 C 320.800 201.561,320.620 202.000,320.400 202.000 C 320.180 202.000,320.000 202.360,320.000 202.800 C 320.000 203.240,319.820 203.600,319.600 203.600 C 319.380 203.600,319.200 203.960,319.200 204.400 C 319.200 204.840,319.020 205.200,318.800 205.200 C 318.580 205.200,318.400 205.472,318.400 205.805 C 318.400 206.138,318.232 206.723,318.026 207.105 C 317.821 207.487,317.417 208.385,317.129 209.100 C 316.840 209.815,316.469 210.400,316.302 210.400 C 316.136 210.400,316.000 210.670,316.000 211.000 C 316.000 211.330,315.854 211.600,315.675 211.600 C 315.496 211.600,315.102 212.230,314.800 213.000 C 314.498 213.770,314.104 214.400,313.925 214.400 C 313.746 214.400,313.600 214.760,313.600 215.200 C 313.600 215.640,313.420 216.000,313.200 216.000 C 312.980 216.000,312.800 216.278,312.800 216.617 C 312.800 216.956,312.440 217.620,312.000 218.092 C 311.560 218.564,311.200 219.187,311.200 219.475 C 311.200 219.764,311.055 220.000,310.879 220.000 C 310.702 220.000,310.117 220.897,309.579 221.994 C 308.699 223.785,307.200 224.798,307.200 223.600 C 307.200 223.380,306.660 223.200,306.000 223.200 C 305.340 223.200,304.800 223.020,304.800 222.800 C 304.800 222.580,304.350 222.400,303.800 222.400 C 303.250 222.400,302.800 222.220,302.800 222.000 C 302.800 221.780,302.480 221.600,302.088 221.600 C 301.697 221.600,301.117 221.240,300.800 220.800 C 300.483 220.360,299.997 220.000,299.720 220.000 C 299.105 220.000,288.000 209.046,288.000 208.440 C 288.000 208.203,288.810 206.944,289.800 205.642 C 290.790 204.340,291.600 203.078,291.600 202.838 C 291.600 202.597,291.780 202.400,292.000 202.400 C 292.220 202.400,292.400 202.170,292.400 201.888 C 292.400 201.607,292.760 201.117,293.200 200.800 C 293.670 200.461,294.000 199.765,294.000 199.112 C 294.000 198.500,294.180 198.000,294.400 198.000 C 294.620 198.000,294.800 197.201,294.800 196.224 C 294.800 195.247,294.620 194.336,294.400 194.200 C 294.180 194.064,294.000 193.603,294.000 193.176 C 294.000 192.749,293.820 192.400,293.600 192.400 C 293.380 192.400,293.200 192.170,293.200 191.888 C 293.200 191.607,292.840 191.117,292.400 190.800 C 291.960 190.483,291.600 189.946,291.600 189.608 C 291.600 189.269,291.150 188.507,290.600 187.913 C 290.050 187.320,289.600 186.674,289.600 186.477 C 289.600 186.280,289.060 185.554,288.400 184.863 C 287.740 184.172,287.200 183.375,287.200 183.092 C 287.200 182.809,286.840 182.317,286.400 182.000 C 285.960 181.683,285.600 181.220,285.600 180.971 C 285.600 180.722,285.105 179.994,284.500 179.352 C 283.895 178.711,283.145 177.694,282.832 177.093 C 282.520 176.492,282.115 176.000,281.932 176.000 C 281.750 176.000,281.600 175.640,281.600 175.200 C 281.600 174.760,281.780 174.400,282.000 174.400 C 282.220 174.400,282.400 173.871,282.400 173.224 C 282.400 172.577,282.580 171.936,282.800 171.800 C 283.020 171.664,283.200 171.023,283.200 170.376 C 283.200 169.729,283.380 169.200,283.600 169.200 C 283.820 169.200,284.000 168.660,284.000 168.000 C 284.000 166.933,284.133 166.800,285.200 166.800 C 285.860 166.800,286.400 166.620,286.400 166.400 C 286.400 166.180,286.940 166.000,287.600 166.000 C 288.260 166.000,288.800 165.820,288.800 165.600 C 288.800 165.380,289.250 165.200,289.800 165.200 C 290.350 165.200,290.800 165.020,290.800 164.800 C 290.800 164.580,291.340 164.400,292.000 164.400 C 292.660 164.400,293.200 164.220,293.200 164.000 C 293.200 163.780,293.740 163.600,294.400 163.600 C 295.060 163.600,295.600 163.420,295.600 163.200 C 295.600 162.980,296.129 162.800,296.776 162.800 C 297.423 162.800,298.064 162.620,298.200 162.400 C 298.336 162.180,298.977 162.000,299.624 162.000 C 300.271 162.000,300.800 161.820,300.800 161.600 C 300.800 161.380,301.329 161.200,301.976 161.200 C 302.623 161.200,303.264 161.020,303.400 160.800 C 303.536 160.580,303.997 160.400,304.424 160.400 C 304.851 160.400,305.200 160.220,305.200 160.000 C 305.200 159.780,305.425 159.599,305.700 159.597 C 308.002 159.585,309.672 140.099,308.017 132.560 C 307.476 130.093,304.954 127.600,303.000 127.600 C 302.664 127.600,302.077 127.436,301.695 127.236 C 300.541 126.630,294.215 124.800,293.276 124.800 C 292.794 124.800,292.400 124.620,292.400 124.400 C 292.400 124.180,291.871 124.000,291.224 124.000 C 290.577 124.000,289.936 123.820,289.800 123.600 C 289.664 123.380,289.023 123.200,288.376 123.200 C 287.729 123.200,287.200 123.020,287.200 122.800 C 287.200 122.580,286.737 122.400,286.171 122.400 C 285.606 122.400,284.886 122.143,284.571 121.829 C 284.257 121.514,284.000 120.794,284.000 120.229 C 284.000 119.663,283.820 119.200,283.600 119.200 C 283.380 119.200,283.200 118.660,283.200 118.000 C 283.200 117.340,283.020 116.800,282.800 116.800 C 282.580 116.800,282.400 116.260,282.400 115.600 C 282.400 114.940,282.220 114.400,282.000 114.400 C 281.780 114.400,281.600 114.040,281.600 113.600 C 281.600 113.160,281.780 112.800,282.000 112.800 C 282.220 112.800,282.400 112.528,282.400 112.196 C 282.400 111.864,282.940 111.028,283.600 110.337 C 284.260 109.646,284.800 108.878,284.800 108.629 C 284.800 108.380,285.160 107.917,285.600 107.600 C 286.040 107.283,286.400 106.881,286.400 106.708 C 286.400 106.535,286.940 105.828,287.600 105.137 C 288.260 104.446,288.800 103.638,288.800 103.341 C 288.800 103.043,288.943 102.800,289.117 102.800 C 289.292 102.800,289.967 101.904,290.617 100.808 C 291.268 99.712,291.935 98.812,292.100 98.808 C 292.265 98.804,292.400 98.480,292.400 98.088 C 292.400 97.697,292.760 97.117,293.200 96.800 C 293.640 96.483,294.000 95.903,294.000 95.512 C 294.000 95.120,294.180 94.800,294.400 94.800 C 294.620 94.800,294.800 93.810,294.800 92.600 C 294.800 91.390,294.620 90.400,294.400 90.400 C 294.180 90.400,294.000 90.040,294.000 89.600 C 294.000 89.160,293.820 88.800,293.600 88.800 C 293.380 88.800,293.200 88.506,293.200 88.147 C 293.200 87.788,292.867 87.203,292.459 86.847 C 292.052 86.491,291.395 85.570,291.000 84.800 C 290.605 84.030,289.948 83.109,289.541 82.753 C 289.133 82.397,288.800 81.947,288.800 81.753 C 288.799 81.559,288.334 80.860,287.765 80.200 C 287.196 79.540,286.437 78.505,286.079 77.900 C 285.721 77.295,285.286 76.800,285.114 76.800 C 284.941 76.800,284.800 76.602,284.800 76.360 C 284.800 76.119,284.260 75.417,283.600 74.800 C 282.940 74.183,282.400 73.473,282.400 73.221 C 282.400 72.548,280.536 70.800,279.818 70.800 C 279.478 70.800,279.200 70.620,279.200 70.400 C 279.200 70.174,278.067 70.000,276.600 70.000 C 275.133 70.000,274.000 70.174,274.000 70.400 C 274.000 70.620,273.471 70.800,272.824 70.800 C 272.177 70.800,271.536 70.980,271.400 71.200 C 271.264 71.420,270.634 71.600,270.000 71.600 C 269.366 71.600,268.736 71.780,268.600 72.000 C 268.464 72.220,267.924 72.400,267.400 72.400 C 266.876 72.400,266.336 72.580,266.200 72.800 C 266.064 73.020,265.524 73.200,265.000 73.200 C 264.476 73.200,263.936 73.380,263.800 73.600 C 263.664 73.820,263.143 74.000,262.643 74.000 C 262.143 74.000,261.598 74.135,261.434 74.300 C 261.171 74.562,260.163 74.857,256.039 75.879 C 255.002 76.135,252.649 75.100,251.553 73.906 C 251.197 73.517,250.696 73.200,250.440 73.200 C 250.183 73.200,249.349 72.576,248.587 71.813 L 247.200 70.427 247.200 59.045 L 247.200 47.663 245.368 45.832 C 244.227 44.690,243.181 44.000,242.592 44.000 C 242.072 44.000,241.536 43.820,241.400 43.600 C 241.264 43.380,240.724 43.200,240.200 43.200 C 239.676 43.200,239.142 43.030,239.014 42.823 C 238.886 42.616,237.973 42.325,236.986 42.177 C 235.998 42.029,235.092 41.748,234.971 41.554 C 234.851 41.359,234.234 41.200,233.600 41.200 C 232.966 41.200,232.336 41.020,232.200 40.800 C 232.064 40.580,231.524 40.400,231.000 40.400 C 230.476 40.400,229.936 40.220,229.800 40.000 C 229.664 39.780,228.933 39.600,228.176 39.600 C 227.419 39.600,226.800 39.420,226.800 39.200 C 226.800 38.980,226.260 38.800,225.600 38.800 C 224.940 38.800,224.400 38.620,224.400 38.400 C 224.400 38.174,223.267 38.000,221.800 38.000 C 220.333 38.000,219.200 38.174,219.200 38.400 C 219.200 38.620,218.922 38.800,218.582 38.800 C 217.896 38.800,216.000 40.536,216.000 41.164 C 216.000 41.384,215.595 41.988,215.100 42.506 C 213.670 44.002,212.015 46.168,212.007 46.553 C 212.003 46.747,211.667 47.197,211.259 47.553 C 210.852 47.909,210.217 48.740,209.848 49.400 C 208.287 52.194,207.472 53.417,206.758 54.036 C 206.341 54.398,206.000 54.906,206.000 55.165 C 206.000 55.424,205.558 56.078,205.018 56.618 C 202.811 58.825,194.000 57.674,194.000 55.179 C 194.000 54.927,193.460 54.217,192.800 53.600 C 192.140 52.983,191.600 52.279,191.600 52.035 C 191.600 51.513,188.827 47.461,188.336 47.267 C 188.151 47.193,187.997 46.923,187.993 46.667 C 187.985 46.185,186.478 44.158,184.900 42.506 C 184.405 41.988,184.000 41.384,184.000 41.164 C 184.000 40.536,182.104 38.800,181.418 38.800 C 181.078 38.800,180.800 38.620,180.800 38.400 C 180.800 38.174,179.667 38.000,178.200 38.000 C 176.733 38.000,175.600 38.174,175.600 38.400 C 175.600 38.620,175.060 38.800,174.400 38.800 C 173.740 38.800,173.200 38.980,173.200 39.200 C 173.200 39.420,172.660 39.600,172.000 39.600 C 171.340 39.600,170.800 39.780,170.800 40.000 C 170.800 40.220,170.258 40.400,169.595 40.400 C 168.932 40.400,168.077 40.558,167.695 40.751 C 166.995 41.104,166.201 41.353,161.800 42.600 C 160.480 42.974,159.040 43.431,158.600 43.615 C 158.160 43.799,157.378 44.069,156.862 44.214 C 156.345 44.359,155.220 45.202,154.362 46.087 L 152.800 47.696 152.800 59.062 L 152.800 70.427 151.413 71.813 C 150.651 72.576,149.790 73.200,149.502 73.200 C 149.213 73.200,148.717 73.560,148.400 74.000 C 148.083 74.440,147.638 74.804,147.412 74.809 C 147.185 74.814,146.569 75.149,146.043 75.554 C 145.257 76.158,144.827 76.221,143.643 75.904 C 142.849 75.691,141.255 75.317,140.100 75.073 C 138.945 74.828,138.000 74.487,138.000 74.314 C 138.000 74.141,137.460 74.000,136.800 74.000 C 136.140 74.000,135.600 73.820,135.600 73.600 C 135.600 73.380,135.060 73.200,134.400 73.200 C 133.740 73.200,133.200 73.020,133.200 72.800 C 133.200 72.580,132.660 72.400,132.000 72.400 C 131.340 72.400,130.800 72.220,130.800 72.000 C 130.800 71.780,130.260 71.600,129.600 71.600 C 128.940 71.600,128.400 71.420,128.400 71.200 C 128.400 70.980,127.860 70.800,127.200 70.800 C 126.540 70.800,126.000 70.620,126.000 70.400 C 126.000 70.174,124.867 70.000,123.400 70.000 C 121.933 70.000,120.800 70.174,120.800 70.400 C 120.800 70.620,120.522 70.800,120.182 70.800 C 119.520 70.800,117.600 72.527,117.600 73.122 C 117.600 73.320,117.060 74.046,116.400 74.737 C 115.740 75.428,115.200 76.174,115.200 76.396 C 115.200 76.618,115.059 76.800,114.886 76.800 C 114.714 76.800,114.279 77.295,113.921 77.900 C 113.563 78.505,112.804 79.540,112.235 80.200 C 111.666 80.860,111.201 81.559,111.200 81.753 C 111.200 81.947,110.867 82.397,110.459 82.753 C 110.052 83.109,109.395 84.030,109.000 84.800 C 108.605 85.570,107.948 86.491,107.541 86.847 C 107.133 87.203,106.800 87.788,106.800 88.147 C 106.800 88.506,106.620 88.800,106.400 88.800 C 106.180 88.800,106.000 89.160,106.000 89.600 C 106.000 90.040,105.820 90.400,105.600 90.400 C 105.380 90.400,105.200 91.390,105.200 92.600 C 105.200 93.810,105.380 94.800,105.600 94.800 C 105.820 94.800,106.000 95.078,106.000 95.417 C 106.000 95.756,106.360 96.420,106.800 96.892 C 107.240 97.364,107.600 97.987,107.600 98.275 C 107.600 98.564,107.758 98.800,107.951 98.800 C 108.145 98.800,108.512 99.305,108.767 99.921 C 109.023 100.538,109.675 101.520,110.216 102.104 C 110.757 102.687,111.200 103.326,111.200 103.523 C 111.200 103.720,111.740 104.446,112.400 105.137 C 113.060 105.828,113.600 106.535,113.600 106.708 C 113.600 106.881,113.960 107.283,114.400 107.600 C 114.840 107.917,115.200 108.380,115.200 108.629 C 115.200 108.878,115.740 109.646,116.400 110.337 C 117.060 111.028,117.600 111.864,117.600 112.196 C 117.600 112.528,117.780 112.800,118.000 112.800 C 118.220 112.800,118.400 113.160,118.400 113.600 C 118.400 114.040,118.220 114.400,118.000 114.400 C 117.780 114.400,117.600 114.940,117.600 115.600 C 117.600 116.260,117.420 116.800,117.200 116.800 C 116.980 116.800,116.800 117.160,116.800 117.600 C 116.800 118.388,116.533 118.400,99.600 118.400 L 82.400 118.400 82.400 114.400 C 82.400 112.000,82.560 110.400,82.800 110.400 C 83.022 110.400,83.200 109.341,83.200 108.024 C 83.200 106.717,83.380 105.536,83.600 105.400 C 83.820 105.264,84.000 104.263,84.000 103.176 C 84.000 102.089,84.180 101.200,84.400 101.200 C 84.620 101.200,84.800 100.480,84.800 99.600 C 84.800 98.720,84.980 98.000,85.200 98.000 C 85.420 98.000,85.600 97.460,85.600 96.800 C 85.600 96.140,85.780 95.600,86.000 95.600 C 86.220 95.600,86.400 95.071,86.400 94.424 C 86.400 93.777,86.580 93.136,86.800 93.000 C 87.020 92.864,87.200 92.401,87.200 91.971 C 87.200 91.541,87.359 90.877,87.553 90.495 C 87.748 90.113,88.129 89.260,88.400 88.600 C 88.671 87.940,89.052 87.087,89.247 86.705 C 89.441 86.323,89.600 85.738,89.600 85.405 C 89.600 85.072,89.780 84.800,90.000 84.800 C 90.220 84.800,90.400 84.551,90.400 84.246 C 90.400 83.941,90.669 83.176,90.998 82.546 C 91.326 81.916,91.596 81.085,91.598 80.700 C 91.599 80.315,91.780 80.000,92.000 80.000 C 92.220 80.000,92.400 79.640,92.400 79.200 C 92.400 78.760,92.580 78.400,92.800 78.400 C 93.020 78.400,93.200 78.040,93.200 77.600 C 93.200 77.160,93.380 76.800,93.600 76.800 C 93.820 76.800,94.000 76.440,94.000 76.000 C 94.000 75.560,94.180 75.200,94.400 75.200 C 94.620 75.200,94.800 74.930,94.800 74.600 C 94.800 74.270,94.980 74.000,95.200 74.000 C 95.420 74.000,95.600 73.730,95.600 73.400 C 95.600 73.070,95.780 72.800,96.000 72.800 C 96.220 72.800,96.400 72.530,96.400 72.200 C 96.400 71.870,96.550 71.600,96.732 71.600 C 96.915 71.600,97.320 71.105,97.632 70.500 C 97.945 69.895,98.515 69.051,98.900 68.625 C 99.285 68.198,99.600 67.653,99.600 67.413 C 99.600 67.173,99.960 66.717,100.400 66.400 C 100.840 66.083,101.200 65.593,101.200 65.312 C 101.200 65.031,101.920 64.059,102.800 63.152 C 103.680 62.245,104.400 61.347,104.400 61.156 C 104.400 60.704,117.084 48.000,117.536 48.000 C 117.726 48.000,118.446 47.460,119.137 46.800 C 119.828 46.140,120.548 45.600,120.737 45.600 C 120.926 45.600,121.646 45.060,122.337 44.400 C 123.028 43.740,123.708 43.200,123.849 43.200 C 123.991 43.200,124.397 42.869,124.753 42.464 C 125.109 42.059,125.895 41.606,126.500 41.456 C 127.105 41.307,127.600 41.008,127.600 40.792 C 127.600 40.577,127.960 40.400,128.400 40.400 C 128.840 40.400,129.200 40.242,129.200 40.049 C 129.200 39.855,129.740 39.473,130.400 39.200 C 131.060 38.927,131.600 38.545,131.600 38.351 C 131.600 38.158,131.960 38.000,132.400 38.000 C 132.840 38.000,133.200 37.820,133.200 37.600 C 133.200 37.380,133.560 37.200,134.000 37.200 C 134.440 37.200,134.800 37.020,134.800 36.800 C 134.800 36.580,135.160 36.400,135.600 36.400 C 136.040 36.400,136.400 36.220,136.400 36.000 C 136.400 35.780,136.760 35.600,137.200 35.600 C 137.640 35.600,138.000 35.420,138.000 35.200 C 138.000 34.980,138.360 34.800,138.800 34.800 C 139.240 34.800,139.600 34.620,139.600 34.400 C 139.600 34.180,140.050 34.000,140.600 34.000 C 141.150 34.000,141.600 33.820,141.600 33.600 C 141.600 33.380,141.960 33.200,142.400 33.200 C 142.840 33.200,143.200 33.020,143.200 32.800 C 143.200 32.580,143.639 32.400,144.176 32.400 C 144.713 32.400,145.264 32.220,145.400 32.000 C 145.536 31.780,145.997 31.600,146.424 31.600 C 146.851 31.600,147.200 31.420,147.200 31.200 C 147.200 30.980,147.830 30.800,148.600 30.800 C 149.370 30.800,150.000 30.620,150.000 30.400 C 150.000 30.180,150.529 30.000,151.176 30.000 C 151.823 30.000,152.464 29.820,152.600 29.600 C 152.736 29.380,153.377 29.200,154.024 29.200 C 154.671 29.200,155.200 29.020,155.200 28.800 C 155.200 28.580,155.830 28.400,156.600 28.400 C 157.370 28.400,158.000 28.220,158.000 28.000 C 158.000 27.780,158.900 27.600,160.000 27.600 C 161.100 27.600,162.000 27.420,162.000 27.200 C 162.000 26.974,163.133 26.800,164.600 26.800 C 166.067 26.800,167.200 26.626,167.200 26.400 C 167.200 26.152,169.333 26.000,172.800 26.000 C 176.267 26.000,178.400 25.848,178.400 25.600 C 178.400 25.052,203.861 25.052,204.200 25.600 M176.742 55.816 C 177.654 57.036,178.400 58.166,178.400 58.328 C 178.400 58.491,178.760 58.883,179.200 59.200 C 179.640 59.517,180.000 59.980,180.000 60.229 C 180.000 60.478,180.540 61.246,181.200 61.937 C 181.860 62.628,182.400 63.376,182.400 63.600 C 182.400 63.824,182.940 64.572,183.600 65.263 C 184.260 65.954,184.800 66.677,184.800 66.870 C 184.800 67.460,188.340 70.800,188.966 70.800 C 189.289 70.800,189.664 70.980,189.800 71.200 C 189.954 71.449,193.796 71.600,200.000 71.600 C 206.204 71.600,210.046 71.449,210.200 71.200 C 210.336 70.980,210.711 70.800,211.034 70.800 C 211.660 70.800,215.200 67.460,215.200 66.870 C 215.200 66.677,215.740 65.954,216.400 65.263 C 217.060 64.572,217.600 63.824,217.600 63.600 C 217.600 63.376,218.140 62.628,218.800 61.937 C 219.460 61.246,220.000 60.478,220.000 60.229 C 220.000 59.980,220.360 59.517,220.800 59.200 C 221.240 58.883,221.600 58.491,221.600 58.328 C 221.600 56.629,225.916 52.893,226.600 54.000 C 226.736 54.220,227.276 54.400,227.800 54.400 C 228.324 54.400,228.864 54.580,229.000 54.800 C 229.136 55.020,229.777 55.200,230.424 55.200 C 231.071 55.200,231.600 55.380,231.600 55.600 C 231.600 55.820,231.960 56.000,232.400 56.000 C 233.179 56.000,233.200 56.267,233.200 66.400 C 233.200 73.067,233.344 76.800,233.600 76.800 C 233.820 76.800,234.000 77.160,234.000 77.600 C 234.000 78.040,234.180 78.400,234.400 78.400 C 234.620 78.400,234.800 78.676,234.800 79.013 C 234.800 79.349,235.115 79.743,235.500 79.888 C 235.885 80.033,236.677 80.657,237.260 81.275 C 237.844 81.894,238.543 82.400,238.814 82.400 C 239.084 82.400,239.597 82.715,239.953 83.100 C 240.756 83.968,243.871 86.400,244.180 86.400 C 244.305 86.400,244.972 86.940,245.663 87.600 C 246.354 88.260,247.162 88.800,247.459 88.800 C 247.757 88.800,248.000 88.952,248.000 89.137 C 248.000 90.172,251.533 91.267,254.246 91.072 C 257.649 90.828,259.600 90.420,259.600 89.955 C 259.600 89.760,260.140 89.600,260.800 89.600 C 261.460 89.600,262.000 89.420,262.000 89.200 C 262.000 88.980,262.540 88.800,263.200 88.800 C 263.860 88.800,264.400 88.620,264.400 88.400 C 264.400 88.180,264.940 88.000,265.600 88.000 C 266.260 88.000,266.800 87.820,266.800 87.600 C 266.800 87.380,267.329 87.200,267.976 87.200 C 268.623 87.200,269.264 87.020,269.400 86.800 C 269.536 86.580,270.076 86.400,270.600 86.400 C 271.124 86.400,271.664 86.220,271.800 86.000 C 272.481 84.898,275.598 86.728,275.600 88.230 C 275.600 88.467,276.050 89.083,276.600 89.600 C 277.150 90.117,277.600 90.701,277.600 90.898 C 277.600 91.096,277.866 91.523,278.191 91.848 C 278.711 92.368,278.546 92.762,276.791 95.175 C 275.696 96.680,274.800 98.072,274.800 98.268 C 274.800 98.463,274.440 98.883,274.000 99.200 C 273.560 99.517,273.200 100.025,273.200 100.328 C 273.200 100.631,272.660 101.383,272.000 102.000 C 271.340 102.617,270.800 103.337,270.800 103.600 C 270.800 103.863,270.260 104.583,269.600 105.200 C 268.940 105.817,268.400 106.526,268.400 106.777 C 268.400 107.028,268.040 107.620,267.600 108.092 C 266.723 109.034,266.376 115.200,267.200 115.200 C 267.420 115.200,267.600 115.740,267.600 116.400 C 267.600 117.060,267.780 117.600,268.000 117.600 C 268.220 117.600,268.400 118.140,268.400 118.800 C 268.400 119.460,268.580 120.000,268.800 120.000 C 269.020 120.000,269.200 120.540,269.200 121.200 C 269.200 121.860,269.380 122.400,269.600 122.400 C 269.820 122.400,270.000 122.850,270.000 123.400 C 270.000 123.950,270.180 124.400,270.400 124.400 C 270.620 124.400,270.800 124.940,270.800 125.600 C 270.800 126.260,270.980 126.800,271.200 126.800 C 271.420 126.800,271.600 127.340,271.600 128.000 C 271.600 128.660,271.780 129.200,272.000 129.200 C 272.220 129.200,272.400 129.656,272.400 130.213 C 272.400 131.435,274.814 134.000,275.963 134.000 C 276.397 134.000,276.864 134.180,277.000 134.400 C 277.136 134.620,277.687 134.800,278.224 134.800 C 278.761 134.800,279.200 134.980,279.200 135.200 C 279.200 135.420,279.740 135.600,280.400 135.600 C 281.060 135.600,281.600 135.780,281.600 136.000 C 281.600 136.220,282.140 136.400,282.800 136.400 C 283.460 136.400,284.000 136.580,284.000 136.800 C 284.000 137.020,284.529 137.200,285.176 137.200 C 285.823 137.200,286.464 137.380,286.600 137.600 C 286.736 137.820,287.199 138.000,287.629 138.000 C 288.059 138.000,288.723 138.164,289.105 138.365 C 289.487 138.565,290.700 138.991,291.800 139.312 L 293.800 139.895 293.913 144.347 C 294.009 148.130,293.934 148.800,293.413 148.800 C 293.076 148.800,292.800 148.980,292.800 149.200 C 292.800 149.420,292.260 149.600,291.600 149.600 C 290.940 149.600,290.400 149.780,290.400 150.000 C 290.400 150.220,289.860 150.400,289.200 150.400 C 288.540 150.400,288.000 150.580,288.000 150.800 C 288.000 151.020,287.460 151.200,286.800 151.200 C 286.140 151.200,285.600 151.380,285.600 151.600 C 285.600 151.820,285.060 152.000,284.400 152.000 C 283.740 152.000,283.200 152.180,283.200 152.400 C 283.200 152.620,282.660 152.800,282.000 152.800 C 281.340 152.800,280.800 152.980,280.800 153.200 C 280.800 153.420,280.260 153.600,279.600 153.600 C 278.940 153.600,278.400 153.780,278.400 154.000 C 278.400 154.220,278.040 154.400,277.600 154.400 C 277.067 154.400,276.800 154.133,276.800 153.600 C 276.800 153.160,276.620 152.800,276.400 152.800 C 276.180 152.800,276.000 152.440,276.000 152.000 C 276.000 151.560,275.820 151.200,275.600 151.200 C 275.380 151.200,275.200 150.874,275.200 150.476 C 275.200 150.079,274.570 148.707,273.800 147.428 C 273.030 146.149,272.400 144.945,272.400 144.752 C 272.400 144.558,272.259 144.400,272.086 144.400 C 271.914 144.400,271.447 143.850,271.050 143.177 C 270.653 142.505,269.756 141.380,269.057 140.677 C 268.359 139.975,267.347 138.770,266.809 138.000 C 265.663 136.358,262.436 133.200,261.905 133.200 C 261.703 133.200,260.846 132.480,260.000 131.600 C 259.154 130.720,258.284 130.000,258.065 130.000 C 257.846 130.000,257.607 129.855,257.533 129.677 C 257.341 129.209,253.735 126.800,253.228 126.800 C 252.993 126.800,252.800 126.655,252.800 126.477 C 252.800 126.123,250.012 124.800,249.266 124.800 C 249.010 124.800,248.800 124.620,248.800 124.400 C 248.800 124.180,248.440 124.000,248.000 124.000 C 247.560 124.000,247.200 123.820,247.200 123.600 C 247.200 123.380,246.840 123.200,246.400 123.200 C 245.960 123.200,245.600 123.020,245.600 122.800 C 245.600 122.580,245.060 122.400,244.400 122.400 C 243.740 122.400,243.200 122.220,243.200 122.000 C 243.200 121.780,242.761 121.600,242.224 121.600 C 241.687 121.600,241.136 121.420,241.000 121.200 C 240.864 120.980,240.313 120.800,239.776 120.800 C 239.239 120.800,238.800 120.620,238.800 120.400 C 238.800 120.180,238.080 120.000,237.200 120.000 C 236.320 120.000,235.600 119.820,235.600 119.600 C 235.600 119.380,234.700 119.200,233.600 119.200 C 232.500 119.200,231.600 119.020,231.600 118.800 C 231.600 118.535,214.667 118.400,181.600 118.400 C 148.533 118.400,131.600 118.265,131.600 118.000 C 131.600 117.780,131.780 117.600,132.000 117.600 C 132.220 117.600,132.400 117.060,132.400 116.400 C 132.400 115.740,132.580 115.200,132.800 115.200 C 133.624 115.200,133.277 109.034,132.400 108.092 C 131.960 107.620,131.600 107.073,131.600 106.876 C 131.600 106.679,131.060 105.954,130.400 105.263 C 129.740 104.572,129.200 103.808,129.200 103.564 C 129.200 103.320,128.660 102.617,128.000 102.000 C 127.340 101.383,126.800 100.631,126.800 100.328 C 126.800 100.025,126.440 99.517,126.000 99.200 C 125.560 98.883,125.200 98.463,125.200 98.268 C 125.200 98.072,124.313 96.692,123.229 95.202 C 121.040 92.192,121.015 92.704,123.500 89.606 C 123.995 88.989,124.400 88.330,124.400 88.142 C 124.401 87.954,124.827 87.305,125.347 86.700 C 126.273 85.623,128.400 85.135,128.400 86.000 C 128.400 86.220,128.940 86.400,129.600 86.400 C 130.260 86.400,130.800 86.580,130.800 86.800 C 130.800 87.020,131.340 87.200,132.000 87.200 C 132.660 87.200,133.200 87.380,133.200 87.600 C 133.200 87.820,133.740 88.000,134.400 88.000 C 135.060 88.000,135.600 88.180,135.600 88.400 C 135.600 88.620,136.140 88.800,136.800 88.800 C 137.460 88.800,138.000 88.980,138.000 89.200 C 138.000 89.420,138.540 89.600,139.200 89.600 C 139.860 89.600,140.400 89.780,140.400 90.000 C 140.400 90.220,140.929 90.400,141.576 90.400 C 142.223 90.400,142.864 90.580,143.000 90.800 C 143.852 92.178,150.355 90.902,152.278 88.979 C 152.597 88.661,153.016 88.400,153.210 88.400 C 153.405 88.400,154.014 87.950,154.564 87.400 C 155.114 86.850,155.672 86.400,155.805 86.400 C 156.126 86.400,159.225 83.988,160.047 83.100 C 160.403 82.715,160.916 82.400,161.186 82.400 C 161.457 82.400,162.156 81.894,162.740 81.275 C 163.323 80.657,164.115 80.033,164.500 79.888 C 164.885 79.743,165.200 79.349,165.200 79.013 C 165.200 78.676,165.380 78.400,165.600 78.400 C 165.820 78.400,166.000 78.040,166.000 77.600 C 166.000 77.160,166.180 76.800,166.400 76.800 C 166.656 76.800,166.800 73.067,166.800 66.400 C 166.800 56.267,166.821 56.000,167.600 56.000 C 168.040 56.000,168.400 55.820,168.400 55.600 C 168.400 55.380,168.929 55.200,169.576 55.200 C 170.223 55.200,170.864 55.020,171.000 54.800 C 171.136 54.580,171.676 54.400,172.200 54.400 C 172.724 54.400,173.264 54.220,173.400 54.000 C 173.974 53.071,175.178 53.725,176.742 55.816 M222.400 132.000 C 222.400 132.239,223.933 132.400,226.200 132.400 C 228.467 132.400,230.000 132.561,230.000 132.800 C 230.000 133.020,230.720 133.200,231.600 133.200 C 232.480 133.200,233.200 133.380,233.200 133.600 C 233.200 133.820,233.740 134.000,234.400 134.000 C 235.060 134.000,235.600 134.180,235.600 134.400 C 235.600 134.620,236.140 134.800,236.800 134.800 C 237.460 134.800,238.000 134.947,238.000 135.128 C 238.000 135.308,238.900 135.700,240.000 136.000 C 241.100 136.300,242.000 136.692,242.000 136.872 C 242.000 137.053,242.193 137.200,242.428 137.200 C 242.663 137.200,243.641 137.740,244.600 138.400 C 245.559 139.060,246.455 139.600,246.590 139.600 C 246.724 139.600,247.320 140.050,247.913 140.600 C 248.507 141.150,249.221 141.600,249.501 141.600 C 250.164 141.600,258.400 149.836,258.400 150.499 C 258.400 150.779,258.850 151.493,259.400 152.087 C 259.950 152.680,260.400 153.276,260.400 153.410 C 260.400 153.545,260.940 154.441,261.600 155.400 C 262.260 156.359,262.800 157.337,262.800 157.572 C 262.800 157.807,262.947 158.000,263.128 158.000 C 263.308 158.000,263.700 158.900,264.000 160.000 C 264.300 161.100,264.692 162.000,264.872 162.000 C 265.053 162.000,265.200 162.540,265.200 163.200 C 265.200 163.860,265.380 164.400,265.600 164.400 C 265.820 164.400,266.000 164.940,266.000 165.600 C 266.000 166.260,266.180 166.800,266.400 166.800 C 266.620 166.800,266.800 167.509,266.800 168.376 C 266.800 169.243,266.980 170.064,267.200 170.200 C 267.420 170.336,267.600 172.057,267.600 174.024 C 267.600 176.141,267.763 177.600,268.000 177.600 C 268.258 177.600,268.400 181.859,268.400 189.576 C 268.400 197.129,268.548 201.644,268.800 201.800 C 269.020 201.936,269.200 202.656,269.200 203.400 C 269.200 204.144,269.380 204.864,269.600 205.000 C 269.820 205.136,270.000 205.687,270.000 206.224 C 270.000 206.761,270.180 207.200,270.400 207.200 C 270.620 207.200,270.800 207.560,270.800 208.000 C 270.800 208.440,270.980 208.800,271.200 208.800 C 271.420 208.800,271.600 209.160,271.600 209.600 C 271.600 210.040,271.780 210.400,272.000 210.400 C 272.220 210.400,272.400 210.760,272.400 211.200 C 272.400 211.640,272.580 212.000,272.800 212.000 C 273.020 212.000,273.200 212.320,273.200 212.712 C 273.200 213.103,273.560 213.683,274.000 214.000 C 274.440 214.317,274.804 214.852,274.810 215.188 C 274.828 216.353,286.967 229.200,288.049 229.200 C 288.286 229.200,288.983 229.740,289.600 230.400 C 290.217 231.060,290.965 231.600,291.264 231.600 C 291.563 231.600,292.032 231.960,292.307 232.400 C 292.582 232.840,293.075 233.200,293.403 233.200 C 293.732 233.200,294.000 233.380,294.000 233.600 C 294.000 233.820,294.360 234.000,294.800 234.000 C 295.240 234.000,295.600 234.180,295.600 234.400 C 295.600 234.620,295.960 234.800,296.400 234.800 C 296.840 234.800,297.200 234.980,297.200 235.200 C 297.200 235.420,297.549 235.600,297.976 235.600 C 299.299 235.600,299.247 236.249,297.796 237.833 C 297.028 238.671,296.400 239.519,296.400 239.718 C 296.400 239.916,295.904 240.556,295.299 241.140 C 294.693 241.723,293.663 242.920,293.011 243.800 C 292.358 244.680,291.504 245.749,291.112 246.175 C 290.720 246.602,290.400 247.111,290.400 247.307 C 290.400 247.503,289.680 248.354,288.800 249.200 C 287.920 250.046,287.200 250.946,287.200 251.200 C 287.200 251.454,286.480 252.354,285.600 253.200 C 284.720 254.046,284.000 254.946,284.000 255.200 C 284.000 255.454,283.280 256.354,282.400 257.200 C 281.520 258.046,280.800 258.865,280.800 259.022 C 280.800 259.178,280.476 259.597,280.081 259.953 C 279.686 260.309,278.927 261.230,278.394 262.000 C 277.862 262.770,277.240 263.601,277.013 263.847 C 275.623 265.350,274.800 266.461,274.800 266.834 C 274.800 267.070,274.080 267.954,273.200 268.800 C 272.320 269.646,271.600 270.546,271.600 270.800 C 271.600 271.054,270.880 271.954,270.000 272.800 C 269.120 273.646,268.400 274.499,268.400 274.697 C 268.400 274.894,267.995 275.423,267.500 275.871 C 266.474 276.800,265.200 278.314,265.200 278.604 C 265.200 278.711,264.480 279.541,263.600 280.448 C 262.720 281.355,262.000 282.256,262.000 282.452 C 262.000 282.647,261.442 283.391,260.760 284.104 C 260.077 284.817,259.241 285.940,258.900 286.600 C 258.560 287.260,257.993 288.072,257.641 288.404 C 256.789 289.208,256.000 290.645,256.000 291.395 C 256.000 291.728,255.820 292.000,255.600 292.000 C 255.336 292.000,255.200 306.067,255.200 333.400 L 255.200 374.800 209.000 374.800 L 162.800 374.800 162.800 348.200 C 162.800 333.570,162.659 321.600,162.486 321.600 C 162.314 321.600,161.854 321.060,161.464 320.400 C 161.074 319.740,160.495 319.200,160.177 319.200 C 159.860 319.200,159.600 319.020,159.600 318.800 C 159.600 318.536,147.600 318.400,124.400 318.400 C 101.200 318.400,89.200 318.264,89.200 318.000 C 89.200 317.780,88.570 317.600,87.800 317.600 C 87.030 317.600,86.400 317.420,86.400 317.200 C 86.400 316.980,86.122 316.800,85.782 316.800 C 84.982 316.800,83.200 315.018,83.200 314.218 C 83.200 313.878,83.020 313.600,82.800 313.600 C 82.580 313.600,82.400 313.150,82.400 312.600 C 82.400 312.050,82.220 311.600,82.000 311.600 C 81.736 311.600,81.600 298.460,81.600 272.981 L 81.600 234.362 79.844 232.581 L 78.088 230.800 62.644 230.800 C 52.615 230.800,47.200 230.660,47.200 230.400 C 47.200 230.180,46.917 230.000,46.571 230.000 C 46.226 230.000,45.686 229.743,45.371 229.429 C 44.725 228.782,44.586 226.000,45.200 226.000 C 45.420 226.000,45.600 225.730,45.600 225.400 C 45.600 225.070,45.780 224.800,46.000 224.800 C 46.220 224.800,46.400 224.530,46.400 224.200 C 46.400 223.870,46.546 223.600,46.725 223.600 C 46.904 223.600,47.298 222.970,47.600 222.200 C 47.902 221.430,48.296 220.800,48.475 220.800 C 48.654 220.800,48.800 220.440,48.800 220.000 C 48.800 219.560,48.980 219.200,49.200 219.200 C 49.420 219.200,49.600 218.840,49.600 218.400 C 49.600 217.960,49.780 217.600,50.000 217.600 C 50.220 217.600,50.400 217.240,50.400 216.800 C 50.400 216.360,50.559 216.000,50.753 216.000 C 50.948 216.000,51.207 215.685,51.329 215.300 C 51.625 214.364,52.924 212.234,53.300 212.067 C 53.465 211.993,53.600 211.588,53.600 211.167 C 53.600 210.745,53.780 210.400,54.000 210.400 C 54.220 210.400,54.400 210.055,54.400 209.633 C 54.400 209.212,54.535 208.807,54.700 208.733 C 54.865 208.660,55.720 207.160,56.600 205.400 C 57.480 203.640,58.335 202.140,58.500 202.067 C 58.665 201.993,58.800 201.588,58.800 201.167 C 58.800 200.745,58.980 200.400,59.200 200.400 C 59.420 200.400,59.600 200.040,59.600 199.600 C 59.600 199.160,59.780 198.800,60.000 198.800 C 60.220 198.800,60.400 198.440,60.400 198.000 C 60.400 197.560,60.580 197.200,60.800 197.200 C 61.020 197.200,61.200 196.840,61.200 196.400 C 61.200 195.960,61.380 195.600,61.600 195.600 C 61.820 195.600,62.000 195.364,62.000 195.075 C 62.000 194.787,62.360 194.164,62.800 193.692 C 63.240 193.220,63.600 192.556,63.600 192.217 C 63.600 191.878,63.746 191.600,63.925 191.600 C 64.104 191.600,64.498 190.970,64.800 190.200 C 65.102 189.430,65.496 188.800,65.675 188.800 C 65.854 188.800,66.000 188.440,66.000 188.000 C 66.000 187.560,66.180 187.200,66.400 187.200 C 66.620 187.200,66.800 186.840,66.800 186.400 C 66.800 185.960,66.959 185.600,67.153 185.600 C 67.348 185.600,67.607 185.285,67.729 184.900 C 68.025 183.964,69.324 181.834,69.700 181.667 C 69.865 181.593,70.000 181.188,70.000 180.767 C 70.000 180.345,70.180 180.000,70.400 180.000 C 70.620 180.000,70.800 179.640,70.800 179.200 C 70.800 178.760,70.980 178.400,71.200 178.400 C 71.420 178.400,71.600 178.040,71.600 177.600 C 71.600 177.160,71.780 176.800,72.000 176.800 C 72.220 176.800,72.400 176.455,72.400 176.033 C 72.400 175.612,72.544 175.207,72.720 175.133 C 73.178 174.943,75.200 171.206,75.200 170.550 C 75.200 170.247,75.380 170.000,75.600 170.000 C 75.820 170.000,76.000 169.640,76.000 169.200 C 76.000 168.760,76.180 168.400,76.400 168.400 C 76.620 168.400,76.800 168.040,76.800 167.600 C 76.800 167.160,76.980 166.800,77.200 166.800 C 77.420 166.800,77.600 166.522,77.600 166.183 C 77.600 165.844,77.960 165.180,78.400 164.708 C 78.840 164.236,79.200 163.613,79.200 163.325 C 79.200 163.036,79.380 162.800,79.600 162.800 C 79.820 162.800,80.000 162.440,80.000 162.000 C 80.000 161.560,80.180 161.200,80.400 161.200 C 80.620 161.200,80.800 160.840,80.800 160.400 C 80.800 159.960,80.980 159.600,81.200 159.600 C 81.459 159.600,81.600 154.667,81.600 145.600 L 81.600 131.600 152.000 131.600 C 198.667 131.600,222.400 131.735,222.400 132.000 " stroke="none" fill="#040404" fill-rule="evenodd"></path><path id="path1" d="" stroke="none" fill="#080404" fill-rule="evenodd"></path><path id="path2" d="" stroke="none" fill="#080404" fill-rule="evenodd"></path><path id="path3" d="" stroke="none" fill="#080404" fill-rule="evenodd"></path><path id="path4" d="" stroke="none" fill="#080404" fill-rule="evenodd"></path></g></svg>